<?xml version="1.0" encoding="utf-8"?>
<!-- Generator: Adobe Illustrator 28.3.0, SVG Export Plug-In . SVG Version: 6.00 Build 0)  -->
<svg version="1.1" id="Layer_1" xmlns="http://www.w3.org/2000/svg" xmlns:xlink="http://www.w3.org/1999/xlink" x="0px" y="0px"
	 viewBox="0 0 659.87 115.99" style="enable-background:new 0 0 659.87 115.99;" xml:space="preserve">
<style type="text/css">
	.st0{display:none;}
	.st1{display:inline;}
	.st2{fill:#F1F2F2;}
	.st3{fill:#F7941E;}
	.st4{fill:#F26522;}
	.st5{fill:#FFFFFF;}
	.st6{fill:#FFFFFF;stroke:#000000;stroke-width:3.1249;}
	.st7{fill:#FFFFFF;stroke:#000000;stroke-width:2.7499;stroke-miterlimit:3.9998;}
</style>
<g id="Guides_For_Artboard_1_" class="st0">
</g>
<g id="Guides_For_Artboard" class="st0">
</g>
<g id="Word_To_Right" class="st0">
	<g class="st1">
		<path d="M512,35.68c-17.01,0-30.8,13.79-30.8,30.8c0,17.01,13.79,30.8,30.8,30.8c13.06,0,24.21-8.13,28.69-19.6h-20.3
			c-2.34,1.75-5.24,2.8-8.39,2.8c-5.74,0-10.67-3.46-12.83-8.4h43.11c0.33-1.82,0.52-3.68,0.52-5.6
			C542.79,49.47,529.01,35.68,512,35.68z M499.17,60.88c2.16-4.94,7.09-8.4,12.83-8.4s10.67,3.45,12.83,8.4H499.17z"/>
		<path d="M643.59,24.48h-16.8v11.2h-11.2v16.8h11.2v14c0,17.01,13.79,30.8,30.8,30.8h8.4v-16.8h-8.4c-7.73,0-14-6.27-14-14v-14
			h22.4v-16.8h-22.4V24.48z"/>
		<path d="M769.58,35.68c-17.01,0-30.8,13.79-30.8,30.8c0,17.01,13.79,30.8,30.8,30.8c17.01,0,30.8-13.79,30.8-30.8
			C800.38,49.47,786.59,35.68,769.58,35.68z M769.58,80.48c-7.73,0-14-6.27-14-14s6.27-14,14-14c7.73,0,14,6.27,14,14
			S777.31,80.48,769.58,80.48z"/>
		<path d="M831.17,24.48h-16.8v11.2h-11.2v16.8h11.2v14c0,17.01,13.79,30.8,30.8,30.8h8.4v-16.8h-8.4c-7.73,0-14-6.27-14-14v-14
			h22.4v-16.8h-22.4V24.48L831.17,24.48z"/>
		<path d="M917.45,60.88h-43.11c2.16-4.94,7.09-8.4,12.83-8.4c3.15,0,6.05,1.04,8.39,2.8l18.09-4.52
			c-5.37-9.03-15.21-15.08-26.47-15.08c-17.01,0-30.8,13.79-30.8,30.8c0,1.91,0.18,3.78,0.52,5.6H900c-2.16,4.94-7.09,8.4-12.83,8.4
			c-3.15,0-6.05-1.04-8.39-2.8h-20.3c4.48,11.47,15.63,19.6,28.69,19.6c17.01,0,30.8-13.79,30.8-30.8
			C917.97,64.57,917.79,62.7,917.45,60.88z"/>
		<path d="M444.8,35.68c-5.04,0-9.8,1.22-14,3.37V13.29h-16.8v83.99h16.8v-3.37c4.2,2.15,8.96,3.37,14,3.37
			c17.01,0,30.8-13.79,30.8-30.8C475.6,49.47,461.81,35.68,444.8,35.68z M444.8,80.48c-7.73,0-14-6.27-14-14s6.27-14,14-14
			c7.73,0,14,6.27,14,14S452.54,80.48,444.8,80.48z"/>
		<path d="M593.19,39.05c-4.2-2.15-8.96-3.37-14-3.37c-17.01,0-30.8,13.79-30.8,30.8c0,17.01,13.79,30.8,30.8,30.8
			c5.04,0,9.8-1.22,14-3.37v3.37h16.8v-61.6h-16.8V39.05z M579.19,80.48c-7.73,0-14-6.27-14-14s6.27-14,14-14
			c7.73,0,13.99,6.26,14,13.99v0.02C593.19,74.22,586.92,80.48,579.19,80.48z"/>
		<path d="M702.38,35.68c-5.04,0-9.79,1.22-14,3.37V13.29h-16.8v83.99h16.8v-3.37c4.2,2.15,8.96,3.37,14,3.37
			c17.01,0,30.8-13.79,30.8-30.8C733.18,49.47,719.39,35.68,702.38,35.68z M702.38,80.48c-7.73,0-14-6.27-14-14s6.27-14,14-14
			c7.73,0,14,6.27,14,14C716.38,74.21,710.11,80.48,702.38,80.48z"/>
	</g>
</g>
<g id="Word_To_Right_white" class="st0">
	<g class="st1">
		<path class="st2" d="M512,35.68c-17.01,0-30.8,13.79-30.8,30.8c0,17.01,13.79,30.8,30.8,30.8c13.06,0,24.21-8.13,28.69-19.6h-20.3
			c-2.34,1.75-5.24,2.8-8.39,2.8c-5.74,0-10.67-3.46-12.83-8.4h43.11c0.33-1.82,0.52-3.68,0.52-5.6
			C542.79,49.47,529.01,35.68,512,35.68z M499.17,60.88c2.16-4.94,7.09-8.4,12.83-8.4s10.67,3.45,12.83,8.4H499.17z"/>
		<path class="st2" d="M643.59,24.48h-16.8v11.2h-11.2v16.8h11.2v14c0,17.01,13.79,30.8,30.8,30.8h8.4v-16.8h-8.4
			c-7.73,0-14-6.27-14-14v-14h22.4v-16.8h-22.4V24.48z"/>
		<path class="st2" d="M769.58,35.68c-17.01,0-30.8,13.79-30.8,30.8c0,17.01,13.79,30.8,30.8,30.8c17.01,0,30.8-13.79,30.8-30.8
			C800.38,49.47,786.59,35.68,769.58,35.68z M769.58,80.48c-7.73,0-14-6.27-14-14s6.27-14,14-14c7.73,0,14,6.27,14,14
			S777.31,80.48,769.58,80.48z"/>
		<path class="st2" d="M831.17,24.48h-16.8v11.2h-11.2v16.8h11.2v14c0,17.01,13.79,30.8,30.8,30.8h8.4v-16.8h-8.4
			c-7.73,0-14-6.27-14-14v-14h22.4v-16.8h-22.4V24.48L831.17,24.48z"/>
		<path class="st2" d="M917.45,60.88h-43.11c2.16-4.94,7.09-8.4,12.83-8.4c3.15,0,6.05,1.04,8.39,2.8l18.09-4.52
			c-5.37-9.03-15.21-15.08-26.47-15.08c-17.01,0-30.8,13.79-30.8,30.8c0,1.91,0.18,3.78,0.52,5.6H900c-2.16,4.94-7.09,8.4-12.83,8.4
			c-3.15,0-6.05-1.04-8.39-2.8h-20.3c4.48,11.47,15.63,19.6,28.69,19.6c17.01,0,30.8-13.79,30.8-30.8
			C917.97,64.57,917.79,62.7,917.45,60.88z"/>
		<path class="st2" d="M444.8,35.68c-5.04,0-9.8,1.22-14,3.37V13.29h-16.8v83.99h16.8v-3.37c4.2,2.15,8.96,3.37,14,3.37
			c17.01,0,30.8-13.79,30.8-30.8C475.6,49.47,461.81,35.68,444.8,35.68z M444.8,80.48c-7.73,0-14-6.27-14-14s6.27-14,14-14
			c7.73,0,14,6.27,14,14S452.54,80.48,444.8,80.48z"/>
		<path class="st2" d="M593.19,39.05c-4.2-2.15-8.96-3.37-14-3.37c-17.01,0-30.8,13.79-30.8,30.8c0,17.01,13.79,30.8,30.8,30.8
			c5.04,0,9.8-1.22,14-3.37v3.37h16.8v-61.6h-16.8V39.05z M579.19,80.48c-7.73,0-14-6.27-14-14s6.27-14,14-14
			c7.73,0,13.99,6.26,14,13.99v0.02C593.19,74.22,586.92,80.48,579.19,80.48z"/>
		<path class="st2" d="M702.38,35.68c-5.04,0-9.79,1.22-14,3.37V13.29h-16.8v83.99h16.8v-3.37c4.2,2.15,8.96,3.37,14,3.37
			c17.01,0,30.8-13.79,30.8-30.8C733.18,49.47,719.39,35.68,702.38,35.68z M702.38,80.48c-7.73,0-14-6.27-14-14s6.27-14,14-14
			c7.73,0,14,6.27,14,14C716.38,74.21,710.11,80.48,702.38,80.48z"/>
	</g>
</g>
<g id="Word_Split">
	<g>
		<path d="M97.99,35.68c-17.01,0-30.8,13.79-30.8,30.8c0,17.01,13.79,30.8,30.8,30.8c13.06,0,24.21-8.13,28.69-19.6h-20.3
			c-2.34,1.75-5.24,2.8-8.39,2.8c-5.74,0-10.67-3.46-12.83-8.4h43.11c0.33-1.82,0.52-3.68,0.52-5.6
			C128.79,49.47,115,35.68,97.99,35.68z M85.16,60.88c2.16-4.94,7.09-8.4,12.83-8.4s10.67,3.45,12.83,8.4H85.16z"/>
		<path d="M229.58,24.48h-16.8v11.2h-11.2v16.8h11.2v14c0,17.01,13.79,30.8,30.8,30.8h8.4v-16.8h-8.4c-7.73,0-14-6.27-14-14v-14
			h22.4v-16.8h-22.4V24.48z"/>
		<path d="M30.8,35.68c-5.04,0-9.8,1.22-14,3.37V13.29H0v83.99h16.8v-3.37c4.2,2.15,8.96,3.37,14,3.37c17.01,0,30.8-13.79,30.8-30.8
			C61.59,49.47,47.81,35.68,30.8,35.68z M30.8,80.48c-7.73,0-14-6.27-14-14s6.27-14,14-14c7.73,0,14,6.27,14,14
			S38.53,80.48,30.8,80.48z"/>
		<path d="M179.19,39.05c-4.2-2.15-8.96-3.37-14-3.37c-17.01,0-30.8,13.79-30.8,30.8c0,17.01,13.79,30.8,30.8,30.8
			c5.04,0,9.8-1.22,14-3.37v3.37h16.8v-61.6h-16.8V39.05z M165.19,80.48c-7.73,0-14-6.27-14-14s6.27-14,14-14
			c7.73,0,13.99,6.26,14,13.99v0.02C179.18,74.22,172.92,80.48,165.19,80.48z"/>
	</g>
	<g>
		<path d="M512,35.68c-17.01,0-30.8,13.79-30.8,30.8c0,17.01,13.79,30.8,30.8,30.8c17.01,0,30.8-13.79,30.8-30.8
			C542.8,49.47,529.01,35.68,512,35.68z M512,80.48c-7.73,0-14-6.27-14-14s6.27-14,14-14c7.73,0,14,6.27,14,14
			S519.73,80.48,512,80.48z"/>
		<path d="M573.59,24.48h-16.8v11.2h-11.2v16.8h11.2v14c0,17.01,13.79,30.8,30.8,30.8h8.4v-16.8h-8.4c-7.73,0-14-6.27-14-14v-14
			h22.4v-16.8h-22.4V24.48L573.59,24.48z"/>
		<path d="M659.87,60.88h-43.11c2.16-4.94,7.09-8.4,12.83-8.4c3.15,0,6.05,1.04,8.39,2.8l18.09-4.52
			c-5.37-9.03-15.21-15.08-26.47-15.08c-17.01,0-30.8,13.79-30.8,30.8c0,1.91,0.18,3.78,0.52,5.6h43.11
			c-2.16,4.94-7.09,8.4-12.83,8.4c-3.15,0-6.05-1.04-8.39-2.8h-20.3c4.48,11.47,15.63,19.6,28.69,19.6c17.01,0,30.8-13.79,30.8-30.8
			C660.39,64.57,660.2,62.7,659.87,60.88z"/>
		<path d="M444.8,35.68c-5.04,0-9.8,1.22-14,3.37V13.29h-16.8v83.99h16.8v-3.37c4.2,2.15,8.96,3.37,14,3.37
			c17.01,0,30.8-13.79,30.8-30.8C475.6,49.47,461.81,35.68,444.8,35.68z M444.8,80.48c-7.73,0-14-6.27-14-14s6.27-14,14-14
			c7.73,0,14,6.27,14,14C458.8,74.21,452.53,80.48,444.8,80.48z"/>
	</g>
</g>
<g id="Face__x28_Strokes_x29_" class="st0">
	<g class="st1">
		<g>
			<path class="st3" d="M315.34,114.99c-0.82,0-1.65-0.01-2.48-0.02c-10.72-0.65-15.86-4.93-19.49-9.02
				c-0.21-0.26-18.19-23.02-21.97-62.84c-0.67-7.02,2.43-13.72,8.49-18.38C280.14,24.52,308.47,1,353.03,1
				c3.02,0,6.09,0.11,9.12,0.32c5.24,0.4,12.18,2.03,15.46,7.51c0.16,0.25,17.62,28.13,15.14,68.81c-0.31,5.17-1.69,8.5-5.06,12.29
				C387.43,90.2,363.15,114.99,315.34,114.99C315.35,114.99,315.35,114.99,315.34,114.99z"/>
			<path d="M353.03,2c2.94,0,5.96,0.1,9.05,0.32c3.91,0.3,11.37,1.51,14.67,7.02c0,0,17.48,27.41,15,68.23
				c-0.3,4.91-1.56,8.03-4.81,11.68c0,0-23.67,24.73-71.6,24.73c-0.81,0-1.64-0.01-2.46-0.02c-10.88-0.66-15.7-5.23-18.76-8.68
				c0,0-17.93-22.29-21.73-62.27c-0.72-7.62,3.1-13.65,8.1-17.49C280.5,25.52,308.31,2,353.03,2 M353.03,0
				c-23.47,0-42.26,6.5-53.88,11.95c-12.3,5.77-19.27,11.48-19.9,12.01c-6.32,4.87-9.54,11.88-8.84,19.24
				c3.81,40.12,21.41,62.41,22.16,63.34l0.03,0.04l0.03,0.04c3.76,4.25,9.09,8.68,20.13,9.35l0.04,0l0.04,0
				c0.84,0.01,1.67,0.02,2.5,0.02c25.17,0,43.63-6.85,54.7-12.59c12.06-6.26,18.1-12.5,18.35-12.76l0.02-0.03l0.02-0.03
				c3.54-3.97,4.98-7.47,5.31-12.89c2.48-40.76-14.37-67.96-15.29-69.41c-3.51-5.82-10.76-7.55-16.22-7.97
				C359.17,0.11,356.07,0,353.03,0L353.03,0z"/>
		</g>
		<g>
			<g>
				<path class="st4" d="M328.33,107.02c-10.82-0.66-15.61-5.17-18.65-8.58c0,0-17.84-21.99-21.63-61.45
					c-0.72-7.51,3.08-13.46,8.05-17.25c0,0,6.25-5.23,17.56-10.72c-20.61,6.86-32.45,16.77-32.45,16.77
					c-4.97,3.79-8.77,9.74-8.05,17.25c3.79,39.45,21.64,61.45,21.64,61.45c3.04,3.41,7.84,7.92,18.65,8.58
					c24.44,0.44,42.74-5.54,54.99-11.68C357.67,104.84,344.33,107.31,328.33,107.02z"/>
			</g>
		</g>
		<path d="M346.77,73.5c-2.2-3.73-0.97-8.53,2.75-10.73c3.72-2.2,8.53-0.97,10.73,2.76c2.2,3.72,0.97,8.52-2.75,10.73
			C353.78,78.45,348.98,77.22,346.77,73.5z"/>
		
			<ellipse transform="matrix(0.9984 -0.0564 0.0564 0.9984 -3.1909 20.12)" class="st5" cx="354.85" cy="66.59" rx="1.91" ry="1.63"/>
		
			<ellipse transform="matrix(0.2083 -0.9781 0.9781 0.2083 280.4737 365.3595)" class="st5" cx="365.92" cy="9.43" rx="2.6" ry="7.41"/>
		<circle class="st6" cx="315" cy="58.65" r="28.19"/>
		
			<ellipse transform="matrix(0.9526 -0.3041 0.3041 0.9526 4.0053 115.5337)" class="st7" cx="372.91" cy="44.91" rx="20.97" ry="21.85"/>
		<circle cx="316.08" cy="54.85" r="19.1"/>
		<g>
			<path class="st5" d="M328.23,40.64c1.61,5.05-1.14,10.43-6.14,12.03c-5,1.6-10.36-1.2-11.97-6.25
				c-1.61-5.04,1.14-10.43,6.14-12.02C321.26,32.8,326.62,35.6,328.23,40.64z"/>
		</g>
		<path d="M386.09,40.05c-1.67-8.4-9.52-13.95-17.52-12.39c-8.01,1.56-13.14,9.64-11.47,18.04c1.67,8.4,9.52,13.95,17.52,12.39
			C382.62,56.52,387.76,48.45,386.09,40.05z"/>
		<g>
			<path class="st5" d="M358.47,36.39c0.84,4.22,4.75,7.01,8.73,6.24c3.98-0.78,6.54-4.83,5.7-9.05c-0.84-4.22-4.75-7.01-8.74-6.23
				C360.18,28.12,357.63,32.18,358.47,36.39z"/>
		</g>
	</g>
</g>
<g id="Face__x28_Outlined_x29_">
	<g>
		<g>
			<path class="st3" d="M391.75,77.58c2.49-40.83-15-68.23-15-68.23c-3.31-5.51-10.76-6.72-14.67-7.02
				c-49.98-3.52-81.58,23.2-81.58,23.2c-5,3.84-8.83,9.88-8.1,17.49c3.8,39.99,21.73,62.27,21.73,62.27
				c3.05,3.45,7.88,8.02,18.76,8.68c49.58,0.87,74.06-24.71,74.06-24.71C390.2,85.61,391.45,82.49,391.75,77.58z"/>
			<path d="M353.03,2c2.94,0,5.96,0.1,9.05,0.32c3.91,0.3,11.37,1.51,14.67,7.02c0,0,17.48,27.41,15,68.23
				c-0.3,4.91-1.56,8.03-4.81,11.68c0,0-23.67,24.73-71.6,24.73c-0.81,0-1.64-0.01-2.46-0.02c-10.88-0.66-15.7-5.23-18.76-8.68
				c0,0-17.93-22.29-21.73-62.27c-0.72-7.62,3.1-13.65,8.1-17.49C280.5,25.52,308.31,2,353.03,2 M353.03,0
				c-23.47,0-42.26,6.5-53.88,11.95c-12.3,5.77-19.27,11.48-19.9,12.01c-6.32,4.87-9.54,11.88-8.84,19.24
				c3.81,40.12,21.41,62.41,22.16,63.34l0.03,0.04l0.03,0.04c3.76,4.25,9.09,8.68,20.13,9.35l0.04,0l0.04,0
				c0.84,0.01,1.67,0.02,2.5,0.02c25.17,0,43.63-6.85,54.7-12.59c12.06-6.26,18.1-12.5,18.35-12.76l0.02-0.03l0.02-0.03
				c3.54-3.97,4.98-7.47,5.31-12.89c2.48-40.76-14.37-67.96-15.29-69.41c-3.51-5.82-10.76-7.55-16.22-7.97
				C359.17,0.11,356.07,0,353.03,0L353.03,0z"/>
		</g>
		<g>
			<path class="st4" d="M328.33,107.02c-10.82-0.66-15.61-5.17-18.65-8.58c0,0-17.84-21.99-21.63-61.45
				c-0.72-7.51,3.08-13.46,8.05-17.25c0,0,6.25-5.23,17.56-10.72c-20.61,6.86-32.45,16.77-32.45,16.77
				c-4.97,3.79-8.77,9.74-8.05,17.25c3.79,39.45,21.64,61.45,21.64,61.45c3.04,3.41,7.84,7.92,18.65,8.58
				c24.44,0.44,42.74-5.54,54.99-11.68C357.67,104.84,344.33,107.31,328.33,107.02z"/>
		</g>
		<path d="M346.77,73.5c-2.2-3.73-0.97-8.53,2.75-10.73c3.72-2.2,8.53-0.97,10.73,2.76c2.2,3.72,0.97,8.52-2.75,10.73
			C353.78,78.45,348.98,77.22,346.77,73.5z"/>
		
			<ellipse transform="matrix(0.9984 -0.0564 0.0564 0.9984 -3.1909 20.12)" class="st5" cx="354.85" cy="66.59" rx="1.91" ry="1.63"/>
		
			<ellipse transform="matrix(0.2083 -0.9781 0.9781 0.2083 280.4737 365.3595)" class="st5" cx="365.92" cy="9.43" rx="2.6" ry="7.41"/>
		<g>
			<circle class="st5" cx="315" cy="58.65" r="28.19"/>
			<path d="M315,88.4c-12.99,0-24.38-8.32-28.33-20.71c-4.99-15.62,3.67-32.39,19.3-37.38c2.94-0.94,5.99-1.42,9.05-1.42
				c12.99,0,24.38,8.32,28.33,20.71c2.42,7.57,1.74,15.63-1.9,22.69c-3.64,7.06-9.82,12.28-17.39,14.7
				C321.11,87.93,318.06,88.4,315,88.4z M315.01,32.02c-2.74,0-5.46,0.43-8.1,1.27c-13.99,4.47-21.73,19.47-17.27,33.46
				c3.54,11.09,13.73,18.54,25.36,18.54c2.74,0,5.47-0.43,8.1-1.27c6.77-2.16,12.3-6.83,15.56-13.15s3.87-13.53,1.7-20.31
				C336.83,39.47,326.64,32.02,315.01,32.02z"/>
		</g>
		<g>
			
				<ellipse transform="matrix(0.9526 -0.3041 0.3041 0.9526 4.0053 115.5337)" class="st5" cx="372.91" cy="44.91" rx="20.97" ry="21.85"/>
			<path d="M373.42,68.06c-9.9,0-18.66-6.57-21.78-16.35c-3.89-12.19,2.49-25.17,14.23-28.91c2.13-0.68,4.34-1.03,6.57-1.03
				c9.9,0,18.66,6.57,21.78,16.35c1.88,5.9,1.45,12.15-1.23,17.61c-2.68,5.48-7.3,9.49-13,11.31
				C377.86,67.72,375.65,68.06,373.42,68.06z M372.44,24.52c-1.94,0-3.87,0.3-5.73,0.9c-10.29,3.29-15.88,14.71-12.44,25.46
				c2.76,8.64,10.46,14.44,19.16,14.44c1.94,0,3.87-0.3,5.73-0.9c4.98-1.59,9.01-5.1,11.36-9.9c2.36-4.81,2.74-10.34,1.08-15.56
				C388.84,30.32,381.14,24.52,372.44,24.52z"/>
		</g>
		<circle cx="316.08" cy="54.85" r="19.1"/>
		<g>
			<path class="st5" d="M328.23,40.64c1.61,5.05-1.14,10.43-6.14,12.03c-5,1.6-10.36-1.2-11.97-6.25
				c-1.61-5.04,1.14-10.43,6.14-12.02C321.26,32.8,326.62,35.6,328.23,40.64z"/>
		</g>
		<path d="M386.09,40.05c-1.67-8.4-9.52-13.95-17.52-12.39c-8.01,1.56-13.14,9.64-11.47,18.04c1.67,8.4,9.52,13.95,17.52,12.39
			C382.62,56.52,387.76,48.45,386.09,40.05z"/>
		<g>
			<path class="st5" d="M358.47,36.39c0.84,4.22,4.75,7.01,8.73,6.24c3.98-0.78,6.54-4.83,5.7-9.05c-0.84-4.22-4.75-7.01-8.74-6.23
				C360.18,28.12,357.63,32.18,358.47,36.39z"/>
		</g>
	</g>
</g>
</svg>
