<?xml version="1.0" encoding="utf-8"?>
<!-- Generator: Adobe Illustrator 28.3.0, SVG Export Plug-In . SVG Version: 6.00 Build 0)  -->
<svg version="1.1" id="Layer_1" xmlns="http://www.w3.org/2000/svg" xmlns:xlink="http://www.w3.org/1999/xlink" x="0px" y="0px"
	 viewBox="0 0 561.83 85.09" style="enable-background:new 0 0 561.83 85.09;" xml:space="preserve">
<style type="text/css">
	.st0{fill:#C41230;}
</style>
<g id="Guides">
</g>
<g id="Layer_1_00000053538579247251953210000003325429737054859702_">
	<path class="st0" d="M43.7,59.87c-0.95-0.85-2.17-0.59-4.66,0.65c-2.81,1.4-7.77,3.26-11.93,3.26c-2.81,0-4.76,0.05-7.77-1
		C6.16,58.17,0,47.99,0,32.46C0,18.43,9.86,5.65,19.44,1.99c2.76-1.05,5.01-1.3,7.92-1.3c5.71,0,11.88,2.91,13.28,3.71
		c1.4,0.8,3.21,0.9,3.96,0.55c0.75-0.35,1-0.2,1.85-1.8h1c0.2,2.1,0.15,17.09,0,18.99h-1.3c-1.65-5.51-3.39-10.18-7.02-14.28
		c-4.56-5.16-9.4-5.9-14.23-4.81c-3.56,0.8-6.21,3.86-7.67,8.22c-1.28,3.83-2.76,13.08-2.76,20.85c0,7.11,0.28,14.92,1.7,19.9
		c1.4,4.91,2.98,7.3,7.52,9.12c3.86,1.56,9.47,0.95,14.53-4.21c5.56-5.66,7.67-14.88,7.67-14.88h1.35c0.2,2.26-0.2,18.24-0.45,20.49
		h-1.35C45.05,61.52,44.57,60.65,43.7,59.87z M74.37,58.96c-1.12,1.32-2.68,2.1-4.56,2.1c-3.96,0-5.66-3.54-5.66-7.52
		c0-1.5,0-4.6,0.15-5.81c0.42-3.25,2.4-5.1,6.16-5.51c2.21-0.24,4.46-0.3,5.86-0.25v-1.96c-7.62,0.2-12.61,1.1-15.64,2.01
		c-5.21,1.55-8.22,5.04-8.92,8.72c-0.75,3.96,0.4,7.47,2.56,9.22c3.42,2.78,6.92,3.66,11.28,3.66c5.36,0,9.07-2.56,11.07-4.31
		c0,0,1.79,2.11,2.4,2.6c1.35,1.1,3.86,2,5.91,2c2.1,0,4.59-0.87,5.76-2c1.6-1.55,3.06-3.81,3.61-6.11l-1.25-0.35
		c-0.35,1.15-1.1,2.96-2.21,3.71c-0.85,0.58-1.79,0.35-2.5-1.05c-0.35-0.69-0.35-2-0.35-3.21V33.96c0-2-1.16-4.16-1.7-4.96
		c-0.95-1.4-3.02-3.54-8.17-4.96c-4.71-1.3-9.97-1.2-13.53-0.35c-3.31,0.79-9.47,3.41-9.47,9.22c0,3.31,2.91,5.51,5.66,5.51
		c2.75,0,5.71-2.2,5.71-5.41s-2.76-4.61-3.96-5.06c-1.2-0.45-0.14-1.39,0.05-1.5c1.2-0.7,2.76-1.65,6.47-1.65
		c4.66,0,7.22,1.05,7.22,7.22v8.02v1.96v11.87C76.32,55.29,75.58,57.53,74.37,58.96z M110.16,38.72c0-6.42,2.76-10.58,5.36-11.63
		c0.25-0.1,0.5,0.15,0.45,0.4c-0.11,0.55-0.9,1.06-0.9,3.41c0,3.21,2.81,6.11,6.31,6.11c3.26,0,6.21-3.06,6.21-6.26
		c0-3.91-2.41-7.07-7.17-7.07c-5.76,0-8.47,3.91-9.42,5.01c-0.35,0.4-0.75,0.6-0.75-0.2v-5.86c-0.79,0.8-2.96,2.2-5.11,2.2H93.12
		v1.5h5.51v34.93h-5.81v1.5h23.55v-1.5h-6.21L110.16,38.72L110.16,38.72z M147.06,32.42c1.4-2.8,4.29-5.61,7.77-5.61
		c3.21,0,4.76,2.5,4.76,4.76v29.67h-5.01v1.53h21.55v-1.53h-4.56V34.88c0-2.99-1.05-5.78-3.06-7.72c-1.85-1.79-5.66-3.46-9.02-3.46
		c-2.91,0-5.8,1.02-8.37,2.6c-1.92,1.19-3.62,2.74-4.81,4.21c-0.45,0.55-0.85,0.42-0.85-0.28v-7.62c-0.8,0.8-2.96,2.2-5.11,2.2
		h-11.23v1.5h4.51v34.93h-4.81v1.5h21.65v-1.5h-5.01V38.71C145.45,36.64,146.21,34.13,147.06,32.42z M189.51,40.13
		c0.05-1.8,0.1-5.01,0.15-7.87c0.03-1.61,0.16-3.96,0.85-5.06c0.81-1.3,2.26-2.1,4.16-2.1c1.8,0,2.94,0.73,3.71,2.15
		c0.59,1.09,0.9,3.1,0.9,4.81c-0.01,3.11,0.1,6.41,0.1,8.07L189.51,40.13l-0.25,1.95h23.65c0.1-1,0.11-3.2-0.7-5.76
		c-0.85-2.67-3.42-6.66-5.71-8.67c-2.91-2.56-7.12-4.21-11.73-4.21c-4.01,0-7.83,1.49-11.62,4.61c-4.51,3.71-7.12,9.97-7.12,16.24
		c0,5.26,1.74,10.44,5.71,14.48c2.91,2.96,8.8,5.06,14.03,5.06c5.26,0,10.07-2,13.38-6.11c2.11-2.62,3.36-5.56,4.21-8.97l-1.65-0.45
		c-1.3,3.91-2.82,6.6-4.81,8.82c-2.1,2.35-5.96,4.21-9.12,4.21c-2.96,0-5.06-1.15-6.51-3.41c-1.34-2.08-1.6-4.31-1.8-6.72
		c-0.2-2.4-0.2-5.31-0.2-9.12L189.51,40.13z M288.35,39.81c0.05-1.81,0.1-5.01,0.15-7.87c0.03-1.61,0.17-3.96,0.85-5.06
		c0.81-1.3,2.26-2.1,4.16-2.1c1.8,0,2.94,0.73,3.71,2.15c0.59,1.09,0.9,3.11,0.9,4.81c-0.01,3.11,0.1,6.41,0.1,8.07L288.35,39.81
		l-0.25,1.95h23.65c0.1-1,0.11-3.21-0.7-5.76c-0.85-2.67-3.42-6.66-5.71-8.67c-2.91-2.56-7.12-4.21-11.73-4.21
		c-4.01,0-7.83,1.49-11.63,4.61c-4.51,3.71-7.11,9.97-7.11,16.24c0,5.26,1.74,10.44,5.71,14.48c2.91,2.96,8.8,5.06,14.03,5.06
		c5.26,0,10.07-2,13.38-6.11c2.11-2.62,3.36-5.56,4.21-8.97l-1.65-0.45c-1.3,3.91-2.82,6.6-4.81,8.82c-2.1,2.36-5.96,4.21-9.12,4.21
		c-2.96,0-5.06-1.15-6.52-3.41c-1.34-2.08-1.6-4.31-1.8-6.72c-0.2-2.41-0.2-5.31-0.2-9.12L288.35,39.81z M219.79,65.14
		c-1.35,0.65-3.13,1.86-4.16,2.81c-1.41,1.3-2.76,3.56-2.76,5.76c0,2.71,1.3,5.51,3.91,7.52c3.48,2.67,8.14,3.86,13.33,3.86
		c4.03,0,8.43-1.16,11.32-3.16c3.16-2.18,5.28-4.83,6.71-8.37c0.73-1.79,1.35-5.26,1.35-7.72c0-2.2-0.65-4.76-1.55-6.51
		c-0.86-1.67-2.29-2.94-4.11-3.71c-1.65-0.7-3.76-1.05-6.21-1.05h-14.68c-1.91,0-3.53-0.47-4.21-1.4c-0.7-0.95-0.6-2.06,0.2-2.96
		c0.95-1.06,3.1-2.13,4.86-2.31c1-0.1,1.85-0.1,2.6,0c1.2,0.16,2.15,0.7,4.96,0.7c2.81,0,6.71-0.97,9.07-2.35
		c3.76-2.21,5.91-6.01,5.91-9.92c0-3.01-1.55-6.46-3.56-8.62c0.58-0.76,2.4-2.67,3.36-3.06c0.5-0.2,0.75,0.2,0.45,0.55
		c-0.74,0.86-1.17,2.56-0.4,4.11c0.77,1.55,2.14,2.56,4.16,2.56c2.2,0,3.96-1.8,3.96-4.01c0-1.65-0.86-3.06-2.35-4.11
		c-0.88-0.61-2.01-0.95-3.21-0.95c-1.35,0-2.71,0.55-3.66,1.05c-0.95,0.5-2.3,1.75-3.41,2.91c-2.65-1.9-5.96-3.31-10.02-3.31
		l0.15,1.2c2.3,0,3.31,1.1,3.91,2.46c0.63,1.41,0.65,2.74,0.65,5.11v7.52c0,2.1-0.22,3.38-0.85,4.86c-0.67,1.57-2.15,2.56-4.26,2.56
		S227.7,46.1,227,44.3c-0.63-1.63-0.5-4.46-0.5-4.46v-7.56c0,0-0.15-3.16,0.8-5.16c0.46-0.96,1.76-2.46,4.51-2.46l-0.15-1.2
		c-4.31,0-7.57,1.3-10.38,3.36c-2.6,1.91-4.86,5.51-4.86,9.17c0,3.66,1.82,7.82,5.76,10.07c0.35,0.2,0.55,0.65,0.05,0.8
		c-4.96,1.49-7.52,5.11-7.52,9.57C214.72,59.92,216.86,63,219.79,65.14l2.11,0.7c0,0,16.04,0,17.14,0c2.1,0,3.4,0.16,4.71,0.9
		c1.79,1.01,2.41,2.5,2.41,4.31c0,2.61-1.55,5.81-3.51,7.82c-2.57,2.64-6.87,4.66-11.68,4.66c-4.51,0-8.03-1.43-10.48-3.86
		c-1.69-1.68-2.31-3.91-2.31-6.51c0-3.16,1.51-5.61,3.71-7.32L219.79,65.14z M270.88,22.63c-0.79,0.8-2.96,2.21-5.11,2.21h-11.33
		v1.5h4.81v34.93h-5.01v1.5h21.15v-1.5h-4.51L270.88,22.63L270.88,22.63z M264.71,15.94c3.76,0,6.8-3.05,6.8-6.8s-3.05-6.8-6.8-6.8
		s-6.8,3.05-6.8,6.8S260.95,15.94,264.71,15.94z M392.83,60.93h-6.06V4.14h6.15v-1.8h-20.24l-14.36,41.3l-15-41.3h-21.65v1.81h6.47
		v50.03c0,3.46-1.04,4.4-1.67,5.12c-0.75,0.86-1.69,1.52-3.85,1.52h-1.2v1.91h16.6v-1.84h-1.06c-2,0-3.61-0.28-4.82-1.57
		c-0.92-0.99-1.73-3.8-1.73-5.76V6L351,62.72h2.76l19.43-56.31l0,54.51h-6.58v1.8l26.23,0L392.83,60.93L392.83,60.93z M405.34,41.75
		h23.65c0.1-1,0.11-3.21-0.7-5.76c-0.85-2.67-3.42-6.66-5.71-8.67c-2.9-2.56-7.11-4.21-11.73-4.21c-4.01,0-7.83,1.49-11.63,4.61
		c-4.51,3.71-7.11,9.97-7.11,16.24c0,5.26,1.74,10.44,5.71,14.48c2.91,2.96,8.8,5.06,14.03,5.06c5.26,0,10.07-2,13.38-6.11
		c2.11-2.62,3.36-5.56,4.21-8.97l-1.65-0.45c-1.3,3.91-2.83,6.6-4.81,8.82c-2.11,2.36-5.96,4.21-9.12,4.21
		c-2.96,0-5.06-1.15-6.52-3.41c-1.34-2.08-1.6-4.31-1.8-6.72C405.34,48.47,405.34,45.56,405.34,41.75l0.25-1.95
		c0.05-1.81,0.1-5.01,0.15-7.87c0.03-1.61,0.16-3.96,0.85-5.06c0.81-1.3,2.25-2.1,4.16-2.1c1.8,0,2.94,0.73,3.71,2.16
		c0.59,1.09,0.9,3.11,0.9,4.81c-0.01,3.11,0.1,6.42,0.1,8.07h-9.87L405.34,41.75z M429.38,3.88l4.26,0V61.1l-5.1,0l0,1.63h21.74
		v-1.62h-4.96V0c-0.79,0.81-2.94,2.22-5.1,2.23l-10.84,0L429.38,3.88z M453.18,3.88l4.26,0V61.1l-5.11,0l0.01,1.63h21.74v-1.62
		h-4.96V0c-0.79,0.81-2.95,2.22-5.1,2.23l-10.84,0L453.18,3.88z M494.25,24.99c3.92,0,7.09,1.5,7.09,11.75v13.03
		c0,10.26-3.18,12.05-7.09,12.05c-3.92,0-7.1-1.8-7.1-12.05V36.74C487.15,26.49,490.33,24.99,494.25,24.99l-0.15-1.48
		c-10.77,0-20.25,9.32-20.25,19.75c0,11.23,8.41,20.24,20.25,20.24c11.57,0,20.11-9.25,20.11-20.47c0-10.96-9.08-19.51-20.11-19.51
		L494.25,24.99z M532.77,32.42c1.4-2.8,4.29-5.61,7.77-5.61c3.21,0,4.76,2.51,4.76,4.76v29.67h-5.01v1.53h21.55v-1.53h-4.56V34.87
		c0-2.99-1.05-5.78-3.06-7.72c-1.85-1.79-5.66-3.46-9.02-3.46c-2.91,0-5.8,1.02-8.37,2.6c-1.92,1.19-3.62,2.74-4.81,4.21
		c-0.45,0.55-0.85,0.43-0.85-0.28v-7.62c-0.79,0.8-2.96,2.21-5.11,2.21h-11.23v1.5h4.51v34.93h-4.81v1.5h21.65v-1.5h-5.01V38.71
		C531.16,36.63,531.92,34.12,532.77,32.42z"/>
</g>
</svg>
