<?xml version="1.0" encoding="UTF-8"?>
<svg id="Layer_1" data-name="Layer 1" xmlns="http://www.w3.org/2000/svg" version="1.1" viewBox="0 0 65.51 18.32">
  <defs>
    <style>
      .cls-1 {
        fill: #fe5716;
        fill-rule: evenodd;
      }

      .cls-1, .cls-2 {
        stroke-width: 0px;
      }

      .cls-2 {
        fill: #10367a;
      }
    </style>
  </defs>
  <path class="cls-1" d="M11.04,2.82c.07-.57,0-1.41.44-1.8.13-.61,1.09-.47.94-.86-.09-.24-.54-.15-.73-.08-.64.2-1.3.37-1.96.51l-.64-.18c-.83.11-1.31.77-1.77,1.29-.39.44-.91,1.53-.51,2.15,0,.14-.05.28-.07.42l.94,1.37c.33.23.37.4.72.63l.21.33c.4.17.85.2,1.27.07,1.35.13,1.21-2.61,1.63-3.19-.07-.27-.25-.5-.48-.66ZM5.21,11.04c.34-.05.68-.13,1.02-.24.41-.2,1.81-1.19,1.36-1.99-.14-1.68-2.17-.26-3.05-.85-.84-.11-1.83-1.77-2.09-2.48-.04-.15-.11-.29-.2-.41,0-.03-.09.08-.09.05-.25.3-.21.56-.25,1.29h-.35c0,.19-.05.39-.17.54l-.08.13c-.22-.07-.11.03-.2-.15-.81.02-.75.83-1.12,1.29.02,1.51,3.01,3.38,5.21,2.81ZM15.15,6.46c-.93.11-1.82.44-2.6.96-.2.14-.37.31-.51.51-.09.17-.12.37-.09.56.02.24.14.47.34.62,1.61-.12,4.39-.22,4.93,1.13.02.12.05.23.08.35.51-.13.14-.09.92.04.31,0,.62-.05.92-.14.09-.02.16-.08.21-.15,0-.07,0-.13,0-.2.13.01.27,0,.39-.07.74-.12.35-.47.7-.86-.24-2.55-2.82-3.13-5.27-2.76l-.02.02ZM12.29,11.93c-.37.28-.51.21-.75.66,0,0,.04.07,0,.07.22.44.73.62,1.11.93.12.1.43.65.58.69.17.2.28.76.39.76.12.15,0,.51.11.67,0,.66-.09.71-.2.83,0,.05.06.17.06.21s.3.22.41.19c.36,0,1.83,1.16,1.94,1.38,1.05.08.98-.24,1.7-.55.2-.08.36,0,.51-.14s.15-.41.27-.55c0-2.59-3.53-5.05-6.14-5.14ZM8.14,12.52c-.15.15-.55.21-.67.39-.25.42-.55.82-.88,1.18-1.02.95-3.13,1.42-4.19.51-.07,0-.03.05.05.31.08.51.47,1.64.33,1.94.1.33.19.21.38.39s.17.44.31.51l.51-.03c.03.09.06.18.09.27l.62-.05c.12.03.47.21.57.23l.69-.05c.51.09,1.03-.04,1.42-.38.25-.17.51-.14.74-.33.36-.33.67-.71.93-1.13.51-.91.33-3.05-.12-3.6-.17-.2-.38-.21-.77-.16Z"/>
  <path class="cls-2" d="M46.63,2.29c4.27,0,7.15,2.7,7.15,7.52,0,6.07-4,7.86-8.12,7.86h-5.56V2.3h6.53ZM45.38,14.76c2.36,0,4.27-.78,4.27-4.94,0-3.54-1.91-4.72-4.27-4.72h-1.24v9.66h1.24ZM59.83,15.29c0,1.12.06,2.35.06,2.35h-4.13V2.3h9.75v3s-2.18-.05-2.92-.05h-2.76v3.04h5.06v2.83h-5.06v4.17ZM31.87,14.57c-1.79.11-3.32-1.25-3.44-3.03,0-.1,0-.21,0-.31v-.17s3.61-.09,4.83-.09c2.08,0,2.94,0,4.57-.05v-1.16c0-5.24-2.22-7.79-6.8-7.79-2.11,0-7,.79-7,8.14,0,4.89,2.48,7.82,6.8,7.82,2.49.13,4.95-.57,7-2-.16-.25-1.43-2.52-1.59-2.77-1.26.93-2.8,1.43-4.37,1.41ZM28.43,8.11c.06-.89.38-3,2.63-3s2.43,1.95,2.43,3v.18h-5.07v-.18Z"/>
</svg>