<?xml version="1.0" encoding="UTF-8"?>
<svg id="Layer_1" data-name="Layer 1" xmlns="http://www.w3.org/2000/svg" version="1.1" viewBox="0 0 856.78 115.77">
  <defs>
    <style>
      .cls-1 {
        fill: #3e81ba;
      }

      .cls-1, .cls-2, .cls-3, .cls-4, .cls-5, .cls-6, .cls-7, .cls-8 {
        stroke-width: 0px;
      }

      .cls-2 {
        fill: #77a5cd;
      }

      .cls-3 {
        fill: #2f68ac;
      }

      .cls-4 {
        fill: #319f4f;
      }

      .cls-5 {
        fill: #e84335;
      }

      .cls-6 {
        fill: #767676;
      }

      .cls-7 {
        fill: #f5bc0f;
      }

      .cls-8 {
        fill: #a1c2dd;
      }
    </style>
  </defs>
  <path class="cls-5" d="M266.32,60.9c0,16.02-12.98,29-29,29s-29-12.98-29-29,12.98-29,29-29,29,12.98,29,29M253.62,60.9c0-10.43-7.55-17.52-16.31-17.52s-16.31,7.12-16.31,17.52,7.55,17.52,16.31,17.52,16.26-7.18,16.26-17.52h.05Z"/>
  <path class="cls-7" d="M328.85,60.9c0,16.02-12.98,29-29,29s-29-12.98-29-29,12.98-29,29-29,29,12.98,29,29M316.15,60.9c0-10.43-7.55-17.52-16.31-17.52s-16.31,7.12-16.31,17.52,7.55,17.52,16.31,17.52,16.31-7.18,16.31-17.52"/>
  <path class="cls-1" d="M388.83,33.77v51.92c0,21.35-12.6,30.08-27.49,30.08-11.22.07-21.36-6.67-25.63-17.05l11.06-4.6c2,4.71,6.79,10.26,14.56,10.26,9.53,0,15.44-5.88,15.44-17v-4.16h-.45c-3.87,4.31-9.44,6.7-15.23,6.52-14.45,0-27.7-12.59-27.7-28.8s13.21-29,27.7-29c5.79-.1,11.35,2.3,15.23,6.6h.45v-4.76h12.06ZM377.67,61.05c0-10.18-6.8-17.62-15.44-17.62s-16.1,7.44-16.1,17.62,7.34,17.42,16.11,17.42,15.43-7.34,15.43-17.42"/>
  <rect class="cls-4" x="396.32" y="3.34" width="12.39" height="84.75"/>
  <path class="cls-5" d="M456.98,70.47l9.85,6.52c-5.36,8.05-14.42,12.86-24.09,12.81-16.43,0-28.68-12.7-28.68-28.91,0-17.2,12.37-28.92,27.27-28.92s22.35,11.94,24.77,18.39l1.31,3.29-38.67,16.06c3,5.8,7.56,8.76,14,8.76s10.95-3.18,14.24-8M426.64,60.03l25.84-10.73c-1.42-3.61-5.7-6.13-10.73-6.13-8.75.39-15.52,7.81-15.13,16.56,0,0,0,0,0,.01v.31l.02-.02Z"/>
  <path class="cls-1" d="M161.32,53.43v-12.27h41.35c.43,2.44.63,4.92.61,7.4,0,9.21-2.52,20.59-10.63,28.69-7.88,8.21-18,12.59-31.29,12.59-24.68.07-45.54-20.14-45.54-44.93S136.68,0,161.38,0c11.5-.18,22.59,4.28,30.77,12.37l-8.66,8.66c-5.95-5.72-13.92-8.85-22.17-8.72-17.78,0-32.2,14.42-32.2,32.2v.39c-.22,17.79,14.02,32.38,31.81,32.6h.39c11.74,0,18.4-4.71,22.68-9,3.46-3.47,5.75-8.43,6.65-15.19l-29.33.11Z"/>
  <path class="cls-6" d="M553.8,68.45c.21,6.5-2.65,12.72-7.72,16.79-5.38,4.22-12.07,6.42-18.9,6.22-6.3.09-12.45-1.94-17.45-5.77-5.1-3.98-8.76-9.53-10.41-15.79l9.79-4c.61,2.29,1.55,4.49,2.78,6.52,1.15,1.83,2.57,3.48,4.22,4.88,1.55,1.35,3.32,2.44,5.22,3.22,1.94.79,4.02,1.18,6.11,1.17,4.12.18,8.18-1.1,11.45-3.61,2.93-2.32,4.58-5.89,4.45-9.62.04-3.24-1.29-6.35-3.67-8.55-2.29-2.3-6.58-4.53-12.89-6.68-4.04-1.35-8.01-2.91-11.89-4.67-8.45-4.28-12.68-10.61-12.68-19-.02-5.79,2.54-11.3,7-15,4.83-4.19,11.06-6.41,17.45-6.23,5.62-.13,11.14,1.5,15.78,4.67,4.17,2.69,7.3,6.72,8.88,11.43l-9.56,4c-.88-2.97-2.72-5.57-5.22-7.4-5.99-4.07-13.9-3.91-19.72.39-2.63,1.85-4.17,4.88-4.12,8.09-.02,2.73,1.16,5.33,3.22,7.12,2.37,2,7.52,4.36,15.45,7.12,7.93,2.76,13.83,6.08,17.27,10.05,3.49,4.07,5.33,9.29,5.16,14.65"/>
  <path class="cls-6" d="M589.25,91.47c-7.56.21-14.87-2.77-20.12-8.22-5.25-5.63-8.09-13.09-7.89-20.79,0-8.37,2.63-15.3,7.89-20.78,5.25-5.46,12.55-8.45,20.12-8.24,10.46-.3,19.99,5.95,23.9,15.65l-9.34,3.91c-2.85-6.81-7.93-10.21-15.22-10.21-4.68,0-9.12,2.08-12.12,5.67-6.66,8.15-6.66,19.86,0,28,3,3.59,7.44,5.67,12.12,5.67,7.48,0,12.74-3.41,15.78-10.24l9.13,3.91c-1.86,4.72-5.15,8.74-9.4,11.5-4.43,2.83-9.6,4.28-14.85,4.17"/>
  <path class="cls-6" d="M622.38,10.1h10.22v25.12l-.44,7.56h.44c1.74-2.84,4.22-5.15,7.17-6.68,3.08-1.71,6.54-2.61,10.06-2.61,6.67,0,11.8,1.91,15.39,5.73,3.59,3.82,5.39,9.25,5.39,16.28v34.19h-10.22v-32.24c0-9.78-4.33-14.67-13-14.67-4.13-.01-8.02,1.92-10.51,5.21-2.82,3.38-4.34,7.66-4.28,12.06v29.64h-10.28l.06-79.59Z"/>
  <path class="cls-6" d="M679.5,62.45c0-8.37,2.63-15.3,7.9-20.78,5.25-5.46,12.55-8.45,20.12-8.24,7.53-.22,14.81,2.77,20,8.23,5.33,5.47,8,12.4,8,20.78s-2.67,15.31-8,20.8c-5.19,5.46-12.47,8.45-20,8.22-7.57.22-14.87-2.77-20.12-8.22-5.27-5.48-7.91-12.41-7.9-20.79M689.74,62.45c0,5.86,1.7,10.6,5.11,14.23,6.63,7,17.68,7.29,24.68.66.22-.21.45-.43.66-.66,6.81-8.22,6.81-20.13,0-28.35-6.45-7-17.35-7.45-24.35-1h0c-.35.32-.69.66-1,1-3.49,3.85-5.32,8.93-5.1,14.12"/>
  <rect class="cls-6" x="744.26" y="10.1" width="10.28" height="79.54"/>
  <path class="cls-6" d="M787.1,33.44c7.57,0,13.54,2.02,17.89,6.05,4.35,4.03,6.53,9.57,6.52,16.62v33.59h-9.78v-7.56h-.41c-4.22,6.22-9.89,9.33-17,9.33-5.49.17-10.85-1.74-15-5.33-3.93-3.3-6.16-8.21-6.06-13.34-.18-5.26,2.21-10.27,6.4-13.45,4.25-3.34,10-5,17.05-5,5.2-.2,10.37.95,15,3.33v-2.34c.01-3.5-1.53-6.82-4.22-9.06-2.69-2.42-6.19-3.74-9.81-3.71-5.47-.13-10.61,2.61-13.56,7.22l-9-5.67c4.96-7.12,12.29-10.68,21.98-10.68M773.87,73.02c-.01,2.64,1.25,5.12,3.39,6.67,2.27,1.76,5.08,2.68,7.95,2.6,4.32,0,8.46-1.72,11.5-4.78,3.23-2.84,5.07-6.93,5.06-11.23-3.18-2.52-7.63-3.78-13.34-3.78-3.71-.14-7.36.91-10.43,3-2.57,1.64-4.13,4.47-4.13,7.52"/>
  <path class="cls-6" d="M833.32,89.69h-10.2v-54.47h9.8v8.89h.4c1.23-3.11,3.49-5.72,6.39-7.39,2.81-1.91,6.11-2.97,9.51-3.06,2.58-.07,5.15.37,7.56,1.31l-3.08,9.93c-1.94-.62-3.97-.88-6-.78-3.88,0-7.56,1.72-10.07,4.67-2.78,2.95-4.31,6.85-4.28,10.9l-.03,30Z"/>
  <g>
    <polygon class="cls-1" points="45 72.99 0 36.35 45 .72 45 72.99"/>
    <polygon class="cls-3" points="45 72.99 90 36.35 45 .72 45 72.99"/>
    <path class="cls-8" d="M45,38.22c14.5,0,26.25,11.75,26.25,26.25s-11.75,26.25-26.25,26.25-26.25-11.75-26.25-26.25,11.75-26.25,26.25-26.25"/>
    <path class="cls-2" d="M21.28,53.22c6.22-13.1,21.88-18.68,34.98-12.47,5.47,2.59,9.87,7,12.47,12.47H21.28Z"/>
  </g>
</svg>