<?xml version="1.0" encoding="utf-8"?>
<!-- Generator: Adobe Illustrator 28.3.0, SVG Export Plug-In . SVG Version: 6.00 Build 0)  -->
<svg version="1.1" id="Layer_1" xmlns="http://www.w3.org/2000/svg" xmlns:xlink="http://www.w3.org/1999/xlink" x="0px" y="0px"
	 viewBox="0 0 264.11 59.3" style="enable-background:new 0 0 264.11 59.3;" xml:space="preserve">
<style type="text/css">
	.st0{fill:#231F20;}
	.st1{fill:#FFDF25;}
	.st2{fill:#F5D425;}
	.st3{fill:#FFFFFF;}
	.st4{fill:#414042;}
	.st5{fill:#E0C223;}
</style>
<g>
	<path class="st0" d="M97.74,47.69c-2.85,0.8-6.7,1.39-9.48,1.39c-13.66,0-20.1-7.76-20.1-18.11c0-9.09,6.17-17.91,20.1-17.91
		c9.62,0,15.39,5.57,15.39,11.74c0,4.58-1.53,6.9-5.9,8.16c-4.51,1.26-9.48,1.39-15.19,1.39h-1.4c0,1.72,1.59,3.58,6.24,3.58
		c2.92,0,6.3-0.46,9.16-1.06c0.8-0.2,1.59-0.27,2.25-0.27c3.18,0,4.91,1.99,4.91,5.31C103.71,45.04,101.19,46.7,97.74,47.69
		 M88.26,23.15c-4.58,0-6.83,2.59-7.1,4.25h1.53c2.05,0,4.58,0,5.84-0.2c1.19-0.13,2.79-0.53,2.79-2.06
		C91.31,23.88,90.12,23.15,88.26,23.15z"/>
	<path class="st0" d="M136.42,47.69c-2.85,0.8-6.7,1.39-9.49,1.39c-13.67,0-20.1-7.76-20.1-18.11c0-9.09,6.17-17.91,20.1-17.91
		c9.62,0,15.39,5.57,15.39,11.74c0,4.58-1.52,6.9-5.9,8.16c-4.51,1.26-9.49,1.39-15.19,1.39h-1.39c0,1.72,1.59,3.58,6.23,3.58
		c2.92,0,6.3-0.46,9.15-1.06c0.79-0.2,1.59-0.27,2.25-0.27c3.18,0,4.91,1.99,4.91,5.31C142.38,45.04,139.87,46.7,136.42,47.69
		 M126.93,23.15c-4.58,0-6.83,2.59-7.1,4.25h1.52c2.06,0,4.58,0,5.84-0.2c1.2-0.13,2.79-0.53,2.79-2.06
		C129.98,23.88,128.79,23.15,126.93,23.15z"/>
	<path class="st0" d="M162.12,48.95c-0.86,0-1.66-0.07-2.52-0.07v4.44c0,3.32-2.86,5.97-6.44,5.97c-3.58,0-6.43-2.65-6.43-5.97
		V19.24c0-3.58,2.85-6.17,6.43-6.17c1,0,2.52,0.2,3.91,1.13c2.65-0.93,5.57-1.13,7.83-1.13c10.35,0,18.24,7.76,18.24,17.84
		C183.15,40.2,176.25,48.95,162.12,48.95 M164.11,24.34c-1.59,0-3.05,0.2-4.51,0.8v12.2c0.86,0.26,2.12,0.4,2.98,0.4
		c5.97,0,8.09-3.25,8.09-6.83C170.68,27.2,168.09,24.34,164.11,24.34z"/>
	<path class="st0" d="M205.73,49.02c-13,0-19.5-8.96-19.5-17.98c0-9.02,6.5-17.97,19.5-17.97c12.94,0,19.5,8.95,19.5,17.97
		C225.24,40.06,218.67,49.02,205.73,49.02 M205.73,24.28c-4.71,0-7.1,3.45-7.1,6.77c0,3.45,2.39,6.77,7.1,6.77
		c4.64,0,7.03-3.45,7.03-6.77C212.76,27.59,210.38,24.28,205.73,24.28z"/>
	<path class="st0" d="M264.11,43.45c0,3.25-2.85,5.9-6.44,5.9c-3.58,0-6.44-2.65-6.44-5.9V29.12c0-2.98-1.93-4.91-5.11-4.91
		c-1.59,0-2.85,0.33-4.31,0.8v18.44c0,3.25-2.85,5.9-6.43,5.9c-3.58,0-6.43-2.65-6.43-5.9V19.17c0-3.52,2.85-6.1,6.43-6.1
		c1.39,0,2.72,0.4,3.72,1.13c2.45-0.73,4.57-1.06,7.43-1.06c9.35,0,17.58,5.44,17.58,16.05V43.45"/>
	<path class="st0" d="M55.51,28.59l8.36-5.17c1.86-1.13,2.72-2.99,2.72-4.77c0-3.12-2.72-5.57-6.04-5.57
		c-1.19,0-2.25,0.27-3.32,0.93l-14.86,9.22V5.97c0-3.32-2.86-5.97-6.44-5.97c-3.58,0-6.43,2.65-6.43,5.97v29.98
		c-2.57-0.49-5.41-0.76-8.39-0.76C9.46,35.2,0,39.32,0,44.41c0,5.09,9.46,9.22,21.12,9.22c11.41,0,20.81-3.91,21.21-8.85
		c0.02-0.44,0.05-0.93,0.05-1.4v-7.1l2.32-1L54.85,47.1c1.33,1.52,3.05,2.25,4.98,2.25c3.58,0,6.43-2.65,6.43-5.97
		c0-1.33-0.46-2.65-1.46-3.71L55.51,28.59"/>
	<path class="st1" d="M34.94,21.36c0-7.62-6.36-13.78-14.21-13.78c-7.85,0-14.21,6.17-14.21,13.78c0,3.31,1.2,6.34,3.21,8.72
		c-2,2.38-3.21,5.41-3.21,8.72c0,3.15,1.61,7.4,2.91,8.37c1.33,1.12,6.79,2.21,11.39,2.21c4.61,0,9.56-0.77,11.22-2.03
		c1.51-1.24,2.89-5.4,2.89-8.54c0-3.31-1.2-6.34-3.21-8.72C33.73,27.7,34.94,24.67,34.94,21.36"/>
	<path class="st2" d="M33.41,33.36l-4.36-2.7c0,0,5.91,5.71-4.16,13.06c-5.05,3.68-13.81,3.96-13.81,3.96s6.09,1.93,12.89,1.52
		c4.91-0.29,6.7-1.52,6.7-1.52l3.45-7.1L33.41,33.36"/>
	<path class="st3" d="M10.46,20.38c0.01-1.8,1.46-3.25,3.26-3.24c1.79,0,3.25,1.46,3.24,3.25c-0.01,1.8-1.46,3.25-3.26,3.24
		C11.91,23.63,10.46,22.18,10.46,20.38"/>
	<path class="st0" d="M13.71,23.76L13.71,23.76c-0.91,0-1.75-0.35-2.39-0.99c-0.64-0.64-0.99-1.49-0.98-2.39
		c0.01-1.86,1.52-3.37,3.37-3.37c1.87,0.01,3.38,1.52,3.38,3.38C17.08,22.25,15.57,23.76,13.71,23.76L13.71,23.76z M13.72,17.27
		c-1.72,0-3.12,1.4-3.13,3.12c0,0.83,0.32,1.62,0.91,2.21c0.59,0.59,1.37,0.92,2.21,0.92l0.01,0.12v-0.12c1.72,0,3.12-1.4,3.12-3.12
		C16.84,18.67,15.44,17.27,13.72,17.27L13.72,17.27z"/>
	<path class="st0" d="M15.96,20.01c0,1.01-0.82,1.83-1.83,1.83c-1.01-0.01-1.83-0.83-1.83-1.83c0-0.93,0.71-1.7,1.61-1.81
		c-0.15,0.14-0.25,0.34-0.25,0.57c0,0.43,0.35,0.78,0.78,0.78c0.43,0,0.79-0.35,0.79-0.78c0-0.09-0.02-0.17-0.05-0.25
		C15.65,18.85,15.96,19.39,15.96,20.01"/>
	<path class="st3" d="M25.13,20.38c0.01-1.74,1.41-3.14,3.15-3.14c1.73,0.01,3.14,1.41,3.14,3.15c-0.01,1.74-1.41,3.14-3.15,3.14
		C26.53,23.53,25.13,22.12,25.13,20.38"/>
	<path class="st0" d="M28.28,23.65L28.28,23.65c-1.81,0-3.27-1.47-3.26-3.27c0-1.8,1.47-3.26,3.27-3.26c1.8,0,3.26,1.47,3.26,3.27
		C31.53,22.19,30.07,23.65,28.28,23.65L28.28,23.65z M28.28,17.37c-1.66,0-3.02,1.35-3.03,3.02c0,1.67,1.35,3.02,3.02,3.03
		l0.01,0.12v-0.12c1.66,0,3.02-1.35,3.02-3.02C31.3,18.73,29.95,17.37,28.28,17.37L28.28,17.37z"/>
	<path class="st0" d="M23.19,23.97c0,1.21-0.98,2.19-2.2,2.19c-1.21,0-2.19-0.99-2.19-2.19c0-1.21,0.99-2.2,2.2-2.19
		C22.21,21.77,23.19,22.76,23.19,23.97"/>
	<path class="st4" d="M22.46,23.73c0,0.87-0.71,1.56-1.57,1.56c-0.87,0-1.56-0.7-1.56-1.57c0-0.86,0.7-1.56,1.57-1.56
		C21.76,22.17,22.46,22.87,22.46,23.73"/>
	<path class="st3" d="M20.84,22.87c0,0.23-0.19,0.41-0.41,0.41c-0.23,0-0.41-0.19-0.41-0.41c0-0.23,0.18-0.41,0.41-0.41
		C20.66,22.45,20.84,22.64,20.84,22.87"/>
	<path class="st0" d="M29.65,20.02c0,0.98-0.79,1.77-1.77,1.77c-0.98,0-1.77-0.8-1.77-1.78c0-0.62,0.32-1.16,0.8-1.47
		c-0.05,0.1-0.09,0.21-0.09,0.34c0,0.42,0.34,0.76,0.76,0.75c0.42,0,0.76-0.33,0.76-0.75c0-0.26-0.14-0.48-0.34-0.62
		C28.93,18.32,29.66,19.08,29.65,20.02"/>
	<path class="st5" d="M32.2,14.79c2.26,4.38,2.23,8.87-0.1,12.69c-1.05,1.71-3.45,3.35-3.45,3.35s1.18,0.17,2.1,0.91
		c1.69,1.38,2.66,3.85,2.73,6.09c0.15,4.47-2.39,7-3.91,8.53c-1.81,1.81-5.15,2.76-5.63,2.89c0.04,0,0.08-0.01,0.12-0.01l4.56-0.63
		c1.53-0.33,2.76-0.76,3.44-1.28c1.51-1.24,2.89-5.4,2.89-8.54c0-3.31-1.2-6.34-3.21-8.72c2-2.37,3.21-5.41,3.21-8.72
		c0-7.06-5.48-12.87-12.53-13.68l-1.78,0.09C20.62,7.77,28.85,8.31,32.2,14.79"/>
	<path class="st0" d="M20.43,31.68c-6.33,0-10.66-1.28-10.7-1.3l0.12-0.39c0.04,0.01,4.32,1.28,10.58,1.28
		c5.75,0,11.2-1.27,11.25-1.28l0.09,0.4C31.73,30.4,26.24,31.68,20.43,31.68L20.43,31.68z"/>
	<path class="st0" d="M20.83,49.67c-4.66,0-10.19-1.09-11.59-2.28c-1.46-1.08-3.02-5.51-3.02-8.6c0-3.16,1.1-6.24,3.12-8.72
		c-2.01-2.47-3.12-5.56-3.12-8.72c0-7.77,6.51-14.09,14.51-14.09c8,0,14.51,6.32,14.51,14.09c0,3.16-1.1,6.24-3.12,8.72
		c2.01,2.47,3.12,5.56,3.12,8.72c0,3.31-1.43,7.49-3,8.78C30.34,49.02,24.99,49.67,20.83,49.67L20.83,49.67z M20.73,7.88
		c-7.67,0-13.9,6.05-13.9,13.48c0,3.1,1.11,6.12,3.14,8.52l0.16,0.2l-0.16,0.2c-2.02,2.4-3.14,5.42-3.14,8.52
		c0,3.06,1.6,7.24,2.79,8.12c1.18,1,6.32,2.15,11.21,2.15c4.89,0,9.53-0.83,11.04-1.97c1.42-1.16,2.77-5.2,2.77-8.3
		c0-3.1-1.11-6.12-3.13-8.52l-0.17-0.2l0.17-0.2c2.02-2.4,3.13-5.42,3.13-8.52C34.63,13.93,28.39,7.88,20.73,7.88L20.73,7.88z"/>
</g>
</svg>
