<?xml version="1.0" encoding="utf-8"?>
<!-- Generator: Adobe Illustrator 28.3.0, SVG Export Plug-In . SVG Version: 6.00 Build 0)  -->
<svg version="1.1"
	 id="svg3070" xmlns:svg="http://www.w3.org/2000/svg" xmlns:inkscape="http://www.inkscape.org/namespaces/inkscape" xmlns:rdf="http://www.w3.org/1999/02/22-rdf-syntax-ns#" xmlns:dc="http://purl.org/dc/elements/1.1/" xmlns:sodipodi="http://sodipodi.sourceforge.net/DTD/sodipodi-0.dtd" xmlns:cc="http://creativecommons.org/ns#"
	 xmlns="http://www.w3.org/2000/svg" xmlns:xlink="http://www.w3.org/1999/xlink" x="0px" y="0px" viewBox="0 0 287.86 76.25"
	 style="enable-background:new 0 0 287.86 76.25;" xml:space="preserve">
<style type="text/css">
	.st0{fill:#006699;}
	.st1{fill-rule:evenodd;clip-rule:evenodd;}
	.st2{fill-rule:evenodd;clip-rule:evenodd;fill:#FFFFFF;}
</style>
<sodipodi:namedview  bordercolor="#666666" borderopacity="1.0" fit-margin-bottom="0" fit-margin-left="0" fit-margin-right="0" fit-margin-top="0" id="base" inkscape:current-layer="layer1" inkscape:cx="142.93233" inkscape:cy="33.703355" inkscape:document-units="px" inkscape:pageopacity="0.0" inkscape:pageshadow="2" inkscape:window-height="750" inkscape:window-maximized="1" inkscape:window-width="1280" inkscape:window-x="-8" inkscape:window-y="-8" inkscape:zoom="2.8" pagecolor="#ffffff" showgrid="false">
	</sodipodi:namedview>
<g id="layer1" transform="translate(-200.55198,-393.96227)" inkscape:groupmode="layer" inkscape:label="Layer 1">
	<g id="g3019" transform="matrix(1.018827,0,0,-1.018827,170.5996,498.03288)">
		<path id="path14" inkscape:connector-curvature="0" class="st0" d="M237.58,96.79c0,2.96,2.46,5.36,5.5,5.36h63.38
			c3.04,0,5.5-2.4,5.5-5.36V32.67c0-2.96-2.46-5.36-5.5-5.36h-63.38c-3.04,0-5.5,2.4-5.5,5.36V96.79z"/>
		<path id="path16" inkscape:connector-curvature="0" class="st1" d="M29.4,39.46h31.04v10.19h-19.8v38.87H29.4
			C29.4,88.52,29.4,39.46,29.4,39.46z"/>
		<path id="path18" inkscape:connector-curvature="0" class="st1" d="M76.15,39.46v33.79H64.92V39.46H76.15z M70.53,77.87
			c3.92,0,6.36,2.6,6.36,5.84c-0.07,3.32-2.44,5.84-6.28,5.84c-3.84,0-6.36-2.52-6.36-5.84c0-3.25,2.44-5.84,6.21-5.84H70.53
			L70.53,77.87z"/>
		<path id="path20" inkscape:connector-curvature="0" class="st1" d="M81.36,39.46H92.6v18.87c0,1.01,0.07,2.02,0.37,2.74
			c0.81,2.02,2.66,4.11,5.76,4.11c4.06,0,5.69-3.1,5.69-7.64V39.46h11.23v19.38c0,10.38-5.54,15.21-12.93,15.21
			c-6.06,0-8.72-3.39-10.2-5.69h0.07v4.9H81.36C81.51,70.08,81.36,39.46,81.36,39.46L81.36,39.46z"/>
		<path id="path22" inkscape:connector-curvature="0" class="st1" d="M131.5,88.52h-11.23V39.46h11.23v10.96l2.81,3.53l8.79-14.49
			h13.82l-14.78,20.98l12.93,14.27h-13.52c0,0-9.24-12.77-10.05-14.28L131.5,88.52L131.5,88.52z"/>
		<path id="path24" inkscape:connector-curvature="0" class="st1" d="M186.95,53.56c0.15,0.87,0.37,2.53,0.37,4.42
			c0,8.74-4.43,17.6-16.11,17.6c-12.49,0-18.25-9.88-18.25-18.84c0-11.08,7.02-18,19.29-18c4.88,0,9.38,0.72,13.08,2.23l-1.48,7.42
			c-3.03-1.01-6.13-1.51-9.98-1.51c-5.25,0-9.83,2.15-10.2,6.74L186.95,53.56L186.95,53.56z M163.6,61.15
			c0.3,2.88,2.22,7.14,7.02,7.14c5.1,0,6.28-4.54,6.28-7.14H163.6z"/>
		<path id="path26" inkscape:connector-curvature="0" class="st1" d="M215.05,88.52V71.54h-0.15c-1.63,2.38-5.03,3.96-9.53,3.96
			c-8.65,0-16.26-6.92-16.18-18.74c0-10.96,6.87-18.09,15.44-18.09c4.66,0,9.09,2.02,11.31,5.91h0.22l0.44-5.12h9.98
			c-0.15,2.38-0.3,6.49-0.3,10.52v38.54H215.05L215.05,88.52z M215.05,55.1c0-0.86-0.07-1.73-0.22-2.45
			c-0.66-3.1-3.33-5.26-6.58-5.26c-4.66,0-7.69,3.75-7.69,9.66c0,5.55,2.59,10.02,7.76,10.02c3.47,0,5.91-2.38,6.58-5.33
			c0.15-0.65,0.15-1.37,0.15-2.02L215.05,55.1L215.05,55.1z"/>
		<path id="path28" inkscape:connector-curvature="0" class="st2" d="M260.12,39.5v33.79h-11.23V39.5H260.12z M254.5,77.91
			c3.92,0,6.36,2.6,6.36,5.84c-0.07,3.32-2.44,5.84-6.28,5.84c-3.84,0-6.35-2.52-6.35-5.84c0-3.24,2.44-5.84,6.21-5.84H254.5
			L254.5,77.91z"/>
		<path id="path30" inkscape:connector-curvature="0" class="st2" d="M266.34,39.5h11.23v18.87c0,1.01,0.07,2.02,0.37,2.74
			c0.81,2.02,2.66,4.11,5.76,4.11c4.06,0,5.69-3.1,5.69-7.64V39.5h11.23v19.38c0,10.38-5.54,15.21-12.93,15.21
			c-6.06,0-8.72-3.39-10.2-5.69h0.08v4.9h-11.23C266.48,70.12,266.34,39.5,266.34,39.5L266.34,39.5z"/>
	</g>
</g>
</svg>
