<?xml version="1.0" encoding="utf-8"?>
<!-- Generator: Adobe Illustrator 28.3.0, SVG Export Plug-In . SVG Version: 6.00 Build 0)  -->
<svg version="1.1" id="Layer_1" xmlns="http://www.w3.org/2000/svg" xmlns:xlink="http://www.w3.org/1999/xlink" x="0px" y="0px"
	 viewBox="0 0 177.15 45" style="enable-background:new 0 0 177.15 45;" xml:space="preserve">
<style type="text/css">
	.st0{fill:#ED1C24;}
	.st1{fill-rule:evenodd;clip-rule:evenodd;fill:#034EA2;}
	.st2{fill:#034EA2;}
</style>
<g>
	<path class="st0" d="M35,31.78c2,0.77,4.25,1.02,6.54,1.13c0,0,0.13-0.04,0.19,0.18c0.06,0.22-0.26,0.26-0.26,0.26
		c-3.14,0.07-7.89-0.72-8.76-1.23c-0.77-1.58-2.07-1.47-3.14-2.1c-0.04-0.4,0.26-0.51,0.55-0.69C31.97,29.59,33.23,31.23,35,31.78"
		/>
	<path class="st0" d="M21.14,30.28c0.37,0.91-0.63,2.21,0.89,2.57c0.67,0.19,0.97,0.39,1.7-0.2c0.32-0.27,0.39-0.69,0.18-1.06
		c-0.28-0.38-0.44-0.8-0.37-1.13l0.07-0.07c0.5,0.01,0.63,1.28,1.33,1.75c1.04-1.64,3.14-0.04,4.29-1.42c0.85,0.29,2,0.44,2.37,1.31
		c-0.66,0.29-1.52,0.18-2.22,0.44c-2.29,0.88-5.23,3.39-7.54,1.06l-2.55-3.25C19.78,29.92,20.52,30.28,21.14,30.28"/>
	<path class="st0" d="M10.67,11.69c-0.78,0.37-0.98,1.4-1.75,1.95c-1.49-0.51-2.59-0.38-3.81,0.55c-0.3-0.62,0.07-1.2,0.44-1.68
		c1.26-1.35,3.21,0.55,4.44-0.95C10.36,11.22,10.96,11.46,10.67,11.69"/>
	<path class="st0" d="M13.27,11.74c0.24,0.5-0.07,1.43-0.44,1.57c-1.2,0.34-2.22,1.24-3.47,0.69c0.63-0.91,1.29-1.76,2.66-1.5
		C12.46,12.42,13.09,11.57,13.27,11.74"/>
	<path class="st0" d="M10.76,14.44c0.37,0.66-0.24,1.15-0.66,1.63c-0.81,0.57-1.85,0.78-2.89,0.56c-0.48-0.18-1-0.73-1.59-0.44
		c-0.85,0.84,0.82,1.25,0.52,2.09c-0.79,0.03-1.3,0.1-1.97,0.46c-0.52-1.24,0.86-1.8,0.74-3.05C4.88,15.36,5.85,14.17,6.95,14
		C8.5,13.45,9.35,15.93,10.76,14.44"/>
	<path class="st0" d="M6.32,19.33c0.19,0.59,0.37,1.28-0.26,1.61c-0.8,0.2-1.3-0.44-1.56-1.06C4.47,19.37,4.68,19,5.18,18.78
		C5.7,18.67,6.25,18.85,6.32,19.33"/>
	<path class="st0" d="M15.3,19.51c0.67,0.55,0.85,1.31,0.89,2.12c-0.15,0.8-0.37,1.61-1.07,2.19c-0.85,0.84-2.33,0.29-3.29,0.95
		c-0.3,0.07-0.64-0.11-0.86-0.27c0.39-0.22,0.46,0.05,1.12-1.11c1.37,0.18,1.58-1.2,2.14-2.12c0.18-1.31-3.4-1.68-1.15-2.52
		C13.9,18.78,14.71,18.89,15.3,19.51"/>
	<path class="st0" d="M39.25,23.13c1.81,1.61,3.22,3.39,4.25,5.33c-0.89,0.47-1.66,1.57-2.85,1.13c-0.52-0.47-1.37,0.26-1.59-0.62
		c-0.11-1.53-0.67-2.88-1.59-4.09c0.52-0.18,0.89-1.02,0.26-1.42c-0.89-0.8-1.77-1.61-2.84-2.01c0.11-0.69,0.92-0.69,1.44-0.51
		L39.25,23.13"/>
	<path class="st0" d="M9.28,26.34c-0.26,0.51-0.96,0.51-1.44,0.36c-2.33-0.99-1.29-3.65-2.55-5.26c0.48-0.04,1.26,0.18,1.59-0.51
		C7.06,22.91,10.13,23.97,9.28,26.34"/>
	<path class="st0" d="M19.04,21.37c2.48,1.02,4.95,2.12,7.35,3.32c0,0,0.25,0.3,0,0.33c-0.26,0.02-2.14,0.39-2.73-0.6
		c-0.12-0.05-3.51-1.21-5.44-0.92c-0.41-0.51-0.89-0.7-1.4-0.81C16.04,21.19,18.15,20.94,19.04,21.37"/>
	<path class="st0" d="M32.22,25.13c-1.84,1.61-5.01,4.08-8.12,4.31c0.44-1.06,0.61-2.43,0.39-3.8c2.51,0.37,4.12-0.14,5.83-1.87
		c1.08-1.17,3.19-0.32,4.04-1.64c0.61-0.32,1.98,0.5,2.74,1.42c0.18,0.37-0.22,0.55-0.52,0.51C34.91,23.66,33.46,24.22,32.22,25.13"
		/>
	<path class="st0" d="M17.6,23.64c-0.37,0.81-0.41,1.64,0.18,2.26c0.89,0.99,2.14,1.06,3.36,1.24c0.07,0.84,0.32,1.64,0.17,2.45
		c-1.22,0.07-2.48-0.07-3.79-0.1c-2.1-0.06-3.28-0.54-5.28-1.22c-1.07-0.44-2.32-0.58-2.54-1.05c-0.14-0.3,0.41-2.08,0.41-2.08
		c1.04-0.58,1.98,0.8,2.97-0.18c1.48,0.11,2.59-0.73,3.36-1.82C16.89,23.16,17.26,23.34,17.6,23.64"/>
	<path class="st0" d="M23.55,24.95c0.8,0.7,0.3,2.01,0.26,3c-0.19,0.8-0.33,1.61-0.52,2.45c-0.59,0.16-0.96,0-1.33-0.18l-0.18-3.43
		c-1.33-0.58-3.38-0.07-3.94-1.75c-0.04-0.44,0.28-0.84,0.65-1.02C20.32,23.84,23.4,24.79,23.55,24.95"/>
	<path class="st0" d="M21.79,32.28c-0.42-0.26-0.28-0.65-0.07-1.12c0.16-0.39,0.73-0.32,1.1-0.25c0.33,0.11,0.69,0.55,0.7,1.03
		C23.52,31.93,23.09,33.08,21.79,32.28"/>
	<path class="st0" d="M10.24,24.28c0.57,0,1.03-0.47,1.03-1.05c0-0.58-0.46-1.05-1.03-1.05c-0.57,0-1.03,0.47-1.03,1.05
		C9.2,23.81,9.66,24.28,10.24,24.28"/>
	<path class="st0" d="M11.29,19.35l2.24,1.47c0,0,0.32,0.27,0,0.78c-0.32,0.5-0.69,1.05-0.69,1.05c0,0-0.18,0.37-0.66,0
		c-0.48-0.37-2.31-1.49-2.31-1.49c0,0-0.39-0.21-0.11-0.62c0.27-0.41,0.82-1.15,0.82-1.15C10.58,19.39,10.9,19.05,11.29,19.35"/>
	<path class="st1" d="M25.9,37.99h-5.04c-0.58,0-0.83,0.44-0.56,0.97l2.09,3.93c0.46,0.96,1.32,1.02,1.95,0.06l2.13-4
		C26.74,38.42,26.48,37.99,25.9,37.99"/>
	<path class="st1" d="M18.24,20.53c1.06,0.13,2.54,0.74,4.23,1.46h6.95c0.58,0,1.03-0.47,1-1.05l-0.45-4.56
		c-0.08-0.57-0.63-1.04-1.21-1.04H18c-0.58,0-1.12,0.47-1.21,1.04l-0.31,3.12c0.25,0.5,0.18,0.99,0.22,1.16
		C16.74,20.77,17.29,20.41,18.24,20.53"/>
	<path class="st1" d="M20.71,7h5.35c0.58,0,0.84-0.44,0.57-0.98l-2.19-4.17c-0.5-1.02-1.66-0.96-2.17,0.08l-2.14,4.09
		C19.87,6.56,20.13,7,20.71,7"/>
	<path class="st1" d="M28.71,29.63c0.22-0.13,0.5-0.34,0.66-0.41c0.34-0.16,0.54-0.55,0.55-0.63c0,0,0.32-0.62,0.09-0.82
		c-0.07-0.06-3.62,1.72-3.75,1.86C26.05,29.88,28.21,29.92,28.71,29.63"/>
	<path class="st2" d="M27.54,24.88c0.76,0.16,1.74-0.98,2.59-1.68c-0.18-0.18-0.43-0.29-0.71-0.29h-4.77
		c0.29,0.12,0.59,0.24,0.89,0.36C27.21,23.9,27.27,24.82,27.54,24.88"/>
	<path class="st2" d="M26.47,7.78H20.3c-0.58,0-1.22,0.45-1.42,0.99l-1.47,4.62c-0.15,0.56,0.2,1.02,0.78,1.02h10.39
		c0.58,0,0.93-0.46,0.78-1.02l-1.47-4.62C27.69,8.22,27.05,7.78,26.47,7.78"/>
	<path class="st1" d="M24.98,31.32c0.21,0.09,0.09-0.18,2.13-0.51c0.98,0.12,1.23-0.16,1.3-0.26h-3.44
		C24.61,30.98,24.8,31.24,24.98,31.32"/>
	<path class="st1" d="M21.56,34.28c-1.07-0.79-2.75-3.32-2.99-3.57c-0.04-0.04-0.17-0.1-0.36-0.16c-0.55,0.03-0.87,0.47-0.72,1.01
		l1.53,4.66c0.21,0.54,0.85,0.99,1.43,0.99h5.88c0.58,0,1.22-0.44,1.43-0.99l0.87-2.64c-0.39,0.17-0.84,0.39-1.36,0.66
		C23.96,35.96,22.64,35.09,21.56,34.28"/>
	<path class="st1" d="M40.05,15.27c-0.82,0-0.62,0.83-0.62,0.83c0.41,1.59,0.67,3.25,0.76,4.96c0,0,0.14,0.85,0.87,0.87h4.89
		c0.94-0.03,1-1.06,1-1.06c-0.09-1.71-0.37-3-0.81-4.58c0,0-0.42-1-1.47-1.02L40.05,15.27"/>
	<path class="st1" d="M45.91,22.85h-4.85c-0.38,0-0.6,0.2-0.72,0.4c1.1,1.07,2.2,2.29,3.05,3.47c1.16,1.61,0.74,1.88,0.46,2.2
		c-0.07,0.08-0.38,0.35-1.02,0.65h1.85c1.12-0.01,1.44-1.08,1.44-1.08c0.45-1.59,0.73-2.88,0.84-4.6
		C46.94,23.9,46.98,22.85,45.91,22.85"/>
	<path class="st1" d="M35.98,8.54c1.29,1.73,1.93,3.02,2.61,4.9c0,0,0.35,0.88,1.28,0.91h4.57c1.25,0,0.79-1.1,0.79-1.1
		c-0.78-1.95-1.65-3.09-3.03-4.8c-0.55-0.6-1.66-0.73-1.66-0.73H36.7C35.5,7.72,35.98,8.54,35.98,8.54"/>
	<path class="st2" d="M27.02,0.59c2.78,1.43,4.86,3.05,6.92,5.42c1.11,1.13,2.04,0.92,2.04,0.92h3.66c0,0,1.4,0.01,0.59-0.9
		C36.89,2.55,32.59,0.85,27.72,0"/>
	<path class="st1" d="M25.45,1.3c0.9,1.3,1.59,3.41,2.27,4.72c0,0,0.17,0.92,1.36,0.92h3.52c1.21,0,0.18-0.95,0.18-0.95
		c-1.98-2.17-3.95-3.63-6.58-4.93"/>
	<path class="st1" d="M31.68,14.35h5.35c1.01,0.03,0.58-0.92,0.58-0.92c-0.69-1.73-1.57-3.35-2.63-4.85c0,0-0.24-0.86-1.47-0.86
		h-4.07c-0.94,0-0.47,0.86-0.47,0.86c0.64,1.57,1.17,3.2,1.59,4.87C30.56,13.44,30.77,14.34,31.68,14.35"/>
	<path class="st1" d="M36.94,30.49h-3c0.31,0.16,0.55,0.29,0.69,0.34c0.37,0.15,1.46,0.55,2.71,0.82c0.05-0.1,0.09-0.21,0.14-0.31
		C37.48,31.34,37.88,30.47,36.94,30.49"/>
	<path class="st1" d="M30,33.07c-0.34,1.09-0.73,2.16-1.16,3.2c0,0-0.68,0.87,0.51,0.87h3.75c1.03,0,1.58-0.86,1.58-0.86
		c0.6-0.81,1.14-1.66,1.64-2.55c-1.31-0.27-3.18-0.67-4.29-0.71C31.34,33.01,30.94,32.83,30,33.07"/>
	<path class="st1" d="M31.09,28.84c0.06,0.22,0.78,0.73,1.24,0.73c0.46,0,4.98,0,4.98,0c0.51-0.01,0.79-0.25,0.94-0.49
		c0-0.05,0-0.1,0-0.14c-0.02-0.36,0.08-1.07-0.58-2.69c-0.73-1.79-2.13-1.84-3.29-1.52c-1.31,0.36-2.83,1.57-3,1.94
		c-0.17,0.37-0.34,1.85-0.34,1.85C31.03,28.53,31.03,28.61,31.09,28.84"/>
	<path class="st1" d="M36.03,20.11c0.57,0.1,1.61,0.78,2.77,1.75c0.58-0.2,0.46-0.81,0.46-0.81c-0.08-1.7-0.34-3.35-0.77-4.94
		c0,0-0.09-0.81-1.05-0.85h-5.63c-0.78-0.01-0.7,0.84-0.7,0.84c0.27,1.62,0.44,3.27,0.5,4.95c0,0,0.24,1.07,1.07,1.06h0.78
		c0.41-0.14,0.63-0.46,0.67-0.64C34.24,20.94,34.69,19.87,36.03,20.11"/>
	<path class="st1" d="M39.4,37.95h-3.66c0,0-0.93-0.21-2.04,0.92c-2.06,2.37-4.14,3.99-6.92,5.42c-0.91,0.48-0.56,0.76,0.7,0.59
		c4.87-0.85,9.17-2.55,12.51-6.04C40.8,37.94,39.4,37.95,39.4,37.95"/>
	<path class="st1" d="M32.54,38.91c0,0,1.03-0.95-0.18-0.95h-3.52c-1.19,0-1.36,0.92-1.36,0.92c-0.69,1.31-1.38,3.41-2.27,4.71
		c-0.3,0.5,0.04,0.53,0.75,0.25C28.59,42.53,30.55,41.08,32.54,38.91"/>
	<path class="st1" d="M11.16,36.36c-1.08-1.54-1.99-3.2-2.69-4.97c0,0-0.1-0.85-1.11-0.84h-4.8c-1.05,0.03-0.74,1.12-0.74,1.12
		c0.74,1.74,1.69,3.19,2.81,4.68c0,0,0.29,0.86,1.59,0.86h4.76C11.72,37.21,11.16,36.36,11.16,36.36"/>
	<path class="st1" d="M3.84,19.99c-0.24-0.3,0.13-0.62,0.01-0.73c-1.02-0.97-0.29-1.72-0.05-2.34c0.15-0.4,0.36-1.01,0.46-1.59H2.28
		c-1.05,0.02-1.47,1.02-1.47,1.02C0.37,17.93,0.09,19.22,0,20.93c0,0,0.06,1.03,1,1.06h3.88c-0.01-0.04-0.02-0.08-0.03-0.1
		C4.79,21.64,4.42,20.74,3.84,19.99"/>
	<path class="st1" d="M5.43,24.5c-0.07-0.61-0.19-1.16-0.3-1.6H1.04c-1.07,0-1.04,1.05-1.04,1.05c0.1,1.71,0.39,3,0.84,4.6
		c0,0,0.32,1.06,1.44,1.08h4.71c0.94-0.01,0.74-1.19,0.74-1.19c-0.05-0.49-0.14-0.62-0.49-1.15C6.66,26.92,5.6,25.95,5.43,24.5"/>
	<path class="st1" d="M4.89,12.23c0.63-0.96,2.61-0.76,3.23-0.77c0.5-0.01,0.87-0.1,1.18-0.21c0.43-0.87,0.95-1.7,1.67-2.66
		c0,0,0.49-0.82-0.72-0.82H6.4c0,0-0.93,0.02-1.66,0.73c-1.38,1.71-2.25,2.84-3.03,4.8c0,0-0.46,1.1,0.79,1.1h1.78
		C4.17,13.75,4.25,13.21,4.89,12.23"/>
	<path class="st1" d="M19.23,0.06C14.36,0.91,10.06,2.61,6.72,6.1C5.91,7.01,7.49,7,7.49,7h3.48c0,0,0.93,0.21,2.04-0.92
		c2.06-2.37,4.14-3.99,6.92-5.42"/>
	<path class="st1" d="M20.75,1.12c-2.63,1.3-4.59,2.76-6.58,4.93c0,0-1.03,0.95,0.18,0.95h3.52c1.19,0,1.36-0.92,1.36-0.92
		c0.69-1.31,1.38-3.41,2.27-4.71"/>
	<path class="st1" d="M11.71,11.97c1.47-0.69,1.8-1.38,1.97-0.85c0.77,2.34-0.84,2.81-1.25,3.01c-0.18,0.09-0.3,0.14-0.42,0.28h3.27
		c0.91-0.01,1.13-0.91,1.13-0.91c0.42-1.67,0.95-3.3,1.59-4.87c0,0,0.47-0.85-0.47-0.86h-4.07c-1.23,0-1.47,0.86-1.47,0.86
		c-0.53,0.75-1.01,1.53-1.45,2.34c0,0,0,0,0,0C11.68,11.05,11.08,12.26,11.71,11.97"/>
	<path class="st1" d="M13.85,37.2h3.75c1.19,0,0.51-0.87,0.51-0.87c-0.67-1.6-1.23-3.25-1.66-4.96c0,0-0.04-0.85-1.09-0.83h-5.35
		c-0.94-0.01-0.54,0.85-0.54,0.85c0.74,1.77,1.68,3.43,2.8,4.95C12.27,36.35,12.82,37.21,13.85,37.2"/>
	<path class="st1" d="M8.42,27.64c-0.03,0.37,0.02,0.72,0.12,1.08c0,0,0.12,0.89,1.1,0.9h4.9c-0.85-0.24-3.91-1.1-4.95-1.68
		C8.85,27.55,8.45,27.48,8.42,27.64"/>
	<path class="st1" d="M8.38,17.4c-0.1,0.01-0.17,0.01-0.23,0.02c-0.24,1.17-0.4,2.38-0.46,3.61c0.08,0.22,0.18,0.42,0.33,0.59
		c0.13,0.15,1.17,0.92,1.55,0.37c0.16-0.23,0.09-0.17,0.08-0.25c-0.03-0.43-0.53-0.52-0.55-0.8c-0.01-0.19,0.62-1.54,1.27-2.07
		c0.33-0.27,0.59-0.22,0.91,0.08c0.34,0.33,1.24-0.93,2.41-0.81c0.8,0.08,1.39,0.24,1.82,0.45c0.08-0.82,0.19-1.62,0.33-2.42
		c0,0,0.07-0.85-0.71-0.83h-3.66c-0.03,0.06-0.05,0.11-0.08,0.18C10.52,17.37,8.85,17.36,8.38,17.4"/>
	<path class="st1" d="M20.17,44.36c-2.78-1.43-4.86-3.05-6.92-5.42c-1.11-1.13-2.04-0.92-2.04-0.92H7.55c0,0-1.4-0.01-0.59,0.9
		c3.33,3.49,7.64,5.18,12.51,6.04C20.73,45.12,21.08,44.83,20.17,44.36"/>
	<path class="st2" d="M19.47,38.93c0,0-0.17-0.92-1.36-0.92h-3.52c-1.21,0-0.18,0.95-0.18,0.95c1.99,2.17,3.95,3.63,6.58,4.93
		c0.72,0.28,1.05,0.25,0.75-0.25C20.85,42.35,20.16,40.24,19.47,38.93"/>
	<path class="st1" d="M6.83,19.37c0,0,0.91-2.11,0.09-2.41c-0.61-0.22-0.77,0.04-0.6,0.36c0.17,0.32,0.63,0.6,0.3,1.41
		C6.48,19.08,6.83,19.37,6.83,19.37"/>
	<path class="st2" d="M39.58,30.48l4.82,0c1.05,0.03,0.74,1.12,0.74,1.12c-0.74,1.74-1.68,3.01-2.81,4.5c0,0-0.47,1.05-1.78,1.05
		h-4.57c-0.75,0-0.19-0.85-0.19-0.85c0.53-0.76,1.03-1.55,1.47-2.37c0.12,0.02,0.22,0.04,0.3,0.05c2.67,0.31,4.33,0.16,4.54-0.08
		c0.28-0.32,1.54-2.08-2.33-1.97c-0.48,0.01-0.99-0.03-1.49-0.1c0.07-0.17,0.08-0.35,0.15-0.51C38.43,31.31,38.58,30.47,39.58,30.48
		"/>
</g>
<path d="M108.69,0.27l15.33,44.5l-42.8-0.01l8.59-26.69c3.4-0.02,7.46,0.04,11.19-0.01l-5.14,16.62h13.13L97.4,0.3L108.69,0.27"/>
<path d="M146.17,0.3h-19.74l-0.02,10.6h13.81v0c6.55,0,11.78,4.97,11.78,11.54c0,6.57-5.42,11.58-11.97,11.58h-3.07V17.83h-10.53
	v26.75h19.74c10.13-0.92,17.43-11.29,17.43-22.14C163.6,11.59,155.53,1.22,146.17,0.3"/>
<path d="M87.19,14.2c0-7.72-6.41-13.76-14.04-14.02h-0.01c-0.06,0-16.44,0-16.44,0v10.56h15.02c1.9,0.12,3.42,1.52,3.42,3.46
	c0,1.98-1.56,3.59-3.52,3.67H56.72v26.75h10.53v-16.2l5.94-0.02C80.88,28,87.19,21.91,87.19,14.2"/>
<rect x="166.24" y="0.3" width="10.91" height="44.29"/>
</svg>
