<?xml version="1.0" encoding="utf-8"?>
<!-- Generator: Adobe Illustrator 29.8.1, SVG Export Plug-In . SVG Version: 9.03 Build 0)  -->
<svg version="1.0" id="svg2" xmlns:svg="http://www.w3.org/2000/svg"
	 xmlns="http://www.w3.org/2000/svg" xmlns:xlink="http://www.w3.org/1999/xlink" x="0px" y="0px" viewBox="0 0 297.68 105.12"
	 style="enable-background:new 0 0 297.68 105.12;" xml:space="preserve">
<style type="text/css">
	.st0{fill:#4E5A62;}
</style>
<g id="layer1" transform="translate(-243.92718,-24.305148)">
	<g id="g2396" transform="translate(4.0406102,-207.08127)">
		<path id="path2404" class="st0" d="M473.57,335.85c-10.16-2.07-19.43-9.46-23.9-19.06c-1.98-4.25-2.65-7.49-2.93-14.24
			c-0.33-8.02-0.12-9.26,2.64-15.15c3.55-7.59,9.28-13.64,15.9-16.81c4.01-1.92,6.43-3.5,14.8-3.5c8.58,0,10.67,1.55,14.68,3.6
			c6.11,3.12,12,9.25,15.48,16.11c2.47,4.86,2.8,6.6,2.82,15c0.02,8.37-0.31,10.17-2.73,15.1
			C503.26,331.26,488.47,338.89,473.57,335.85z M486.07,321.68c8.85-2.43,15.67-14,14.02-23.77c-1.61-9.54-10.14-17.12-19.26-17.12
			c-15.65,0-25.17,16.39-17.87,30.78c2.91,5.74,5.04,7.75,10.17,9.64C478,322.99,480.92,323.1,486.07,321.68z M522.98,332.87
			c-0.23-0.23-0.41-19.47-0.41-42.75v-28.21v-14.13h-31c-17.05,0-31-0.2-31-0.44c0-0.24,1.85-3.39,4.11-7l4.11-6.56h34.39h34.39
			v49.42v49.42l-7.09,0.33C526.59,333.14,523.21,333.1,522.98,332.87z"/>
		<path id="path2400" class="st0" d="M284.72,335.65c-28.81-4.21-48.67-31.02-44.21-59.66c2.39-15.36,12.19-29.99,25.06-37.44
			c15.46-8.95,37.75-9.58,52.25-1.48l3.75,2.09v9.31v9.31l-4.86-3.49c-8.97-6.44-13.55-7.95-24.14-7.95
			c-10.5,0-15.73,1.69-22.98,7.43c-15.68,12.42-17.56,41.35-3.69,56.7c12.35,13.67,35.95,14.66,51.81,2.18
			c2-1.58,3.92-2.87,4.25-2.87s0.61,4.04,0.61,8.99v8.99l-5.93,3C307.23,335.51,295.76,337.27,284.72,335.65z M388.12,335.68
			c-23.94-3.49-41.23-20.57-44.58-44.05c-2.53-17.76,3.8-35.27,17.05-47.17c9.87-8.87,20.97-12.92,35.46-12.96
			c9.63-0.03,18.19,1.9,24.77,5.57l3.75,2.09v9.31v9.31l-4.86-3.49c-7.3-5.25-13.49-7.61-21.52-8.21
			c-17.52-1.32-31.52,8.23-36.75,25.08c-4.66,15.01-0.55,32.46,9.77,41.55c6.89,6.07,13.98,8.47,24.9,8.44
			c7.63-0.02,9.95-0.43,14.84-2.67c3.19-1.46,7.51-4.01,9.6-5.67c2.09-1.66,3.97-3.02,4.16-3.02c0.2,0,0.21,4.22,0.04,9.38
			l-0.32,9.38l-6.68,3.05C408.11,335.47,398.27,337.14,388.12,335.68z"/>
	</g>
</g>
</svg>
