<?xml version="1.0" encoding="utf-8"?>
<!-- Generator: Adobe Illustrator 28.3.0, SVG Export Plug-In . SVG Version: 6.00 Build 0)  -->
<svg version="1.1" id="Layer_1" xmlns="http://www.w3.org/2000/svg" xmlns:xlink="http://www.w3.org/1999/xlink" x="0px" y="0px"
	 viewBox="0 0 147.06 16" style="enable-background:new 0 0 147.06 16;" xml:space="preserve">
<path d="M10.77,2.27c-0.3-0.49-1.38-1.58-1.88-1.88C8.49,0.1,7.8,0,7.41,0H0v16h7.31c0.59,0,1.19-0.3,1.58-0.49
	c0.49-0.3,1.58-1.38,1.88-1.88c0.3-0.4,0.4-0.89,0.4-1.38V3.65C11.16,3.16,11.06,2.67,10.77,2.27z M8.99,3.75v8.49
	c0,0.49-1.19,1.48-1.58,1.68c0,0-0.1,0-0.2,0H2.17V2.07h5.04c0.1,0,0.2,0,0.2,0c0.4,0.2,1.28,0.99,1.58,1.48
	C8.99,3.56,8.99,3.65,8.99,3.75z"/>
<path d="M36.62,9.19c0.4,0,0.89-0.2,1.28-0.49c0.4-0.3,1.19-1.09,1.38-1.38c0.3-0.49,0.49-0.99,0.49-1.48V3.46
	c0-0.49-0.2-1.09-0.49-1.48c-0.2-0.3-1.09-1.19-1.38-1.38C37.41,0.3,36.72,0,36.12,0h-7.51v16h2.17V9.28h3.56l3.85,6.62h2.37
	L36.62,9.19z M30.79,7.21V2.07h5.23c0.1,0,0.1,0,0.2,0c0.4,0,1.09,0.89,1.28,1.19c0,0,0,0.2,0,0.3v2.27c0,0.1,0,0.3,0,0.3
	c-0.2,0.4-0.99,1.09-1.48,1.09H30.79z"/>
<polygon points="47.07,15.95 49.25,15.95 49.25,2.02 53.79,2.02 53.79,0.05 42.53,0.05 42.53,2.02 47.07,2.02 "/>
<path d="M60.49,16h2.17V8.79L67.7,0h-2.37c0,0-3.75,6.62-3.75,6.52L57.83,0h-2.37l5.04,8.79L60.49,16L60.49,16z"/>
<path d="M85,9.16c0.39,0,0.87-0.19,1.26-0.48c0.39-0.29,1.16-1.07,1.36-1.36c0.29-0.48,0.48-0.97,0.48-1.45V3.54
	c0-0.48-0.19-1.07-0.48-1.45c-0.19-0.29-1.07-1.16-1.36-1.36c-0.48-0.29-1.16-0.58-1.75-0.58h-7.37v15.71h2.23v-6.5h3.49l3.78,6.5
	h2.23v-0.1L85,9.16z M79.37,7.22V2.18h5.14c0.1,0,0.1,0,0.19,0c0.39,0,1.07,0.87,1.26,1.16c0,0,0,0.19,0,0.29v2.23
	c0,0.1,0,0.29,0,0.29C85.77,6.55,85,7.22,84.51,7.22L79.37,7.22z"/>
<path d="M103.42,2.38c-0.39-0.39-1.36-1.45-1.94-1.84c-0.39-0.19-1.07-0.48-1.55-0.48h-4.07c-0.48,0-1.07,0.19-1.45,0.48
	c-0.48,0.29-1.55,1.36-1.94,1.84c-0.29,0.39-0.39,0.97-0.39,1.36v8.53c0,0.48,0.1,0.97,0.39,1.36c0.29,0.48,1.36,1.55,1.94,1.84
	c0.39,0.19,0.97,0.48,1.45,0.48h4.17c0.48,0,1.07-0.19,1.55-0.48c0.48-0.29,1.55-1.36,1.84-1.84c0.29-0.39,0.39-0.87,0.39-1.36V3.73
	C103.81,3.25,103.71,2.76,103.42,2.38z M100.03,13.92c0,0-0.1,0-0.19,0h-3.88c-0.1,0-0.19,0-0.19,0c-0.39-0.19-1.55-1.26-1.55-1.65
	v-6.4l6.98,6.98C100.9,13.33,100.32,13.82,100.03,13.92z M101.58,3.83v6.59L94.5,3.35c0.39-0.48,0.97-0.97,1.26-1.16
	c0,0,0.1,0,0.19,0h3.88c0.1,0,0.19,0,0.19,0c0.39,0.19,1.16,0.97,1.55,1.45C101.58,3.64,101.58,3.73,101.58,3.83z"/>
<path d="M118.06,3.64c0-0.48-0.1-1.07-0.39-1.55c-0.19-0.29-1.07-1.07-1.36-1.36c-0.48-0.29-1.16-0.58-1.75-0.58h-7.37v15.71h7.37
	c0.58-0.1,1.26-0.29,1.75-0.68c0.39-0.29,1.16-1.07,1.36-1.36c0.29-0.48,0.39-0.97,0.39-1.45v-2.04c0-1.16-0.48-1.65-1.26-2.33
	c0.78-0.78,1.26-1.26,1.26-2.33V3.64z M109.34,2.08h5.14c0.48,0,1.16,0.78,1.45,1.16c0,0,0.1,0.1,0.1,0.29v1.94
	c0,0.1,0,0.29-0.1,0.29c-0.19,0.39-0.87,1.16-1.36,1.16h-5.24V2.08z M116.13,12.27c0,0.1,0,0.19-0.1,0.29
	c-0.19,0.39-0.87,1.16-1.45,1.16h-5.24V8.97h5.24c0.1,0,0.19,0,0.29,0c0.39,0.19,0.87,0.78,1.16,1.07c0,0,0.1,0.1,0.1,0.29V12.27z"
	/>
<path d="M132.9,2.38c-0.29-0.48-1.36-1.55-1.84-1.84c-0.39-0.19-1.07-0.48-1.55-0.48h-4.17c-0.48,0-1.07,0.19-1.45,0.48
	c-0.48,0.29-1.55,1.36-1.94,1.84c-0.29,0.39-0.39,0.97-0.39,1.36v8.53c0,0.48,0.1,0.97,0.39,1.36c0.29,0.48,1.36,1.45,1.94,1.84
	c0.39,0.19,0.97,0.48,1.45,0.48h4.17c0.48,0,1.07-0.19,1.55-0.48c0.48-0.29,1.55-1.36,1.84-1.84c0.29-0.39,0.39-0.87,0.39-1.36V3.73
	C133.29,3.25,133.19,2.76,132.9,2.38z M129.51,13.82c0,0-0.1,0-0.19,0h-3.88c-0.1,0-0.19,0-0.19,0c-0.39-0.19-1.55-1.26-1.55-1.65
	v-6.5l7.08,7.08C130.38,13.14,129.8,13.62,129.51,13.82z M131.16,3.73v6.4l-7.08-6.98c0.39-0.39,0.97-0.87,1.26-1.07
	c0,0,0.1,0,0.19,0h3.88c0.1,0,0.19,0,0.19,0c0.39,0.19,1.16,0.97,1.55,1.45C131.16,3.54,131.16,3.64,131.16,3.73z"/>
<polygon points="136,2.13 140.46,2.13 140.46,15.81 142.6,15.81 142.6,2.13 147.06,2.13 147.06,0.19 136,0.19 "/>
<polygon points="20.53,15.95 25.07,15.95 25.07,13.88 20.53,13.88 20.53,2.02 25.07,2.02 25.07,0.05 13.81,0.05 13.81,2.02 
	18.36,2.02 18.36,13.88 13.81,13.88 13.81,15.95 18.36,15.95 "/>
</svg>
