<?xml version="1.0" encoding="utf-8"?>
<!-- Generator: Adobe Illustrator 28.3.0, SVG Export Plug-In . SVG Version: 6.00 Build 0)  -->
<svg version="1.1" id="Layer_1" xmlns="http://www.w3.org/2000/svg" xmlns:xlink="http://www.w3.org/1999/xlink" x="0px" y="0px"
	 viewBox="0 0 641.01 85" style="enable-background:new 0 0 641.01 85;" xml:space="preserve">
<style type="text/css">
	.st0{fill:#00AEEF;}
</style>
<rect x="350.75" y="61.19" class="st0" width="6.63" height="23.71"/>
<rect x="328.75" y="61.19" class="st0" width="6.63" height="23.71"/>
<polygon class="st0" points="350.55,54.56 357.38,54.56 357.38,0 351.76,0 343.62,51.24 342.31,51.24 334.27,0 328.75,0 
	328.75,54.56 335.38,54.56 335.38,54.56 336.58,54.56 342.31,70.93 343.52,70.93 349.34,54.56 "/>
<polygon class="st0" points="0,0.1 0,7.23 8.54,7.23 8.54,7.23 14.27,7.23 14.27,35.47 6.63,35.47 6.63,35.47 6.63,35.47 
	6.63,13.66 0,13.66 0,40.59 0,40.59 0,85 6.63,85 6.63,42.1 14.27,42.1 14.27,85 20.9,85 20.9,43.2 16.38,38.78 20.9,34.36 
	20.9,7.84 14.77,0.1 "/>
<polygon class="st0" points="91.13,0.1 91.13,7.23 106.1,7.23 106.1,35.47 97.76,35.57 97.76,13.66 91.13,13.66 91.13,33.96 
	91.13,41.39 91.13,61.69 91.13,71.24 97.76,71.24 97.76,42.1 106.1,42.1 106.1,77.67 91.13,77.67 91.13,79.37 91.13,84.8 106,84.8 
	112.73,76.96 112.73,43.3 108.11,38.88 112.73,34.26 112.73,7.84 106.1,0.1 "/>
<polygon class="st0" points="51.74,0.1 46.92,6.73 61.79,6.73 61.79,71.24 68.42,71.24 68.42,7.84 63.2,0.1 "/>
<polygon class="st0" points="53.15,13.66 46.52,13.66 46.52,77.87 51.74,85 63.2,85 68.42,77.67 53.15,77.67 "/>
<polygon class="st0" points="157.74,77.67 142.47,77.67 142.47,13.66 135.84,13.66 135.84,77.87 141.06,85 152.52,85 "/>
<polygon class="st0" points="151.11,71.24 157.74,71.24 157.74,7.84 152.52,0.1 141.06,0.1 136.24,7.23 151.11,7.23 "/>
<g>
	<rect x="183.66" y="13.66" class="st0" width="6.83" height="71.24"/>
	<polygon class="st0" points="183.66,0.1 176.43,0.1 176.43,7.23 182.76,7.23 182.76,7.23 191.5,7.23 191.5,7.23 197.83,7.23 
		197.83,0.1 190.5,0.1 	"/>
</g>
<polygon class="st0" points="239.33,28.23 245.96,28.23 245.96,7.23 256.51,7.23 256.51,0.1 239.33,0.1 239.33,7.23 239.33,7.23 "/>
<polygon class="st0" points="256.51,35.47 245.96,35.47 239.33,35.47 239.33,42.2 239.33,76.16 239.33,84.9 245.96,84.9 
	245.96,76.16 245.96,42.1 256.51,42.1 "/>
<g>
	<rect x="274.49" class="st0" width="6.63" height="7.23"/>
	<rect x="274.49" y="13.76" class="st0" width="6.63" height="71.13"/>
</g>
<g>
	<rect x="298.1" class="st0" width="6.63" height="71.24"/>
	<rect x="298.1" y="77.67" class="st0" width="17.58" height="7.23"/>
</g>
<g>
	<polygon class="st0" points="401.4,28.23 408.03,28.23 408.03,7.23 418.58,7.23 418.58,0.1 401.4,0.1 401.4,7.23 401.4,7.23 	"/>
	<polygon class="st0" points="418.58,35.47 408.03,35.47 401.4,35.47 401.4,42.2 401.4,76.16 401.4,84.9 408.03,84.9 408.03,76.16 
		408.03,42.1 418.58,42.1 	"/>
</g>
<g>
	<rect x="503.91" y="13.66" class="st0" width="6.83" height="71.24"/>
	<polygon class="st0" points="503.91,0.1 496.67,0.1 496.67,7.23 503,7.23 503,7.23 511.75,7.23 511.75,7.23 518.08,7.23 
		518.08,0.1 510.74,0.1 	"/>
</g>
<g>
	<rect x="533.52" y="0.05" class="st0" width="6.63" height="7.23"/>
	<rect x="533.52" y="13.82" class="st0" width="6.63" height="71.13"/>
</g>
<g>
	<rect x="623.43" y="0.05" class="st0" width="6.63" height="71.24"/>
	<rect x="623.43" y="77.72" class="st0" width="17.58" height="7.23"/>
</g>
<g>
	<polygon class="st0" points="433.59,0.11 433.59,28.33 440.32,28.33 440.32,7.29 451.31,7.29 451.31,0.11 	"/>
	<g>
		<polygon class="st0" points="440.32,77.71 433.59,77.71 433.59,84.89 451.31,84.89 451.31,77.71 442.28,77.71 		"/>
		<polygon class="st0" points="444.01,35.55 444.01,35.57 433.59,35.57 433.59,35.77 433.59,42.72 433.59,70.51 440.32,70.51 
			440.32,42.28 451.31,42.28 451.31,35.55 		"/>
	</g>
</g>
<g>
	<polygon class="st0" points="566.69,48.63 562.25,0.22 555.52,0.22 560.4,48.63 	"/>
	<polygon class="st0" points="574.32,48.63 579.07,0.22 572.57,0.22 568.13,48.63 	"/>
	<polygon class="st0" points="561.06,55.16 564.05,84.78 570.78,84.78 573.68,55.16 	"/>
</g>
<polygon class="st0" points="602.9,0.11 596.62,0.11 591.75,48.53 598.28,48.53 599.31,36 600.66,36 602.23,55.06 600.43,55.06 
	599.99,55.06 599.54,55.06 597.74,55.06 591.1,55.06 588.1,84.89 594.6,84.89 596.85,61.79 602.68,61.79 604.92,84.89 611.42,84.89 
	"/>
<g>
	<polygon class="st0" points="473.17,35.44 473.17,35.49 464.32,35.49 470.99,42.16 477.72,42.16 477.72,77.6 470.76,77.6 
		470.76,61.45 464.26,61.45 464.26,77.6 470.99,84.78 477.72,84.78 484.44,77.6 484.44,41.94 477.72,35.44 	"/>
	<polygon class="st0" points="478.84,0.22 470.99,0.22 464.26,7.18 464.26,28.96 470.99,28.96 470.99,7.18 478.84,7.18 
		478.84,18.39 485.57,18.39 485.57,7.4 	"/>
</g>
</svg>
