<?xml version="1.0" encoding="utf-8"?>
<!-- Generator: Adobe Illustrator 28.3.0, SVG Export Plug-In . SVG Version: 6.00 Build 0)  -->
<svg version="1.1" id="Layer_1" xmlns="http://www.w3.org/2000/svg" xmlns:xlink="http://www.w3.org/1999/xlink" x="0px" y="0px"
	 viewBox="0 0 1532.54 478.68" style="enable-background:new 0 0 1532.54 478.68;" xml:space="preserve">
<style type="text/css">
	.st0{fill:#212F18;}
	.st1{fill:#223019;}
	.st2{fill:#D2F2BE;}
	.st3{fill:#141413;}
	.st4{fill:#BDDAB5;}
	.st5{fill:#FEFEFE;}
</style>
<path class="st0" d="M233.28,192.71c-0.68-3.06-1.65-6.09-1.12-9.3c0.9-0.67,0.75-1.28-0.1-1.85c-0.54-2.15-1.08-4.3-1.62-6.46
	c0.13-0.99,0.42-2.02-0.6-2.76c-0.4-8.69-0.63-18.07,3.49-25.3c4.45-7.81,6.83-16.24,10.69-24.01
	c15.3-30.78,38.18-54.36,69.46-69.71c13.26-6.5,26.42-12.6,41.25-13.95c4.77-0.44,9.63,0.21,14.45,0.38
	c1.36,0.05,2.89,0.2,3.46,1.56c1.84,4.4,4.56,2.75,7.13,1.07c2.75-1.8,5.47-1.89,8.54-0.93c7.34,2.31,14.36,5.31,20.96,9.25
	c2.79,1.66,4.76,1.54,5.16-2.11c0.77-7.12,5.39-10.76,11.26-13.98c10.04-5.51,19.64-11.82,30.22-16.35
	c3.18-1.36,4.81-0.86,4.29,2.95c-3.45,7.18-6.32,14.6-8.91,22.13c-1.44,4.18-3.43,7.93-7.03,10.66c-1.36,1.03-2.74,2.28-2.02,4.16
	c2.14,5.58-0.33,10.51-2.25,15.38c-3.73,9.47-6.89,19.07-8.07,29.21c-0.45,3.82-1.88,6.88-5.06,9.29
	c-8.05,6.13-15.95,12.46-23.91,18.7c-5.25,0.62-4.91-3-4.19-6.12c1.27-5.43,1.39-10.87,1.28-16.37c-0.04-2.01-0.19-3.99-1.04-5.85
	c0.09-4.14-1.09-7.9-3.64-11.13c-10.12-12.81-23.94-19.49-39.68-20.17c-28.65-1.24-51.05,11.86-68.24,34.04
	c-6.89,8.88-11.73,19-11.39,30.79c0.26,9.01,5.22,14.32,12.98,13.91c5.66,1.33,11.33,2.62,16.98,4.03c1.6,0.4,3.9,0.69,4.52,1.8
	c3.16,5.57,6.81,3.55,10.63,1.16c2.77-0.17,5.59,1.62,8.31-0.22c1.37-0.81,2.81-0.62,4.25-0.27c2.17,1.08,4.39,1.37,6.71,0.49
	c2.46-0.11,4.87,0.09,7.08,1.31c0.41,0.95,0.99,1.18,1.81,0.44c7.17,2.21,14.74,2.81,21.77,5.57c0.7,1.4,1.66,1.37,2.79,0.54
	c2.4,0.19,4.8,0.39,7.21,0.58c0.69,0.91,1.3,0.72,1.86-0.13c2.57-1.48,4.69,0.47,7.01,0.92c1.08,3.57,5.18,2.13,7.11,4.29
	c-0.4,1.96,0.72,3.04,2.22,3.98c2.75,1.71,4.58,4.28,6.04,7.06c3.35,6.4,7.34,12.5,9.42,19.52c0.52,3.11,1.3,6.2,1.53,9.33
	c1.67,22.86-1.37,45.15-8.21,66.98c-5.32,16.96-15.74,31.13-25.47,45.6c-7.47,11.11-16.98,20.63-25.93,30.59
	c-8.28,9.21-17.16,17.57-27.15,24.78c-9.6,6.93-19.64,13.52-30.55,17.88c-10.94,4.37-21.59,9.14-31.94,14.67
	c-0.58,0.31-1.27,0.4-1.9,0.6c-21.89,6.84-44.42,8.26-67.16,7.8c-9.54-0.19-9.54-0.2-11.23-9c-0.03-0.13-0.23-0.23-0.36-0.34
	c-5.78,3.89-5.84,3.99-12.22,0.23c-7.58-4.46-14.9-9.34-21.82-14.78c-1.89-1.41-4.14-1.06-6.27-1.3c-0.4-8.1-3.7-15.41-5.86-23.07
	c-2.14-7.58-2.32-15.74-2.31-23.74c0.03-13.05,2.41-26.09,9.16-36.83c15.03-23.91,36.31-40.59,63.73-49.09
	c16.75-5.19,42.53,4.12,42.87,25.47c-0.12,1.97-0.56,3.99-0.32,5.92c1.07,8.56,0.99,17.03,0.48,25.68
	c-0.46,7.74,3.16,14.76,9.92,19.52c2.69,2.83,5.83,5,9.73,5.58c9.49,1.4,18.95,1.18,28.13-1.83c19.62-6.44,34-19.58,47.55-34.81
	c12.04-13.54,12.88-28.8,12.53-45.06c-1.02-9.11-3.07-17.32-13.65-20.23c-4.67-1.28-7.63-4.55-5.54-10.69
	c-7.05,6.69-14.82,3.97-22.41,2.95c-0.82-0.11-1.61-0.4-2.42-0.6c-12.74-3.22-25.52-6.26-38.56-7.97
	c-11.34-1.48-22.01-4.76-31.52-11.31c-5.54-3.68-8.79-9.72-14.06-13.69C233.43,197.67,234.7,195.15,233.28,192.71z"/>
<path class="st1" d="M577.78,458.8c-4.4-1.29-6.14-5.95-3.07-9.46c21.36-24.43,28.82-54.77,36.45-85.06
	c0.57-2.25,1.1-4.51,1.65-6.77c1.15-1.44,1.01-3.13,0.92-4.8c4.51-11.16,4.07-23.6,9.04-34.65c0.37-0.82,0.25-2,0.01-2.92
	c-0.74-2.83,0.15-5.31,1.61-7.58c3.01-4.66,4.88-9.82,6.65-15c6.84-19.98,11.11-40.68,17.13-60.9c4.58-15.4,7.15-31.34,11.69-46.81
	c2.17-7.39,4.38-15.02,4.37-22.94c-0.53-3.04,1.82-5.72,1.09-8.78c0.64-4.16,2.89-7.92,2.96-12.24c0.04-2.76,0.49-5.54-1.26-8
	c-0.81-13.47-9.02-21.3-22.66-21.6c-3.08-0.71-4.39-2-2.12-5.09c5.09-6.96,10.57-13.7,13.04-22.25c0.7-2.42,3.22-3.52,5.47-3.93
	c14.39-2.61,28.63-6.07,43.23-7.47c2.19-0.21,3.88,0.19,5,2.31c1.46,2.75,3.58,2.77,4.71,0.06c2.35-5.61,7.15-6.76,12.2-7
	c12.05-0.58,23.49-4.32,35.16-6.7c16.76-3.42,33.25-8.14,49.85-12.33c2.47-0.62,4.91-1.13,7.22,0.37c1.09,0.71,2.07,0.89,3.21,0.16
	c9.31-5.89,20.2-6.31,30.51-8.66c6.47-1.47,13.17-1.87,19.69-3.17c3.56-0.71,4.65,0.32,4.14,3.68c-3.81,7.18-7.71,14.31-12.99,20.56
	c-0.52,0.62-1.06,1.38-1.22,2.14c-1.76,8.62-6.64,15.89-10.46,23.56c-7.08,14.22-11.82,29.66-23.49,41.49
	c-8.22,8.33-15.62,17.5-24.24,25.49c-4.04,1.71-5.3,0.33-4.93-3.9c0.59-6.88,5.19-11.62,8.45-17.1c1.78-1.44,2.16-3.57,2.75-5.61
	c0.75-3.97-0.13-7.9-0.23-11.85c0.25-1.63,0.65-3.25,0.72-4.89c0.47-11.84-4.53-16.45-16.36-15.31
	c-13.65,1.32-26.76,4.99-39.86,8.78c-13.97,4.04-22.8,13.27-28.3,26.62c-4.06,9.85-6.63,20.21-11.64,29.77
	c-4.81,9.18-4.54,20-7.16,29.95c-0.69,2.64,0.61,4.32,3.36,4.23c4.79-0.15,9.64-0.28,13.86-3.08c9.12-2.74,14.65-9.36,18.56-17.53
	c3.17-6.62,4.98-13.72,6.43-20.9c0.33-1.64,0.44-3.31,2.23-4.16c4.15-1.98,14.83,4.35,15.18,9.02c-1.17,4.32-2.4,8.62-3.51,12.95
	c-2.31,8.95-3.67,18.29-10.48,25.39c-0.98,1.02-1.43,2.42-0.43,3.63c2.19,2.63,1.04,5.28,0.42,8.03c-1.09,4.85-2.34,9.7-2.94,14.61
	c-0.73,5.97-3.43,10.66-7.77,14.57c-5.3,4.78-10.64,9.5-15.96,14.25c-2.26,0.51-3.52,0.02-2.95-2.68c0.5-2.38,1.97-4.54,1.63-7.1
	c0.5-3.28,1.18-6.55,1.45-9.85c0.63-7.81-3.14-11.33-11.1-10.62c-5.04,0.45-9.65,2.38-14.37,4.01c-3.56,1.23-5.89,3.3-7.27,6.88
	c-4.14,10.75-7,21.85-9.54,33.04c-1.58,6.94-2.1,14.26-7.79,19.56c-0.9,0.84-1.3,2.14-0.97,3.23c1.35,4.52-0.59,8.54-1.81,12.63
	c-2.8,9.4-6.21,18.64-8.65,28.13c-6.92,26.87-15.27,53.4-19.82,80.84c-1.07,6.46-3.32,13.08-0.88,19.7c2.6,7.07,1.9,9.29-3.79,14.16
	c-8.31,7.11-18.64,7.36-28.6,8.98c-3.92,0.64-7.58,0.06-10.84-2.5c-3.24-2.55-6.46-2.35-9.38,0.62
	C587.25,454.8,582.78,457.23,577.78,458.8z"/>
<path class="st0" d="M1340.71,290.4c-5.33-9.35-7.63-19.34-6.46-30.08c0.09-0.83,0.02-1.62-0.64-2.29
	c-5.27-5.43-4.36-12.07-3.58-18.67c1.36-1.21,1.48-2.51,0.3-3.92c-0.56-5.39,1.28-11.03-1.7-16.16c0.24-1.75,0.34-3.49-0.55-5.12
	c4.57-3.17,3.57-8.27,4.12-12.69c0.7-5.68,0.19-11.42,3.98-16.51c1.85-2.49,2.32-6.63-0.27-8.78c-3.61-3-2.92-6.21-2.36-9.82
	c0.41-2.61,0.61-5.25,0.91-7.87c0.64-1.35,1.32-2.68,1.92-4.05c1.43-3.31-1.06-7.73-5.67-9.93c-4.23-2.01-4.25,1.98-5.16,4.01
	c-5.74,12.79-7.44,26.85-12.34,39.93c-0.33,0.88-0.18,1.99-0.08,2.97c0.85,8.13,0.86,8.09-7.41,9.26c-2.34,0.33-4.62,0.45-6.93-0.15
	c-1.51-0.39-3-0.44-4.12,0.91c-3.15,3.8-7.53,4.59-12.09,4.94c-4.76-4.02-4.81-4.3-0.32-8.64c2.7-2.62,4.49-5.76,5.72-9.24
	c2.54-7.21,4.74-14.52,6.77-21.9c2.19-7.92,2.97-16.48,8.93-23c0.89-0.97,1.03-2.49,0.54-3.82c-1.11-3.02-0.34-5.87,0.51-8.78
	c6.02-20.74,12.01-41.49,18-62.23c0.64-2.22,1.74-4.56,0.07-6.69c-3.26-4.15-0.3-5.45,2.92-5.82c8.26-0.95,16.33-3.22,24.68-3.46
	c7.97-0.22,15.73-2.88,23.8-2.02c4.37,0.47,7.6,1.81,6.41,7.13c-0.31,1.4,0.04,2.22,1.41,2.65c4.51,1.42,5.59,5.3,6.57,9.24
	c-0.36,2.29-0.88,4.58-1.05,6.89c-0.86,11.35-3.87,21.54-11.85,30.42c-5.82,6.48-11.37,12.96-18.95,17.41
	c-1.44,0.84-3.47,1.9-0.91,3.49c3.58,2.23,4.93,6.18,7.67,9.02c0.39,0.67,0.77,1.33,1.16,2c-1.35,4.18-0.1,8.51-0.73,12.73
	c-3.3,22.06-7.36,44.07-3.85,66.53c0.17,1.11,0.09,2.35-0.22,3.43c-1.14,3.91-2.43,7.64,2.27,10.42c1.34,0.79,1.63,2.92,1.54,4.58
	c-0.4,7.41,3.38,13.27,6.91,19.24c2.51,7.11,8.24,10.77,14.88,12.83c11.57,3.59,23.07,3.91,34.53-1.33
	c7.7-3.53,15.6-6.6,23.09-10.64c12.2-6.57,25.36-6.43,38.43-4.07c9.28,1.67,12.39,9.12,13.42,17.63c-0.71,2.8-0.03,5.64-0.19,8.44
	c-0.2,3.58,0.5,7.23-1.55,10.67c-11.58,19.41-27.24,34.08-48.05,43.39c-13.56,6.06-27.29,9.21-42.18,7.27
	c-7.78-1.01-14.44-4.78-21.66-7.16c-12.12-4-21.1-11.48-28.5-21.59C1347.96,304.8,1344.2,297.7,1340.71,290.4z M1356.97,88.17
	c0.81-2.15,0.51-4.28-0.33-6.3c-1.22-2.95-1.56-6.9-5.98-6.9c-4.52,0-6.07,3.28-7.11,7.04c-2.14,7.81-4.37,15.6-6.56,23.4
	c-0.84,2.98-1.7,5.96-2.83,9.95c6.71-2.12,10.87-5.84,14.37-10.47C1353.34,100.31,1356.57,94.95,1356.97,88.17z"/>
<path class="st2" d="M152.32,395.26c6.93,5.44,14.24,10.32,21.82,14.78c6.38,3.76,6.44,3.66,12.22-0.23
	c0.12,0.11,0.33,0.21,0.36,0.34c1.7,8.79,1.7,8.8,11.23,9c22.74,0.46,45.27-0.96,67.16-7.8c0.64-0.2,1.33-0.29,1.9-0.6
	c10.36-5.53,21-10.31,31.94-14.67c10.92-4.36,20.95-10.95,30.55-17.88c9.99-7.21,18.87-15.57,27.15-24.78
	c8.95-9.96,18.46-19.48,25.93-30.59c9.73-14.47,20.15-28.64,25.47-45.6c6.85-21.82,9.89-44.12,8.21-66.98
	c-0.23-3.13-1.01-6.22-1.53-9.33c2.25,0.01,3.37,1.25,4.56,3.15c8.38,13.27,11.01,27.76,9.94,43.18
	c-0.48,6.96-1.88,13.87-1.19,20.89c-2.39,2.43-1.51,5.87-2.68,8.69c-5.23,12.64-5.5,27.01-13.49,38.7
	c-0.33,0.48-0.18,1.29-0.26,1.94c-3.48,5.43-7.46,10.61-10.3,16.36c-2.39,4.84-7.45,8.26-7.57,14.26c-3.39,1.54-6.61,3.23-6.85,7.61
	c-4.01,1.9-7.39,4.4-8.98,8.81c-0.38,1.06-1.09,2.09-1.87,2.92c-19.76,21.16-41.97,39.08-68.43,51.32
	c-0.15,0.07-0.29,0.25-0.43,0.24c-9.57-0.69-15.63,6.79-23.49,10.08c-14.24,5.97-29.23,8.67-44.51,9.73
	c-11.24,0.78-22.5,1.48-33.79,0.37c-3.79-0.37-6.53-0.95-5.77-5.81c0.5-3.21-1.3-3.57-3.48-1.76c-2.76,2.28-5.25,1.42-7.75-0.25
	c-7.17-4.78-15.3-8.15-21.26-14.73c-1.32-1.46-3.42-2.25-5.42-2.24c-4,0.02-5.6-3.25-4.64-5.53c2.54-6.02-1.98-8.32-4.82-11.65
	C152.28,396.55,152.3,395.9,152.32,395.26z"/>
<path class="st3" d="M859.59,118.13c18.72-2.94,37.2-7.14,55.78-10.83c25.61-5.08,51.12-10.61,76.46-16.89
	c4.36-1.08,7.11-0.92,7.07,4.56c-0.01,1.64,1.13,4,2.93,1.39c7.48-10.86,19.74-10.59,30.43-12.08c23.27-3.23,46.15-8.36,69.27-12.18
	c44.3-7.32,88.06-17.51,132.42-24.55c34.32-5.45,68.47-12.02,102.55-18.79c22.34-4.43,44.98-7.89,66.92-13.65
	c19.14-5.03,38.56-7.44,57.84-11.03c21.31-3.96,42.92-5.27,64.61-2.9c0.66,0.07,1.32,0.18,1.98,0.26c1.89,0.24,3.94,0.77,4.55,2.59
	c0.75,2.25-1.58,3.05-3.04,3.92c-33.31,19.67-60.74,46.98-91.31,70.21c-7.45,5.66-7.68,6.48-0.97,13.14
	c11.69,11.61,16.58,27.45,26.2,40.29c4.38,5.84,9.08,11.36,13.91,16.84c4.51,5.12,8.64,10.27,14.57,13.93
	c3.86,2.38,7.85,4.32,12.02,5.96c2.41,0.95,2.5,1.91,0.85,3.87c-2.33,2.77-5.21,4.62-8.4,6.1c-17.2,7.98-35.68,11.6-53.98,15.77
	c-10.37,2.36-20.98,3.91-31.11,7.02c-7.5,2.3-15.05,4.46-22.53,6.83c-6.86,2.17-13.93,3.06-21.09,3.48c0.24-1.73,0.48-3.47,0.71-5.2
	c5.85-0.06,11.48-1.42,17.21-2.44c10.75-1.91,20.78-6.2,31.45-8.31c17.47-3.44,34.88-7.23,52.24-11.23
	c6.47-1.49,12.45-4.62,18.48-7.42c1.49-0.69,3.58-1.49,3.28-3.28c-0.38-2.22-2.73-1.17-4.22-1.29c-3.8-0.31-7.13,1.46-10.54,2.72
	c-7.84,2.9-16.1,3.9-24.22,5.51c-0.95,0.19-2.18,0.47-2.39-0.91c-0.25-1.67,1.17-0.97,2-1.21c4.06-1.17,8.03-2.78,12.16-3.61
	c6.05-1.21,11.22-4.03,16.09-7.59c1.06-0.77,2.58-1.62,2.1-3.07c-0.63-1.91-2.49-1.1-3.85-0.91c-5.59,0.8-10.94,2.92-16.66,3.02
	c-0.26-0.06-0.52-0.05-0.78,0.03c-0.65,0.09-1.3,0.18-1.94,0.27c0.01-0.5,0.01-1,0.02-1.51c4.51-1.57,9.02-3.18,13.55-4.71
	c1.97-0.67,4.15-1.43,3.46-3.93c-0.65-2.34-3.07-2.43-5.03-1.99c-3.92,0.87-7.78,2.04-11.66,3.09c-0.51-0.53-1.03-1.05-1.54-1.58
	c1.52-0.66,3.03-1.31,4.55-1.98c2.54-1.12,7.26-1.16,6.51-4.49c-0.98-4.35-5.12-1.32-8-1.33c-2.11-0.01-5.02,2.46-6.11-0.3
	c-0.59-1.51,2.97-1.68,4.49-2.72c0.27-0.19,0.59-0.32,0.86-0.5c1.48-0.99,3.45-1.69,2.58-4.13c-0.99-2.78-3.09-1.87-4.99-1.43
	c-5.96,1.41-11.92,2.87-17.88,4.31c0.07-0.59,0.14-1.18,0.21-1.78c4.9-1.99,10.23-3,14.65-6.13c1.18-0.84,2.81-1.56,1.72-3.5
	c-0.87-1.54-2.11-1.17-3.46-0.65c-4.53,1.77-9.34,2.11-14.1,2.76c-0.08-0.77-0.16-1.55-0.25-2.32c3.26-1.48,6.54-2.92,9.77-4.46
	c1.48-0.71,3.1-1.63,2.38-3.66c-0.72-2.04-2.64-1.6-4.22-1.44c-1.05,0.11-2.08,1.19-3.04-0.15c-0.22-0.36-0.44-0.71-0.66-1.07
	c1.13-1.02,3.65-1.1,2.95-3.37c-0.7-2.26-2.72-1.91-4.62-1.58c-4.42,0.78-8.85,1.46-13.27,2.19c0.07-0.6,0.13-1.2,0.2-1.8
	c3.42-1.28,6.85-2.54,10.26-3.85c1.25-0.48,2.92-1.2,2.64-2.6c-0.35-1.72-2.19-1.63-3.71-1.49c-3.5,0.33-7.03,1.39-10.51-0.53
	c2.21-0.85,4.42-1.55,6.49-2.55c1.51-0.73,4.18-1.07,3.32-3.5c-0.83-2.37-3.06-1.27-4.74-0.69c-5.14,1.79-10.37,2-15.73,1.18
	c4.25-1.99,8.6-3.51,12.94-5.03c1.18-0.41,2.09-1.1,2.06-2.48c-0.03-1.17-1.01-1.57-1.84-2.14c-1.74-1.2-3.61,1.14-5.19-0.2
	c-2.12-1.81,2.87-2.04,0.97-4.08c-2.73-2.92-0.92-4.89,1.47-6.95c2.55-2.21-0.49-2.34-1.78-3.24c3.8-1.01,7.39-1.73,10.79-2.96
	c2.2-0.8,4.42-2.62,4.34-5.04c-0.11-3.11-3.58-0.51-5.13-2.11c3.27-1.91,6.79-2.01,10.2-2.39c3.35-0.38,5.95-1.82,8.01-4.5
	c1.63-2.12,0.93-2.75-1.4-3.07c-2.44-0.34-5.16,0.92-7.79-1.32c6.61-1.64,12.81-3.16,19.01-4.72c1.67-0.42,3.51-1.12,3.22-3.12
	c-0.29-1.98-2.39-1.43-3.74-1.45c-3.38-0.05-6.76,0.13-11.4,0.26c9.18-4.68,18.86-3.3,28.11-8c-8.8-2.72-16.71,0.88-24.07-1.98
	c9.33-2.17,18.64-3.89,27.99-5.37c2.78-0.44,6.74,0,6.56-3.53c-0.17-3.26-4.26-2.16-6.69-2.43c-7.2-0.82-14.02,2.21-21.14,2.4
	c-0.27-0.13-0.53-0.12-0.79,0.01c-1.11,0.12-2.22,0.25-3.33,0.37c-0.27-0.59-0.55-1.18-0.82-1.76c2.23-1.43,4.81-0.58,7.22-1.1
	c11.33-2.45,22.55-5.82,34.39-4.46c0.79,0.09,1.67-0.12,2.43-0.41c1.54-0.59,3.69-1.18,3.58-3c-0.14-2.2-2.49-1.72-4.01-1.78
	c-8.95-0.32-17.91-0.52-26.87-0.81c-1.67-0.05-3.51,1.07-5.45-0.76c2.87-1.39,5.65-1.53,8.35-1.8c13.08-1.31,26.16-2.55,39.24-3.8
	c2.06-0.2,4.15-0.31,5.36-2.45c-2.22-2-4.65-1.67-6.93-1.78c-16.69-0.76-33.24,0.74-49.71,3.25c-14.15,2.16-28.25,4.56-42.48,6.14
	c-4.28,0.47-9.89,0.21-12.39,2.74c-3.21,3.25-6.6,3.03-9.99,3.79c-4.37,0.97-8.92,1.1-13.33,1.95
	c-35.46,6.83-71.13,12.5-106.44,20.16c-20.94,4.54-42.2,7.58-63.23,11.7c-51.77,10.13-103.47,20.68-155.39,30.03
	c-14.24,2.57-28.34,6.11-42.77,7.36c-6.78,0.59-11.7,2.94-14.84,9.11c-2.42,4.75-3.75,4.99-6.03,0.45
	c-2.74-5.46-6.38-6.54-11.68-4.76c-1.73,0.58-3.6,0.72-5.32,1.31c-17.01,5.9-34.59,9.44-52.35,11.96
	c-10.85,1.54-21.63,3.44-32.28,5.85c-12.97,2.93-26.15,4.66-39.13,7.46C856.32,121.32,857.05,119.19,859.59,118.13z"/>
<path class="st2" d="M577.78,458.8c4.99-1.57,9.47-4,13.18-7.77c2.92-2.97,6.14-3.17,9.38-0.62c3.26,2.57,6.92,3.14,10.84,2.5
	c9.95-1.61,20.28-1.87,28.6-8.98c5.69-4.86,6.39-7.08,3.79-14.16c-2.44-6.63-0.19-13.25,0.88-19.7
	c4.55-27.44,12.9-53.97,19.82-80.84c2.45-9.49,5.85-18.73,8.65-28.13c1.22-4.08,3.16-8.11,1.81-12.63
	c-0.33-1.09,0.07-2.39,0.97-3.23c5.69-5.3,6.22-12.62,7.79-19.56c2.55-11.19,5.4-22.3,9.54-33.04c1.38-3.59,3.71-5.65,7.27-6.88
	c4.72-1.63,9.33-3.56,14.37-4.01c7.97-0.71,11.74,2.81,11.1,10.62c-0.27,3.3-0.95,6.57-1.45,9.85c-4.5,1.6-9.03,3.14-13.49,4.84
	c-2.59,0.98-4.17,2.9-5.31,5.54c-2.96,6.88-4.34,14.22-6.66,21.27c-3.62,10.96-2.6,23.52-11.31,32.75c-0.48,0.51-0.72,1.67-0.5,2.35
	c1.51,4.84-0.98,9.05-1.86,13.54c-1.14,5.82-4.83,10.95-4.48,17.14c-1.9,1.02-1.56,3.33-2.72,4.77
	c-5.19,19.35-10.77,38.6-15.44,58.07c-3.39,14.16-6.6,28.43-7.37,43.08c-0.12,2.27,0.51,4.21,1.52,6.18
	c1.61,3.13,1.12,6.37-1.08,8.86c-3.43,3.87-7.42,7.47-12.48,8.84c-6.39,1.74-12.96,2.95-19.52,3.83c-3.58,0.48-7.24-0.16-10.43-2.53
	c-3.61-2.69-7.3-2.18-10.27,1.08c-1.75,1.93-3.99,3-6.04,4.34c-6.19,4.05-8.58,3.29-11.98-3.21
	C582.45,468.3,579.52,463.85,577.78,458.8z"/>
<path class="st3" d="M152.32,395.26c-0.02,0.65-0.04,1.3-0.06,1.94c-23.42,4.1-46.82,8.26-70.25,12.3
	c-20.06,3.46-40.17,2.22-60.2-0.11c-6.6-0.77-12.85-3.45-18.73-6.65c-4.09-2.23-4.1-4.96-0.08-7.37c1.98-1.19,4.18-2.03,6.31-2.95
	c8.12-3.53,15.49-8.27,22.81-13.24c39.49-26.81,74.98-58.49,110.54-90.1c3-2.67,4.99-4.61,0.98-8.69
	c-7.35-7.48-16.05-13.28-23.69-20.37c-9.28-8.62-19.48-16.04-31.22-21.1c-3.7-1.6-7.54-2.57-11.62-2.55
	c-1.4,0.01-3.31,0.52-3.86-1.37c-0.5-1.72,1.09-2.74,2.23-3.59c8.4-6.28,17.93-10.41,28.08-12.38c26.94-5.22,54.02-9.74,81.01-14.73
	c15.05-2.78,30.03-5.93,45.04-8.88c1.69-0.33,3.3-0.65,3.68-2.7c1.42,2.44,0.14,4.96,0.22,7.44c-0.83,0.08-1.66,0.11-2.48,0.26
	c-29.61,5.31-59.23,10.54-88.81,15.98c-16.97,3.12-34.2,5.21-50.33,11.91c-1.7,0.7-3.85,0.85-4.68,3.99c2.89-0.74,5.2-1.4,7.54-1.93
	c11.34-2.56,22.68-5.09,34.03-7.58c0.97-0.21,2.51-1.09,2.91,0.59c0.38,1.62-1.44,1.42-2.33,1.96c-0.42,0.26-0.93,0.36-1.4,0.53
	c-0.35,0.25-0.69,0.51-1.04,0.76c-0.36-0.07-0.73-0.14-1.09-0.22c-1.39-1.36-1.7-0.27-1.99,0.87c-8.48,1.38-16.91,3.01-24.93,6.21
	c-1.5,0.6-4.5,0.28-3.57,2.93c0.71,2,3.14,1.32,4.83,0.52c7.15-3.39,14.9-4.55,22.57-5.85c3.32-0.56,6.75-2.17,10.89-0.77
	c-1.8,2.03-3.82,2.16-5.61,2.74c-6.47,2.09-12.95,4.16-19.4,6.31c-1.07,0.36-2.47,1.05-2.21,2.33c0.33,1.58,1.99,1.76,3.28,1.43
	c2.88-0.75,5.73-1.68,8.55-2.65c9.07-3.13,18.5-4.47,28.17-5.35c-9.71,4.37-20.62,6.06-29.27,12.48c0.17,0.41,0.34,0.83,0.51,1.24
	c4.87-1.22,9.73-2.44,14.6-3.66c0.58-0.03,1.17-0.07,1.75-0.1c1.31-0.96,2.86-0.93,4.37-1.06c-0.01,0.54-0.03,1.09-0.04,1.63
	c-3.94,1.65-7.93,3.19-11.78,5.02c-1.47,0.7-4.01,1.38-3.01,3.73c0.9,2.13,3.11,1.42,4.85,0.85c4.9-1.59,9.72-3.41,14.67-4.83
	c3.4-0.97,6.92-2.25,11.56-1.05c-7.31,3.03-13.59,5.61-19.85,8.25c-1.52,0.64-4.38,0.46-3.46,3.1c0.85,2.43,3.09,0.92,4.75,0.47
	c1.6-0.44,3.16-1.05,4.77-1.45c4.82-1.19,9.66-2.32,14.5-3.47c-2.85,4.38-7.53,4.98-11.34,7.13c-1.55,0.87-4.59,1.22-3.52,3.7
	c0.91,2.11,3.21,0.48,4.87-0.07c3.62-1.21,7.12-2.94,11.37-2.53c-2.17,3.66-7.37,3.56-8.75,7.83c2.72,0.94,5.38-1.45,8,0.63
	c-2.39,2.09-4.17,4.25,0.62,5.27c2.26,0.48,1.78,2.19,1.52,3.54c-0.39,2.05-2.62,2.36-3.94,3.55c-1.29,1.17-4.37,1.91-3.55,3.59
	c2.32,4.75-1.69,3.32-3.43,4.03c-1.81,0.74-5.34,1.33-4.89,2.63c1.67,4.88-2.42,3.89-4.31,4.72c-2.18,0.96-4.17,2.06-5.79,3.76
	c-1.32,1.39-0.92,2.32,0.93,2.68c-0.03,0.56-0.06,1.12-0.08,1.68c-3.13,1.06-6.59,1.06-9.47,2.86c-1.67,1.05-4.11,2.66-2.62,4.54
	c1.94,2.46,0.29,2.1-1.09,2.4c-1.13,0.24-2.28,0.44-3.41,0.67c-2.26,0.45-4.7,1.67-4.63,3.82c0.1,2.76,3.16,1.26,4.84,1.88
	c0.26,0.45,0.51,0.89,0.77,1.34c-4.55,0.9-9.14,1.64-13.62,2.79c-1.9,0.49-4.06,2.01-3.89,4.07c0.22,2.67,2.94,1.34,4.49,1.52
	c6.09,0.69,12.2,1.11,18.31,1.62c-8.66,1.99-17.34,3.15-26.19,2.86c-1.64-0.05-3.35-0.03-4.9,0.4c-1.66,0.45-2.97,1.84-2.97,3.59
	c0,2.01,2.06,1.72,3.37,2.21c2.12,0.79,4.84-0.31,6.94,2.18c-4.69,1.56-9.1,1.91-13.54,1.48c-2.59-0.25-4.95,0.27-7.26,1.24
	c-1.25,0.52-2.52,1.31-2.34,2.85c0.18,1.5,1.74,1.35,2.79,1.54c3.76,0.66,7.53,1.19,11.3,1.76c1.39,0.08,2.78,0.16,4.17,0.24
	c1.65-0.23,3.31-0.55,5.7,1.26c-6.05,0.73-11.12,1.38-16.18,1.95c-5.14,0.58-10.29,0.16-15.43,0.01c-2.06-0.06-4.42,0.77-4.66,2.97
	c-0.25,2.29,2.29,2.53,3.98,2.81c5.09,0.83,10.2,1.44,15.31,2.14c0.6,0.02,1.21,0.04,1.81,0.06c5.08-1.02,5.08-1.02,8.06,0.48
	c-5.63,1.68-10.94,2.37-16.36,2.16c-6.63-0.25-13.26-0.63-19.9-0.88c-2.97-0.12-5.81,1.21-6.01,4.05c-0.19,2.64,3.14,2.19,5.06,2.71
	c1.09,0.29,2.33,0.24,3.46,0.09c8.1-1.07,16.23-0.58,24.35-0.52c0.86,0.04,1.73,0.07,2.59,0.11c3.33-0.42,6.64-0.76,10.42,0.64
	c-1.01,0.73-1.36,1.18-1.79,1.26c-13.44,2.56-26.9,4.54-40.61,2.03c-3.43-0.63-6.92-1.07-10.4-1.24c-2.66-0.13-5.47,1.2-5.84,3.71
	c-0.44,2.95,2.95,2.53,4.79,2.98c11.72,2.89,23.79,1.82,35.68,2.88c-0.02,0.37-0.05,0.74-0.07,1.11c-3.79,0.36-7.58,0.93-11.38,1.05
	c-11.63,0.37-23.2-0.39-34.72-2.07c-2.9-0.42-7.17-0.97-7.42,2.72c-0.22,3.25,4.18,3.83,7,4.2c14.33,1.87,28.64,4.22,43.18,2.65
	c0.99-0.11,1.99-0.21,2.98-0.19c0.93,0.02,1.62,0.63,1.76,1.49c0.25,1.54-0.97,1.38-1.94,1.46c-12.11,1.01-24.22,2.22-36.34,0.29
	c-8.55-1.36-17.07-2.88-25.59-4.36c-2.87-0.5-6.57-1-7.32,2.07c-0.57,2.34,3.32,3.18,5.5,4.02c8.14,3.11,16.66,4.38,25.34,5.13
	c36.65,3.16,71.65-6.36,106.95-13.57C148.18,394.19,150.43,393.85,152.32,395.26z"/>
<path class="st2" d="M1340.71,290.4c3.49,7.31,7.25,14.4,12.08,20.99c7.4,10.11,16.39,17.59,28.5,21.59
	c7.21,2.38,13.88,6.15,21.66,7.16c14.89,1.94,28.63-1.2,42.18-7.27c20.81-9.31,36.47-23.99,48.05-43.39
	c2.06-3.45,1.35-7.09,1.55-10.67c0.16-2.8-0.52-5.64,0.19-8.44c8.35,6.31,7.65,15.54,7.89,24.47c0.4,14.39-8.3,24.37-16.84,34.34
	c-3.55,4.14-7.4,8.11-11.59,11.59c-15.57,12.93-32.83,22.45-53.47,24.02c-9.51,0.73-18.93-0.13-27.53-4.95
	c-6.21-3.48-13.34-4.74-19.32-9.01c-11.29-8.05-18.1-19.42-23.51-31.48c-3.68-8.22-8.54-16.21-9.51-25.52
	C1340.92,292.68,1340.82,291.54,1340.71,290.4z"/>
<path class="st3" d="M677.99,344.44c1.16-1.45,0.81-3.75,2.72-4.77c5.56-0.97,11.19-1.67,16.67-2.98
	c5.72-1.37,12.07,0.24,17.03-1.61c5.19-1.94,8.92-7.7,13.4-11.66c1.06-0.94,2.45-2.23,3.95-1.62c1.78,0.73,1.09,2.62,0.91,4.01
	c-0.56,4.19,0.85,5.28,5.01,4.09c20.93-5.99,42.18-10.57,63.55-14.68c22.2-4.26,44.38-8.65,66.53-13.17
	c43.35-8.85,86.96-16.41,130.48-24.4c23.71-4.35,47.07-10.44,71.08-13.43c18.46-2.3,36.66-6.52,54.74-11.01
	c3.48-0.62,6.96-1.24,10.43-1.85c9.17-1.11,18.04-3.6,26.98-5.74c0.88-0.21,1.75-0.42,2.63-0.63c6.02-1.06,12.01-2.31,18.06-3.15
	c16.06-2.22,31.8-5.99,47.57-9.62c9.74-1.75,19.48-3.49,29.22-5.24c9.91-1.37,19.74-3.2,29.5-5.43c4.2-0.23,8.23-1.32,12.26-2.39
	c3.64,0.33,6.34-1.83,9.22-3.51c1.74-1.01,3.68-1.22,5.62-1.49c2.89-0.39,5.79,1.56,8.68-0.02c1.28,0,2.57,0.01,3.85,0.01
	c0.89,1.63,0.79,3.37,0.55,5.12c-7.96-0.29-15.47,0.01-23.31,3.27c-7.63,3.18-16.55,3.27-24.91,4.7
	c-57.88,9.96-115.48,21.37-173.07,32.81c-37.01,7.35-74.36,13.16-111.13,21.55c-37.67,8.59-75.91,13.97-113.6,22.22
	c-31.38,6.86-63.34,10.63-94.55,18.29c-18.23,4.48-36.94,7.08-54.63,13.78c-3.37,1.27-7.63,3.08-7.75-3.87
	c-0.05-2.74-2.4-0.8-3.21-0.03c-3.22,3.12-6.36,6.35-9.31,9.73c-1.67,1.91-3.07,2.2-5,0.53c-2.76-2.4-5.9-2.4-9.39-1.78
	C691.84,341.71,685.21,344.67,677.99,344.44z"/>
<path class="st2" d="M289.02,149.87c-7.76,0.41-12.72-4.9-12.98-13.91c-0.35-11.79,4.5-21.91,11.39-30.79
	c17.19-22.18,39.59-35.28,68.24-34.04c15.74,0.68,29.56,7.37,39.68,20.17c2.55,3.23,3.74,6.99,3.64,11.13
	c-8.24-5.92-17.78-9.22-27.43-11.01c-8.01-1.49-16.48-0.07-24.59,1.97c-20.08,5.05-35.57,16.88-47.78,33.06
	C294.04,133.27,289.7,140.89,289.02,149.87z"/>
<path class="st2" d="M859.59,118.13c-2.54,1.05-3.27,3.19-3.38,5.68c-4.48,7.11-5.8,16.19-13.39,21.39
	c-0.61,0.42-0.54,1.83-0.78,2.78c-3.56,2.69-7.02,5.49-9.73,9.08c-3.09,4.09-6.15,8.19-9.22,12.29c-3.15,0.16-4.6,2.94-6.84,4.49
	c-1.37,0.94-2.6,2.19-4.42,1.34c-1.61-0.75-1.02-2.27-0.93-3.49c0.12-1.65-0.99-2.68-1.56-4.01c-1.9-4.45-6.34-7.73-6.08-13.15
	c8.62-7.99,16.02-17.16,24.24-25.49c11.67-11.83,16.41-27.28,23.49-41.49c3.82-7.67,8.7-14.94,10.46-23.56
	c0.16-0.77,0.69-1.52,1.22-2.14c5.28-6.26,9.18-13.38,12.99-20.56c5.4,4.61,8.33,10.95,11.76,16.92c0.88,1.52,0.18,3.59-0.66,5.27
	c-1.55,3.11-2.54,6.74-4.79,9.22c-8.58,9.47-11.27,21.89-17.01,32.75C862.83,109.47,859.67,113.19,859.59,118.13z"/>
<path class="st3" d="M665.31,153.13c0.73,3.06-1.62,5.74-1.09,8.78c-1.78-1-3.57-0.35-5.35,0.01c-5.06,1.02-10.07,2.57-15.17,3.01
	c-8.04,0.68-11.31,5.15-13.06,12.54c-4.75,20.08-7.81,40.5-12.77,60.54c-5.03,20.33-7.59,41.2-12.31,61.64
	c-2.02,8.74-6.5,14.61-13.59,19.17c-18.65,11.97-36.46,25.13-54.59,37.83c-3.51,2.46-7.08,4.85-10.65,7.22
	c-0.82,0.54-1.89,1.13-2.53-0.1c-0.44-0.83,0.31-1.53,0.99-2.04c0.66-0.5,1.33-1,2.01-1.48c21.61-15.54,43.18-31.12,64.86-46.56
	c4.61-3.28,7.2-7.41,8.51-12.93c5.38-22.67,10.56-45.4,14.65-68.32c5.4-30.33,13.29-60.09,19.56-90.21
	c0.92-4.4,1.98-8.75,1.96-13.29c-0.02-3.57-0.96-5.68-5.22-4.93c-6.22,1.09-12.56,1.53-18.75,2.76
	c-43.07,8.58-86.06,17.56-129.18,25.86c-28.91,5.57-57.86,10.88-86.5,17.71c-1.93-2.16-6.03-0.73-7.11-4.29
	c32.31-7.92,65.34-12.21,97.79-19.6c25.08-5.71,50.62-9.65,75.92-14.48c19.54-3.73,39.58-5.33,58.5-12.16
	c4.37-1.58,9.1-2.03,13.76-2.22c5.55-0.23,6.49,0.73,6.21,6.17c-0.59,11.19-2.87,22.11-5.81,32.86c-1.18,4.3,0.57,4.72,3.79,4.14
	c7.19-1.3,14.35-2.84,21.55-4.09C663.9,156.29,664.61,154.84,665.31,153.13z"/>
<path class="st2" d="M402.93,130.76c7.96-6.25,15.86-12.58,23.91-18.7c3.17-2.42,4.61-5.47,5.06-9.29
	c1.19-10.15,4.35-19.74,8.07-29.21c1.92-4.87,4.38-9.8,2.25-15.38c-0.72-1.89,0.65-3.13,2.02-4.16c3.6-2.73,5.6-6.48,7.03-10.66
	c2.59-7.53,5.46-14.94,8.91-22.13c5.23,4.98,8.42,11.48,12.01,17.52c1.77,2.98-1.41,7.29-2.94,10.58
	c-4.12,8.93-5.55,19.32-13.53,26.27c-0.79,0.69-1.25,1.64-0.93,2.68c1.36,4.43,0.21,8.72-1.42,12.64
	c-4.73,11.39-7.6,23.26-9.8,35.32c-0.36,1.98-1.27,3.34-2.75,4.52c-7.53,6.02-14.97,12.14-22.59,18.04
	c-4.25,3.29-5.96,2.71-8.02-2.31C408.01,141.14,403.9,136.68,402.93,130.76z"/>
<path class="st3" d="M386.91,355.69c0.24-4.38,3.46-6.07,6.85-7.61c1.81-0.23,3.64-0.34,5.42-0.72
	c17.73-3.79,35.38-7.92,53.17-11.37c46.22-8.98,92.12-19.42,138.13-29.35c1.51-0.32,3.1-1.14,5.46,0.46
	c-9.13,5.74-17.87,11.24-26.62,16.74c0.07-1.08,0.15-2.15,0.22-3.23c1.16-1.94,4.33-2.26,4.62-5.21c-2.87-0.45-4.25,1.48-6.02,2.54
	c-5.94,3.55-11.02,8.22-16.42,12.49c0-0.95,0-1.9-0.01-2.85c2.67-3.3,7-4.99,8.38-9.79c-5.29,3.79-10.58,7.59-15.88,11.38
	c-0.35-0.5-0.7-1-1.06-1.49c0.94-2.16,4.22-2.61,4.47-5.96c-4.65,0.8-6.88,4.97-11.47,6.19c0.77-0.86,1.15-1.31,1.55-1.73
	c0.88-0.94,2.41-1.94,1.4-3.25c-0.99-1.28-2.5-0.25-3.54,0.49c-1.94,1.38-3.47,2.26-6.21,0.99c-3.38-1.56-7.75,1-8.57,4.65
	c-2.75,12.16-6.45,24.11-8.32,36.47c-1.05,6.96-0.74,7.27,6.3,5.87c31.64-6.28,63.48-11.56,94.96-18.68c0.1,1.68,0.24,3.36-0.92,4.8
	c-23.04,3.43-45.53,9.46-68.29,14.23c-11.39,2.39-22.63,5.47-33.96,8.13c-6.31,1.48-7.05,0.65-5.67-5.76
	c2.82-13.17,5.71-26.32,8.45-39.51c1.12-5.38,0.78-5.77-4.39-4.22c-26.72,8.02-54.7,9.42-81.77,15.72
	C413.73,349.24,400.19,351.93,386.91,355.69z"/>
<path class="st2" d="M1368.22,206.2c-0.24,1.73-0.48,3.47-0.71,5.2c1.3,7.45-1.69,15.06,0.9,22.53c0.54,1.55,0.2,3.79-0.54,5.33
	c-1.87,3.92-0.83,6.77,1.97,9.78c1.69,1.81,3.35,4.31,0.75,6.91c-3.53-5.97-7.31-11.83-6.91-19.24c0.09-1.66-0.19-3.79-1.54-4.58
	c-4.7-2.78-3.4-6.51-2.27-10.42c0.31-1.08,0.4-2.32,0.22-3.43c-3.51-22.46,0.55-44.47,3.85-66.53c0.63-4.22-0.62-8.55,0.73-12.73
	c3.53,0.26,5.61,2.5,7.29,5.3c5.04,8.4,1.55,17.15,0.63,25.61C1371.29,182.03,1368.98,194.02,1368.22,206.2z"/>
<path class="st2" d="M644.35,111.3c13.64,0.3,21.85,8.12,22.66,21.6c-3.87-0.63-7.74-1.24-11.6-1.92c-0.6-0.11-1.43-0.44-1.66-0.92
	C650.67,123.77,645.97,118.3,644.35,111.3z"/>
<path class="st3" d="M329.47,156.64c-2.72,1.84-5.54,0.05-8.31,0.22C323.88,154.86,326.69,156.47,329.47,156.64z"/>
<path class="st3" d="M340.43,156.85c-2.31,0.88-4.54,0.59-6.71-0.49C336.01,155.86,338.24,156.04,340.43,156.85z"/>
<path class="st3" d="M1330.34,235.44c1.18,1.4,1.07,2.71-0.3,3.92C1329.72,238.02,1329.83,236.71,1330.34,235.44z"/>
<path class="st3" d="M373.88,164.71c-1.13,0.84-2.1,0.86-2.79-0.54C372.09,163.96,373.04,164.05,373.88,164.71z"/>
<path class="st3" d="M229.84,172.34c1.02,0.74,0.73,1.76,0.6,2.76C229.47,174.35,229.5,173.38,229.84,172.34z"/>
<path class="st3" d="M382.94,165.15c-0.56,0.86-1.17,1.04-1.86,0.13C381.7,165.24,382.32,165.19,382.94,165.15z"/>
<path class="st3" d="M349.32,158.6c-0.82,0.75-1.4,0.52-1.81-0.44C348.11,158.31,348.71,158.46,349.32,158.6z"/>
<path class="st3" d="M232.07,181.56c0.85,0.57,1.01,1.19,0.1,1.85C231.7,182.82,231.71,182.2,232.07,181.56z"/>
<path class="st4" d="M569.32,323.84c8.74-5.5,17.49-11,26.62-16.74c-2.36-1.6-3.96-0.79-5.46-0.46
	c-46.01,9.93-91.91,20.37-138.13,29.35c-17.79,3.46-35.45,7.59-53.17,11.37c-1.78,0.38-3.61,0.49-5.42,0.72
	c0.12-6,5.18-9.42,7.57-14.26c2.84-5.75,6.82-10.93,10.3-16.36c1.47,0.57,2.94,1.14,4.41,1.71c2.59,8.69,5.61,10.96,13.68,9.41
	c16.4-3.16,32.76-6.58,49.14-9.85c1.61-0.32,3.06-1.06,3.45-2.52c2.35-8.69,8.21-15.51,12.15-23.34c4.42-8.78,3.39-11.53-5.56-16.4
	c-0.4-2.55-1.66-4.11-3.76-1.6c-7.63,9.09-18.53,10.17-29.05,12.26c1.12-8.75,4.93-16.78,6.79-25.32c0.77-3.55,2.64-5.23,5.69-6.05
	c4.31-1.17,8.7-2.16,13.21-1.93c6.96,0.35,9.47-1.3,11.59-7.98c0.65-2.05,1.1-4.16,1.76-6.2c2.44-7.53,0.46-11.52-7.26-14.48
	c-0.47-3.32-2.34-4.33-5.57-3.66c-2.22,0.46-4.54,0.47-6.81,0.67c0.1-4.9,2.17-9.31,3.4-13.93c1.06-3.97,3.46-6.61,7.56-7.64
	c3.36-0.85,6.66-1.94,10.02-2.78c4.3-1.08,8.56-0.7,12.68,0.89c6.8,2.63,9.32,1.38,10.91-5.78c0.96-4.35,1.4-8.82,2.48-13.14
	c1.58-6.33-0.97-11.56-7.45-14.4c0.02-3.12-1.87-3.95-4.56-3.75c-7.47,0.57-15.01,0.86-22.17,3.23c-7.67,2.54-15.62,3.17-23.52,4.27
	c-3.13,0.44-6.27,0.83-9.38,1.37c-1.7,0.3-3.32,0.8-2.5,3.26c1.35,4.02,0.2,7.88-0.91,11.74c-2.89,10.06-6.28,20.01-8.51,30.22
	c-2.46,11.25-9.21,21.51-7.82,33.63c-3.98,5.68-5.27,12.45-7.66,18.78c-0.68-7.02,0.71-13.93,1.19-20.89
	c1.06-15.43-1.57-29.92-9.94-43.18c-1.2-1.89-2.32-3.14-4.56-3.15c-2.08-7.02-6.06-13.12-9.42-19.52c-1.46-2.78-3.3-5.35-6.04-7.06
	c-1.5-0.93-2.62-2.02-2.22-3.98c28.65-6.83,57.6-12.14,86.5-17.71c43.12-8.3,86.11-17.29,129.18-25.86
	c6.19-1.23,12.53-1.67,18.75-2.76c4.26-0.74,5.2,1.37,5.22,4.93c0.02,4.54-1.04,8.89-1.96,13.29
	c-6.27,30.12-14.16,59.88-19.56,90.21c-4.08,22.92-9.27,45.65-14.65,68.32c-1.31,5.52-3.9,9.64-8.51,12.93
	c-21.68,15.44-43.25,31.03-64.86,46.56c-0.67,0.49-1.34,0.98-2.01,1.48c-0.68,0.52-1.43,1.21-0.99,2.04
	c0.64,1.23,1.72,0.64,2.53,0.1c3.57-2.38,7.14-4.76,10.65-7.22c18.13-12.7,35.95-25.87,54.59-37.83
	c7.1-4.55,11.58-10.43,13.59-19.17c4.72-20.45,7.28-41.31,12.31-61.64c4.96-20.05,8.02-40.46,12.77-60.54
	c1.75-7.4,5.02-11.86,13.06-12.54c5.11-0.43,10.12-1.98,15.17-3.01c1.77-0.36,3.56-1.02,5.35-0.01c0.02,7.92-2.2,15.55-4.37,22.94
	c-4.54,15.47-7.11,31.41-11.69,46.81c-6.02,20.22-10.29,40.92-17.13,60.9c-1.77,5.18-3.64,10.33-6.65,15
	c-1.46,2.27-2.35,4.74-1.61,7.58c0.24,0.92,0.35,2.1-0.01,2.92c-4.97,11.05-4.53,23.5-9.04,34.65
	c-31.48,7.11-63.32,12.39-94.96,18.68c-7.04,1.4-7.34,1.08-6.3-5.87c1.86-12.36,5.57-24.3,8.32-36.47c0.82-3.65,5.2-6.21,8.57-4.65
	c2.74,1.27,4.27,0.4,6.21-0.99c1.04-0.74,2.55-1.77,3.54-0.49c1.01,1.31-0.52,2.32-1.4,3.25c-0.4,0.43-0.78,0.87-1.55,1.73
	c4.59-1.22,6.82-5.4,11.47-6.19c-0.25,3.35-3.53,3.79-4.47,5.96c-0.26,0.04-0.4,0.2-0.43,0.46c-2.02,1.27-3.96,2.62-5.43,4.54
	c-0.02-0.02-0.05-0.05-0.08-0.08c3.02,0.59,4.66-1.68,6.66-3.21l0.33-0.22c5.29-3.79,10.58-7.59,15.88-11.38
	c-1.38,4.8-5.71,6.5-8.38,9.79c-3.92,2.56-7.45,5.54-11.4,10.06c5.6-1.2,8.18-4.72,11.4-7.2c5.4-4.26,10.48-8.94,16.42-12.49
	c1.77-1.06,3.16-2.99,6.02-2.54c-0.29,2.94-3.46,3.27-4.62,5.21c-2.86,1.52-5.36,3.52-7.66,5.78c-1.04,0.82-2.08,1.64-3.12,2.46
	c-0.89,0.64-1.78,1.28-2.66,1.92c-1.38,0.96-3.97,1.76-2.72,3.72c0.99,1.57,2.41-0.58,3.53-1.35c0.44-0.36,0.89-0.71,1.33-1.07
	c0.68-0.52,1.36-1.03,2.04-1.55c0.48-0.32,0.95-0.64,1.43-0.96C564.42,327.89,567.12,326.19,569.32,323.84z M547.27,340.4
	c0.37-0.3,0.74-0.59,1.11-0.89c1.02-0.77,2.04-1.55,3.07-2.32c0.86-0.48,2.01-1.09,1.27-2.15c-1.04-1.48-1.9-0.22-2.66,0.6
	c-1.34,0.37-2.18,1.39-3.03,2.39c-0.38,0.34-0.75,0.67-1.12,1.01c-0.16,0.15-0.34,0.3-0.51,0.44c-0.6,0.51-1.2,1.02-1.81,1.53
	c-1.29,1.01-2.98,1.71-3.31,3.76c1.8,0.04,2.56-1.04,3.43-1.95c0.85-0.6,1.7-1.19,2.55-1.79
	C546.59,340.83,546.93,340.62,547.27,340.4z M520.31,367.64c0.99-0.48,2.03-0.89,2.96-1.47c0.77-0.48,1.85-1.11,1.06-2.21
	c-0.81-1.12-1.72-0.2-2.43,0.33c-0.62,0.47-1.08,1.16-1.62,1.75C519.67,366.58,518.6,367.13,520.31,367.64z M564.12,289.08
	c0.92,5.1,6.02,11.01,9.74,10.47c6.87-0.99,13.73-2.32,20.45-4.05c3.09-0.79,5.81-2.89,4.37-7.03c-3.48-10.01-1.91-20.35-1.64-30.52
	c0.29-10.96,1.81-21.89,2.58-32.85c0.58-8.21-2.79-16.87,2.96-24.47c0.26-0.34,0.22-0.98,0.15-1.46c-1.19-8.02,0.79-15.89,1.2-23.83
	c0.25-4.77,0.33-9.58,2.51-14.12c3.02-6.31-0.17-11.64-7.29-12.81c-0.14-1.57,3.71-4.93-1.76-4.13
	c-10.54,1.53-21.05,3.18-31.58,4.75c-2.58,0.38-3.72,1.57-3.49,4.35c0.34,4.14,0.52,8.39-1.1,12.33
	c-4.19,10.15-5.81,21.4-12.97,30.3c-0.81,1.01-1.19,2.37-1.74,3.58c-7.86,17.2-15.4,34.57-23.68,51.57
	c-7.57,15.53-15.45,30.94-24.48,45.71c-2.81,4.59-2.58,5.16,2.44,5.96c1.38,8.84,5.64,11.66,13.7,9.25c3.16-0.95,6.4-1.66,9.65-2.26
	c9.48-1.77,9.8-2.17,11.21-12c0.64-4.46,2.4-8.57,4.77-12.42c1.26-2.06,2.95-3.13,4.82-1.3c4.9,4.82,10.05,4.87,15.63,1.47
	C560.79,287.67,562.55,288.28,564.12,289.08z"/>
<path class="st4" d="M125.84,226.41c0.36,0.07,0.73,0.14,1.09,0.22c0.66,0.17,0.95-0.15,1.04-0.76c0.47-0.17,0.98-0.28,1.4-0.53
	c0.89-0.54,2.71-0.35,2.33-1.96c-0.4-1.69-1.94-0.81-2.91-0.59c-11.35,2.48-22.7,5.02-34.03,7.58c-2.34,0.53-4.66,1.19-7.54,1.93
	c0.83-3.14,2.98-3.29,4.68-3.99c16.13-6.69,33.36-8.79,50.33-11.91c29.58-5.43,59.21-10.67,88.81-15.98
	c0.82-0.15,1.65-0.17,2.48-0.26c5.27,3.97,8.51,10.01,14.06,13.69c-1.65,0.1-2.06,0.85-2.09,2.58c-0.09,4.31,3.47,6.11,5.56,8.93
	c9.41,12.65,23.25,17.5,37.75,19.92c13.89,2.32,27.58,5.32,41.33,8.24c7.11,1.51,14.94,4.42,22.16-0.75c1.49-1.07,2.22,0,2.04,1.43
	c-0.68,5.62,3.5,6.37,7.34,7.5c0.34,16.25-0.49,31.52-12.53,45.06c-13.55,15.23-27.94,28.37-47.55,34.81
	c-9.18,3.01-18.64,3.23-28.13,1.83c-3.9-0.57-7.04-2.75-9.73-5.58c2.66-0.15,2.36-2.21,2.65-3.98c1.72-10.57-0.51-21.06-0.94-31.55
	c-0.28-7.05-4.12-13.22-11.78-15.59c-0.34-21.35-26.12-30.66-42.87-25.47c-27.42,8.5-48.7,25.18-63.73,49.09
	c-6.75,10.74-9.12,23.78-9.16,36.83c-0.02,8.01,0.17,16.16,2.31,23.74c2.16,7.65,5.46,14.97,5.86,23.07
	c-35.31,7.21-70.31,16.74-106.95,13.57c-8.68-0.75-17.2-2.02-25.34-5.13c-2.19-0.83-6.07-1.68-5.5-4.02
	c0.74-3.08,4.44-2.58,7.32-2.07c8.53,1.49,17.05,3,25.59,4.36c12.12,1.93,24.23,0.72,36.34-0.29c0.97-0.08,2.19,0.08,1.94-1.46
	c-0.14-0.86-0.83-1.47-1.76-1.49c-0.99-0.02-1.99,0.08-2.98,0.19c-14.54,1.56-28.86-0.78-43.18-2.65c-2.82-0.37-7.22-0.95-7-4.2
	c0.25-3.69,4.52-3.14,7.42-2.72c11.52,1.68,23.09,2.44,34.72,2.07c3.8-0.12,7.59-0.69,11.38-1.05c8.98-0.35,18.23,1.42,26.7-3.12
	c-8.95-0.1-17.82,0.59-26.63,2c-11.89-1.06-23.96,0.01-35.68-2.88c-1.84-0.45-5.23-0.03-4.79-2.98c0.38-2.51,3.18-3.84,5.84-3.71
	c3.48,0.17,6.97,0.62,10.4,1.24c13.71,2.51,27.17,0.52,40.61-2.03c0.42-0.08,0.78-0.53,1.79-1.26c-3.78-1.4-7.09-1.07-10.42-0.65
	c-0.86-0.04-1.73-0.07-2.59-0.11c-8.12-0.06-16.25-0.55-24.35,0.52c-1.14,0.15-2.38,0.21-3.46-0.09c-1.92-0.52-5.25-0.07-5.06-2.71
	c0.2-2.84,3.04-4.16,6.01-4.05c6.63,0.26,13.26,0.64,19.9,0.88c5.42,0.2,10.72-0.49,16.36-2.16c-2.98-1.5-2.98-1.5-8.06-0.48
	c-0.59-0.41-1.19-0.45-1.81-0.06c-5.11-0.7-10.23-1.31-15.31-2.14c-1.69-0.27-4.23-0.52-3.98-2.81c0.24-2.19,2.59-3.03,4.66-2.97
	c5.15,0.15,10.29,0.57,15.43-0.01c5.07-0.57,10.13-1.22,16.18-1.95c-2.39-1.82-4.05-1.5-5.7-1.26c-1.37-0.46-2.75-0.62-4.17-0.24
	c-3.77-0.58-7.55-1.11-11.3-1.76c-1.05-0.18-2.62-0.04-2.79-1.54c-0.18-1.54,1.09-2.33,2.34-2.85c2.32-0.96,4.67-1.49,7.26-1.24
	c4.45,0.43,8.86,0.08,13.54-1.48c-2.1-2.49-4.82-1.4-6.94-2.18c-1.31-0.48-3.37-0.2-3.37-2.21c0-1.75,1.31-3.13,2.97-3.59
	c1.56-0.43,3.27-0.45,4.9-0.4c8.84,0.29,17.53-0.87,26.19-2.86c-6.11-0.52-12.22-0.93-18.31-1.62c-1.55-0.18-4.27,1.15-4.49-1.52
	c-0.17-2.06,1.99-3.58,3.89-4.07c4.48-1.15,9.08-1.89,13.62-2.79c2.54-0.39,5.18-0.35,8.24-2.05c-3.51,0.28-6.26,0.49-9.01,0.71
	c-1.68-0.61-4.74,0.89-4.84-1.88c-0.08-2.14,2.37-3.36,4.63-3.82c1.14-0.23,2.28-0.42,3.41-0.67c1.38-0.3,3.03,0.06,1.09-2.4
	c-1.49-1.88,0.95-3.5,2.62-4.54c2.88-1.81,6.34-1.81,9.46-2.86c2.42-0.18,4.87-0.25,7.19-1.93c-2.65-1.11-4.86,0.02-7.11,0.25
	c-1.85-0.36-2.25-1.29-0.93-2.68c1.62-1.71,3.61-2.8,5.79-3.76c1.89-0.84,5.99,0.16,4.31-4.72c-0.44-1.29,3.08-1.89,4.89-2.63
	c1.74-0.71,5.75,0.72,3.43-4.03c-0.82-1.68,2.26-2.42,3.55-3.59c1.32-1.19,3.55-1.5,3.94-3.55c0.26-1.34,0.74-3.06-1.52-3.54
	c-4.79-1.02-3.02-3.18-0.62-5.27c-2.62-2.08-5.28,0.31-8-0.63c1.38-4.27,6.58-4.17,8.75-7.83c-4.25-0.41-7.75,1.32-11.37,2.53
	c-1.66,0.56-3.96,2.19-4.87,0.07c-1.07-2.47,1.97-2.82,3.52-3.7c3.81-2.15,8.49-2.75,11.34-7.13c-4.83,1.15-9.67,2.28-14.5,3.47
	c-1.61,0.4-3.17,1.01-4.77,1.45c-1.66,0.46-3.89,1.97-4.75-0.47c-0.92-2.63,1.95-2.46,3.46-3.1c6.26-2.63,12.54-5.21,19.85-8.25
	c-4.64-1.2-8.15,0.07-11.56,1.05c-4.94,1.41-9.77,3.24-14.67,4.83c-1.75,0.57-3.96,1.28-4.85-0.85c-0.99-2.36,1.54-3.04,3.01-3.73
	c3.85-1.83,7.84-3.37,11.78-5.02c6.7-0.76,13.01-2.99,19.47-4.62c-0.09-0.41-0.19-0.82-0.28-1.23c-6.39,1.41-12.77,2.81-19.16,4.22
	c-1.51,0.13-3.06,0.1-4.38,1.06c-0.62-0.63-1.19-0.29-1.75,0.1c-4.87,1.22-9.73,2.44-14.6,3.66c-0.17-0.41-0.34-0.83-0.51-1.24
	c8.65-6.43,19.56-8.11,29.27-12.48c-9.67,0.87-19.1,2.21-28.17,5.35c-2.82,0.97-5.66,1.9-8.55,2.65c-1.3,0.34-2.96,0.15-3.28-1.43
	c-0.27-1.28,1.14-1.98,2.21-2.33c6.45-2.15,12.93-4.22,19.4-6.31c1.79-0.58,3.82-0.71,5.61-2.74c-4.14-1.4-7.56,0.21-10.89,0.77
	c-7.66,1.3-15.42,2.46-22.57,5.85c-1.7,0.8-4.12,1.48-4.83-0.52c-0.94-2.65,2.07-2.34,3.57-2.93c8.02-3.21,16.44-4.83,24.93-6.21
	C124.74,227.53,125.41,227.24,125.84,226.41z M100.15,376.82c0.91-0.02,1.81-0.05,2.38-0.06c-0.46-0.68-1.38-0.69-2.34-0.52
	c-1.58-0.05-3.3-1.44-5.05,0.64C97.06,377.79,98.61,377.26,100.15,376.82z M135.23,223.45c8.97-1.89,18.22-2.34,26.96-5.48
	c-8.94,1.29-18.09,0.82-26.82,3.63c-1.36,0.13-3.56-0.17-3.32,1.6C132.29,225.01,134.1,223.66,135.23,223.45z M136.62,230.49
	c10.85-2.7,22.02-3.63,33.01-5.55c-11.17-0.44-22.12,0.78-32.86,3.78c-1.35,0.16-3.5-0.32-3.2,1.74
	C133.76,231.72,135.55,230.58,136.62,230.49z M115.6,356.17c-5.31,0.07-10.62,0.14-15.93,0.2c0.02,0.41,0.04,0.81,0.06,1.22
	C104.95,357.02,110.21,357.9,115.6,356.17z M99.14,346.92c5.03,0.81,10.03,0.79,16.28-0.37C109.1,345.19,104.11,345.76,99.14,346.92
	z M153.51,233.77c3.53,0.86,5.79,0.09,8.36-1.85C158.64,231.09,156.35,231.71,153.51,233.77z M99.27,366.47
	c-2.55-1.04-5.02-1.05-8.16,0.9C94.62,368.78,96.89,367.37,99.27,366.47z"/>
<path class="st2" d="M361.67,261.69c-3.84-1.13-8.03-1.88-7.34-7.5c0.17-1.44-0.55-2.51-2.04-1.43c-7.22,5.17-15.05,2.26-22.16,0.75
	c-13.75-2.92-27.44-5.92-41.33-8.24c-14.5-2.42-28.34-7.27-37.75-19.92c-2.1-2.82-5.65-4.61-5.56-8.93
	c0.04-1.74,0.44-2.48,2.09-2.58c9.51,6.55,20.18,9.83,31.52,11.31c13.05,1.71,25.82,4.75,38.56,7.97c0.81,0.2,1.6,0.49,2.42,0.6
	c7.58,1.02,15.35,3.74,22.41-2.95c-2.09,6.14,0.87,9.41,5.54,10.69C358.6,244.37,360.65,252.58,361.67,261.69z"/>
<path class="st2" d="M253.65,286.69c7.67,2.37,11.5,8.53,11.78,15.59c0.42,10.5,2.66,20.99,0.94,31.55
	c-0.29,1.77,0.01,3.83-2.65,3.98c-6.76-4.76-10.38-11.78-9.92-19.52c0.51-8.64,0.59-17.12-0.48-25.68
	C253.08,290.68,253.52,288.67,253.65,286.69z"/>
<path class="st4" d="M1368.22,206.2c0.76-12.18,3.07-24.17,4.38-36.27c0.92-8.47,4.4-17.21-0.63-25.61c-1.68-2.8-3.76-5.05-7.29-5.3
	c-0.39-0.67-0.77-1.33-1.16-2c3.1-1.91,6.35-3.6,9.01-6.15c13.85-13.26,23.07-28.66,21.84-48.62c-0.29-4.72,0.28-10.22-5.76-12.45
	c-0.98-3.94-2.06-7.82-6.57-9.24c-1.37-0.43-1.72-1.25-1.41-2.65c1.19-5.32-2.04-6.67-6.41-7.13c-8.08-0.86-15.83,1.79-23.8,2.02
	c-8.35,0.23-16.42,2.51-24.68,3.46c-3.21,0.37-6.17,1.67-2.92,5.82c1.67,2.13,0.57,4.47-0.07,6.69c-5.99,20.75-11.97,41.5-18,62.23
	c-0.85,2.91-1.62,5.76-0.51,8.78c0.49,1.33,0.35,2.85-0.54,3.82c-5.96,6.52-6.74,15.08-8.93,23c-2.04,7.38-4.23,14.69-6.77,21.9
	c-1.23,3.48-3.02,6.63-5.72,9.24c-4.49,4.34-4.44,4.62,0.32,8.64c1.37,4.56,0.48,10.18,6.32,12.62c1.81,0.76-1.01,1.55-0.46,2.56
	c-9.76,2.23-19.58,4.06-29.5,5.43c0.37-5.87,2.01-11.2,5.4-16.18c3.42-5.03,6.31-10.45,9.11-15.87c2.3-4.46-0.78-10.92-5.81-12.97
	c-0.38-1.35,1.64-2.85-0.05-4c-0.88-0.6-1.85,0.35-2.64,0.91c-9.01,6.44-19.65,7.95-30.11,10.02c2.54-7.49,5.09-14.97,7.6-22.46
	c0.6-1.8,1.45-3.42,3.3-4.13c6.07-2.31,12.2-4.46,18.78-2.11c3.46,1.23,5.28,0.01,6.22-3.42c1.66-6.04,3.5-12.02,5.3-18.02
	c1.85-6.15,0.11-11.19-5.47-15.73c0.82-3.55-0.43-3.9-3.43-2.49c-3.88,1.82-6.93,5.68-11.86,4.98c0.14-1.49,0.22-2.99,0.41-4.47
	c1.31-9.99,4.58-13.7,14.2-15.94c5.37-1.25,10.85-1.86,16.29-0.76c5.09,1.03,7.5-0.75,9.01-5.74c1.1-3.62,2.55-7.24,3.23-10.91
	c1.35-7.25,3.93-15.14-4.81-20.11c0.51-5.18-2.33-5.8-6.49-4.9c-8.28,1.79-16.55,3.65-24.88,5.17c-4.9,0.89-9.92,3.71-14.27,3.41
	c-6.14-0.43-11.3,1.98-16.95,2.58c-2.18,0.23-4,1.6-3.4,4.03c2.64,10.74-2.21,20.41-4.89,30.11c-6.1,22.07-11.77,44.29-19.26,65.96
	c-0.54,1.56-1.86,3.7-0.83,4.72c3.88,3.86,0.44,5.97-1.45,8.67c-1.03,1.47-2.16,3.19-2.33,4.89c-0.98,9.82-4.26,18.73-10,26.74
	c-1.94,2.71-0.41,3.43,2.04,3.67c-0.68,3.67,2.83,6.03,3,9.3c0.17,3.24,2.14,3.56,4.35,3.22c6.87-1.04,13.82-1.85,20.49-3.66
	c4.02-1.09,7.43-1.12,11,0.74c-15.77,3.63-31.51,7.4-47.57,9.62c-6.05,0.84-12.04,2.09-18.06,3.15c1.72-8.56,1.91-17.34,5.12-25.72
	c3.72-9.71,6.2-19.88,9.52-29.75c2.05-6.1,2.11-13.01,5.98-18.3c3.6-4.93,3.42-8.99-0.37-13.37c-1.07-1.23-1.98-2.61-2.96-3.91
	c-0.1-5.83-4.53-2.98-6.2-2.31c-4.73,1.89-9.42,2.93-14.5,2.86c-1.94-0.02-3.92,0.67-5.83,1.19c-2.28,0.63-3.29,1.66-0.98,3.68
	c2.14,1.87,2.31,4.52,1.63,6.93c-2.82,10.06-4.53,20.47-8.97,30.04c-2.43,5.25-6.43,8.78-12.3,9.87c0.96-4.18,2.03-8.34,2.85-12.54
	c3.87-19.88,11.01-38.77,17.77-57.75c2.91-8.18,8.42-10.94,16.96-10.24c6.06,0.5,11.02,3.25,15.66,6.93c3.4,2.7,5.69,2.05,7.15-1.88
	c0.63-1.7,0.86-3.54,1.51-5.23c3.03-7.9,3.09-16.57,6.56-24.36c3.96-8.91,3.3-11.47-4.25-18.47c0.4-3.22-1.56-2.36-2.98-1.53
	c-4.94,2.87-9.72,4.85-14.98,0.49c-0.95-0.79-2.89-0.36-4.37-0.52c-10.31-1.07-18.99,3.89-26.71,9.19
	c-11.05,7.6-19.19,18.12-24.48,30.86c-10.98,26.45-17.14,54.41-26.03,81.5c-0.3,0.92-0.57,2.04-0.33,2.93
	c1.13,4.13-0.01,8.34,0.48,12.4c0.77,6.44,0.38,13.5,6.36,18.19c2.17,10.64,3.91,14.03,14.22,14.55c1.73,0.09,4.27-0.65,4.43,2.5
	c-18.08,4.49-36.28,8.71-54.74,11.01c-24.02,2.99-47.37,9.07-71.08,13.43c-43.52,7.99-87.13,15.55-130.48,24.4
	c-22.15,4.52-44.33,8.91-66.53,13.17c-21.37,4.1-42.63,8.69-63.55,14.68c-4.16,1.19-5.57,0.1-5.01-4.09
	c0.19-1.4,0.88-3.28-0.91-4.01c-1.51-0.62-2.9,0.68-3.95,1.62c-4.48,3.97-8.21,9.73-13.4,11.66c-4.96,1.85-11.32,0.24-17.03,1.61
	c-5.48,1.31-11.11,2.01-16.67,2.98c-0.35-6.19,3.34-11.32,4.48-17.14c0.88-4.49,3.37-8.7,1.86-13.54c-0.21-0.68,0.02-1.84,0.5-2.35
	c8.71-9.23,7.7-21.79,11.31-32.75c2.33-7.05,3.71-14.39,6.66-21.27c1.14-2.64,2.71-4.56,5.31-5.54c4.47-1.7,8.99-3.23,13.49-4.84
	c0.34,2.57-1.12,4.72-1.63,7.1c-0.57,2.7,0.68,3.2,2.95,2.68c-0.28,4.92,3.16,8.22,5.3,12.07c5.31,9.55,5.36,9.52,13.8,2.4
	c5.3-4.47,11.28-8.54,14.38-14.82c4.29-8.68,5.62-18.26,6.19-27.88c0.04-0.64-0.01-1.46-0.37-1.91c-1.99-2.46-0.76-4.34,1.03-6.04
	c2.62-2.48,3.61-5.74,4.94-8.96c3.81-9.23,4.78-19.21,7.99-28.58c0.42-1.22,0.43-2.37-0.63-3.16c-4.07-3.05-5.46-7.78-7.69-11.99
	c-1.02-1.92-1.98-3.86-4.28-4.56c-0.35-4.66-11.02-10.99-15.18-9.02c-1.8,0.85-1.9,2.52-2.23,4.16c-1.45,7.18-3.26,14.28-6.43,20.9
	c-3.91,8.17-9.45,14.79-18.56,17.53c0.24-2.63,0.64-5.2,1.28-7.8c1.21-4.96,5.13-8.77,6.16-13.35c1.51-6.74,4.3-12.81,6.89-19.04
	c0.96-2.33,1.8-4.45,5.1-4.6c1.47-0.06-0.55-0.85-0.51-1.46c21.32-4.12,42.65-8.24,63.97-12.37c-3.26,5.48-7.85,10.23-8.45,17.1
	c-0.37,4.24,0.89,5.62,4.93,3.9c-0.26,5.43,4.18,8.7,6.08,13.15c0.56,1.32,1.68,2.36,1.56,4.01c-0.09,1.22-0.69,2.75,0.93,3.49
	c1.82,0.84,3.05-0.4,4.42-1.34c2.24-1.55,3.69-4.33,6.84-4.49c-7.46,7.07-3.86,19.19-11.85,26.06c-0.4,0.34-0.4,1.25-0.44,1.9
	c-0.24,5.06-2.17,9.67-3.74,14.38c-5.92,17.68-10.75,35.7-10.99,54.39c-0.1,7.97,2.12,16.28,9.03,22
	c0.66,5.54,0.49,11.09,7.67,13.42c7.9,2.57,15.35,1.79,22.75-0.94c10.05-3.7,16.99-11,23.01-19.73
	c7.95-11.52,14.72-23.5,20.11-36.46c4.85-11.67,4.47-24.61,10.15-36.07c2.41-4.87,2.99-10.85,3.5-16.41
	c0.44-4.82,2.64-9.39,2.18-14.21c-0.74-7.72-1.75-15.43-3.03-23.08c-0.44-2.63-1.4-5.62-4.98-6.04c-1.86-2.98-0.47-7.58-4.58-9.4
	c-6.8-3.01-13.46-4.18-21.05-1.66c-7.08,2.36-12.43,7.18-18.79,10.47c0.24-0.95,0.17-2.36,0.78-2.78
	c7.6-5.21,8.92-14.28,13.39-21.39c12.98-2.8,26.16-4.53,39.13-7.46c10.65-2.4,21.44-4.3,32.28-5.85
	c17.76-2.53,35.34-6.06,52.35-11.96c1.72-0.6,3.59-0.73,5.32-1.31c5.31-1.78,8.95-0.7,11.68,4.76c2.28,4.55,3.61,4.31,6.03-0.45
	c3.14-6.17,8.07-8.52,14.84-9.11c14.44-1.25,28.53-4.79,42.77-7.36c51.92-9.36,103.61-19.9,155.39-30.03
	c21.04-4.12,42.3-7.16,63.23-11.7c35.31-7.66,70.98-13.33,106.44-20.16c4.4-0.85,8.96-0.97,13.33-1.95c3.4-0.76,6.78-0.54,9.99-3.79
	c2.51-2.54,8.11-2.27,12.39-2.74c14.23-1.58,28.34-3.99,42.48-6.14c16.46-2.51,33.02-4.01,49.71-3.25c2.28,0.1,4.71-0.22,6.93,1.78
	c-1.22,2.14-3.3,2.25-5.36,2.45c-13.08,1.25-26.16,2.49-39.24,3.8c-2.7,0.27-5.48,0.41-8.35,1.8c1.94,1.83,3.78,0.71,5.45,0.76
	c8.96,0.29,17.92,0.49,26.87,0.81c1.52,0.05,3.88-0.43,4.01,1.78c0.11,1.82-2.03,2.41-3.58,3c-0.76,0.29-1.64,0.5-2.43,0.41
	c-11.83-1.36-23.06,2-34.39,4.46c-2.4,0.52-4.98-0.32-7.22,1.1c-4.67,0.38-9.21,1.23-14.31,3.87c5.85,0.07,10.45-1.24,15.13-2.1
	c1.11-0.13,2.22-0.25,3.33-0.37c0,0,0.4,0.21,0.4,0.21l0.4-0.22c7.12-0.19,13.93-3.22,21.14-2.4c2.43,0.28,6.52-0.82,6.69,2.43
	c0.19,3.53-3.78,3.09-6.56,3.53c-9.35,1.48-18.66,3.2-27.99,5.37c7.36,2.86,15.27-0.75,24.07,1.98c-9.26,4.71-18.93,3.33-28.11,8
	c4.64-0.12,8.02-0.31,11.4-0.26c1.35,0.02,3.45-0.53,3.74,1.45c0.29,2-1.55,2.7-3.22,3.12c-6.2,1.56-12.4,3.08-19.01,4.72
	c2.63,2.23,5.35,0.98,7.79,1.32c2.33,0.32,3.02,0.96,1.4,3.07c-2.06,2.68-4.65,4.12-8.01,4.5c-3.41,0.39-6.93,0.49-10.2,2.39
	c1.55,1.6,5.02-1,5.13,2.11c0.08,2.42-2.13,4.24-4.34,5.04c-3.4,1.23-6.99,1.95-10.79,2.96c1.29,0.9,4.33,1.03,1.78,3.24
	c-2.39,2.07-4.2,4.04-1.47,6.95c1.9,2.03-3.09,2.26-0.97,4.08c1.57,1.35,3.45-0.99,5.19,0.2c0.83,0.57,1.81,0.97,1.84,2.14
	c0.03,1.38-0.88,2.07-2.06,2.48c-4.34,1.52-8.68,3.03-12.94,5.03c5.36,0.82,10.59,0.61,15.73-1.18c1.67-0.58,3.91-1.68,4.74,0.69
	c0.85,2.43-1.82,2.77-3.32,3.5c-2.07,1-4.28,1.7-6.49,2.55c3.48,1.92,7.01,0.86,10.51,0.53c1.52-0.14,3.37-0.23,3.71,1.49
	c0.28,1.4-1.38,2.12-2.64,2.6c-3.41,1.31-6.84,2.57-10.26,3.85c-3.75,0.75-7.81,0.59-12.07,4.42c4.87-1.07,8.37-1.85,11.87-2.62
	c4.43-0.72,8.86-1.41,13.27-2.19c1.9-0.34,3.92-0.68,4.62,1.58c0.7,2.26-1.82,2.34-2.95,3.36c-5.96,2.96-12.91,2.55-18.84,5.68
	c6.5-1.54,13-3.07,19.49-4.61c0.97,1.34,2,0.26,3.04,0.15c1.58-0.16,3.5-0.6,4.22,1.44c0.72,2.04-0.9,2.96-2.38,3.66
	c-3.23,1.55-6.51,2.98-9.77,4.46c-8.61,2.12-17.22,4.24-25.83,6.36c8.81-0.8,17.54-1.87,26.08-4.04c4.75-0.66,9.57-0.99,14.1-2.76
	c1.35-0.53,2.59-0.89,3.46,0.65c1.09,1.94-0.54,2.67-1.72,3.5c-4.42,3.13-9.74,4.14-14.65,6.13c-5.28,1.12-10.62,2.05-15.53,4.47
	c5.24-0.26,10.43-0.65,15.32-2.7c5.96-1.44,11.91-2.9,17.88-4.31c1.89-0.45,4-1.35,4.99,1.43c0.87,2.44-1.09,3.14-2.58,4.13
	c-0.28,0.18-0.59,0.31-0.86,0.5c-1.53,1.04-5.08,1.21-4.49,2.72c1.08,2.77,4,0.3,6.11,0.3c2.88,0.01,7.02-3.02,8,1.33
	c0.75,3.33-3.97,3.37-6.51,4.49c-1.51,0.67-3.03,1.32-4.55,1.98c-9.04,2.75-18.08,5.5-27.11,8.25c9.65-1.88,19.4-3.25,28.65-6.67
	c3.88-1.05,7.74-2.22,11.66-3.09c1.96-0.44,4.38-0.35,5.03,1.99c0.7,2.5-1.48,3.27-3.46,3.93c-4.53,1.53-9.03,3.13-13.55,4.71
	c-8.65,2.03-16.85,5.35-25.03,8.8c8.58-1.62,17.18-3.13,25.01-7.29c0.65-0.09,1.3-0.18,1.94-0.27c0.26-0.01,0.52-0.02,0.78-0.03
	c5.72-0.1,11.07-2.22,16.66-3.02c1.36-0.19,3.22-1,3.85,0.91c0.48,1.45-1.05,2.3-2.1,3.07c-4.87,3.56-10.03,6.38-16.09,7.59
	c-4.13,0.83-8.1,2.43-12.16,3.61c-0.83,0.24-2.25-0.46-2,1.21c0.21,1.38,1.44,1.09,2.39,0.91c8.12-1.61,16.38-2.6,24.22-5.51
	c3.41-1.26,6.74-3.04,10.54-2.72c1.49,0.12,3.84-0.92,4.22,1.29c0.31,1.78-1.79,2.58-3.28,3.28c-6.03,2.8-12.01,5.93-18.48,7.42
	c-17.36,4-34.77,7.79-52.24,11.23c-10.67,2.1-20.71,6.39-31.45,8.31C1379.7,204.78,1374.07,206.14,1368.22,206.2z M982.98,260.01
	c-0.94,3.82,1.97,6.51,2.81,9.79c0.83,3.24,2.8,3.49,5.2,2.4c7.19-3.26,15.02-3.7,22.58-5.26c3.02-0.62,4.75-1.4,5.55-4.47
	c1.54-5.89,3.36-11.69,6.21-17.15c1.64-3.12,3.57-3.93,6.82-2.42c4.2,1.96,8.56,3.55,13.32,3.46c0.97,0.24,1.94,0.47,2.91,0.71
	c-0.34,1.76,0.52,3.24,1.12,4.77c2.93,7.53,2.95,7.67,10.85,6.76c6.83-0.8,13.95,0.3,20.42-3.17c3.62-1.94,5.38-4.38,3.61-8.41
	c-1.01-2.3-1.33-4.63-1.54-7.15c-0.69-8.61,0.12-17.11,1.54-25.55c0.46-2.75,1.65-5.42,1.39-8.27c-0.89-9.64-1.76-19.23,3.31-28.18
	c0.53-0.93,0.64-2.36,0.38-3.42c-0.98-4.01,0.03-7.94,0.12-11.9c0.13-5.84,3.01-11.35,2.35-17.19c-0.78-6.88,0.62-13.57,0.81-20.36
	c0.08-2.96,1.09-5.48,2.75-7.86c3.97-5.69,2.32-11.86-4.09-15.48c1.69-3.54,0.49-3.59-2.89-3.11c-9.86,1.41-18.83,7.28-29.63,4.64
	c-5.9-1.44-7.69,1.25-7.89,7.46c-0.12,3.8,0.75,7.64-0.51,11.4c-5.06,15.14-14.6,28.24-19.8,43.32c-2.72,7.9-8.06,14.48-11.38,22.09
	c-10.28,23.62-21.54,46.7-37.53,67.13c-0.51,0.65-0.89,1.4-1.24,2.15C979.4,259.27,980.63,260.07,982.98,260.01z M968.43,204.85
	c1.33,0.04,2.67,0.16,3.79-0.81c5.35-4.68,11.31-8.66,15.04-15.04c2.87-4.91,4.78-10.04,6.36-15.51c1.5-5.19,4.51-9.99,4.08-15.65
	c-0.39-5.05-1.64-9.82-5.78-13.27c-1.91-4.95-3.28-10.2-5.87-14.76c-3.32-5.86-8.7-10.58-15.69-9.82
	c-13.52,1.48-27.05,3.36-40.33,6.56c-4.57,1.1-6,3.61-4.75,8c1.32,4.64,0.75,9.17-0.67,13.73c-3.75,12.01-8.24,23.88-10.77,36.15
	c-2.93,14.21-7.22,27.95-11.28,41.81c-0.97,3.3-3.71,6.29-2.75,9.92c0.87,3.31-0.17,5.74-2.03,8.25c-0.98,1.31-1.88,2.82-2.33,4.37
	c-2.36,8.15-4.56,16.32-10.13,23.08c-2.16,2.63-0.08,3.32,2.13,3.69c0.19,4.04,3.26,7.19,3.44,11.3c0.06,1.48,1.78,1.93,3.15,1.85
	c5.43-0.3,11.04-0.08,16.1-2.15c3.36-1.38,6.44-2.8,10.22-3.06c5.56-0.39,6.63-2.49,5.47-7.94c-0.27-1.26-0.06-2.64,0.05-3.95
	c1.12-13.48,5.32-26.14,10.48-38.52c0.63-1.5,0.74-3.82,3.33-3.72c0.24,0.77,0.73,1.56,0.69,2.31c-0.36,6.87,0.01,13.8-1.79,20.54
	c-1.31,4.9-1.06,9.23,4.19,11.78c-0.55,9,3.66,14.31,12.05,13.67c6.37-0.48,12.68-2.27,18.88-3.96c1.94-0.53,4.18-2.01,2.22-5.26
	c-2.93-4.88-3.6-10.53-2.15-15.89c2.42-8.96,1.26-18.11,1.82-27.12c0.34-5.36,0.32-12.16-6.16-15.55
	C969.09,208.2,968.76,206.53,968.43,204.85z"/>
<path class="st2" d="M742.82,145.9c-0.04,0.61,1.98,1.39,0.51,1.46c-3.3,0.14-4.13,2.27-5.1,4.6c-2.58,6.24-5.37,12.31-6.89,19.04
	c-1.03,4.59-4.95,8.39-6.16,13.35c-0.64,2.61-1.04,5.17-1.28,7.8c-4.22,2.8-9.06,2.94-13.86,3.08c-2.75,0.08-4.05-1.59-3.36-4.23
	c2.62-9.95,2.35-20.77,7.16-29.95c5.01-9.56,7.58-19.92,11.64-29.77c5.51-13.35,14.34-22.57,28.3-26.62
	c13.09-3.79,26.21-7.46,39.86-8.78c11.84-1.14,16.83,3.47,16.36,15.31c-0.07,1.64-0.47,3.26-0.72,4.89c-4.1,0.23-8.3-0.05-12.27,0.8
	c-9.51,2.03-19.01,4.25-28.34,7.02c-10.29,3.05-19.86,7.53-25.46,17.56C742.62,142.9,739.17,144.07,742.82,145.9z"/>
<path class="st2" d="M766.31,158.59c2.3,0.71,3.26,2.64,4.28,4.56c2.22,4.21,3.62,8.94,7.69,11.99c1.06,0.79,1.05,1.94,0.63,3.16
	c-3.21,9.37-4.18,19.35-7.99,28.58c-1.33,3.22-2.32,6.48-4.94,8.96c-1.8,1.7-3.02,3.58-1.03,6.04c0.36,0.45,0.41,1.27,0.37,1.91
	c-0.58,9.63-1.9,19.21-6.19,27.88c-3.11,6.28-9.09,10.35-14.38,14.82c-8.44,7.12-8.49,7.15-13.8-2.4c-2.14-3.84-5.58-7.15-5.3-12.07
	c5.32-4.75,10.66-9.47,15.96-14.25c4.34-3.91,7.04-8.6,7.77-14.57c0.6-4.92,1.85-9.76,2.94-14.61c0.62-2.75,1.76-5.4-0.42-8.03
	c-1-1.2-0.56-2.6,0.43-3.63c6.82-7.1,8.17-16.43,10.48-25.39C763.92,167.2,765.14,162.9,766.31,158.59z"/>
<path class="st5" d="M743.24,141.46c5.61-10.02,15.18-14.5,25.46-17.56c9.32-2.77,18.82-4.99,28.34-7.02
	c3.97-0.85,8.17-0.56,12.27-0.8c0.09,3.95,0.97,7.88,0.23,11.85c-5.84,1.26-11.69,2.44-17.5,3.79
	C775.87,135.48,759.71,139.25,743.24,141.46z"/>
<path class="st3" d="M743.24,141.46c16.47-2.2,32.63-5.98,48.79-9.74c5.81-1.35,11.67-2.53,17.5-3.79
	c-0.58,2.03-0.96,4.16-2.75,5.61c-21.32,4.12-42.65,8.24-63.97,12.36C739.17,144.07,742.62,142.9,743.24,141.46z"/>
<path class="st2" d="M1288.47,221.55c-0.55-1.01,2.27-1.81,0.46-2.56c-5.85-2.45-4.96-8.06-6.32-12.62
	c4.56-0.35,8.93-1.14,12.09-4.94c1.12-1.35,2.61-1.3,4.12-0.91c2.3,0.6,4.59,0.48,6.93,0.15c8.27-1.17,8.26-1.13,7.41-9.26
	c-0.1-0.98-0.25-2.09,0.08-2.97c4.9-13.07,6.6-27.13,12.34-39.93c0.91-2.03,0.93-6.02,5.16-4.01c4.61,2.2,7.1,6.61,5.67,9.93
	c-0.59,1.37-1.27,2.7-1.92,4.05c-2.78,1.42-3.43,4.28-4.22,6.83c-3.36,10.84-6.5,21.74-9.73,32.62c-1.33,4.5,0.23,9.13-0.58,13.72
	c-0.26,1.46,3.55,0.31,4.29,2.49c-2.89,1.58-5.78-0.37-8.68,0.02c-1.94,0.26-3.88,0.47-5.62,1.49c-1.25-0.71-2.44-1.55-3.75-2.1
	c-2.39-1-4.3-0.07-6.15,1.59c-2.1,1.88,0.3,2.72,0.69,4.03C1296.69,220.24,1292.67,221.32,1288.47,221.55z"/>
<path class="st2" d="M1388.62,69.79c6.04,2.23,5.47,7.73,5.76,12.45c1.22,19.96-7.99,35.36-21.84,48.62
	c-2.66,2.55-5.91,4.24-9.01,6.15c-2.74-2.84-4.09-6.79-7.67-9.02c-2.56-1.59-0.53-2.65,0.91-3.49c7.59-4.44,13.13-10.93,18.95-17.41
	c7.98-8.88,10.99-19.07,11.85-30.42C1387.74,74.37,1388.26,72.08,1388.62,69.79z"/>
<path class="st4" d="M1324.24,214.14c-0.75-2.18-4.55-1.02-4.29-2.49c0.81-4.6-0.76-9.22,0.58-13.72
	c3.22-10.88,6.37-21.78,9.73-32.62c0.79-2.55,1.44-5.41,4.22-6.83c-0.29,2.63-0.5,5.27-0.91,7.87c-0.56,3.61-1.25,6.82,2.36,9.82
	c2.59,2.15,2.12,6.3,0.27,8.78c-3.79,5.09-3.28,10.83-3.98,16.51c-0.55,4.41,0.46,9.51-4.12,12.69
	C1326.81,214.15,1325.53,214.14,1324.24,214.14z"/>
<path class="st2" d="M1348.54,104.88c-3.51,4.63-7.66,8.35-14.37,10.47c1.14-3.99,1.99-6.97,2.83-9.95c2.2-7.8,4.42-15.59,6.56-23.4
	c1.03-3.76,2.59-7.04,7.11-7.04c4.42,0,4.76,3.95,5.98,6.9c0.84,2.02,1.14,4.15,0.33,6.3c-2.81,0.04-4.51,1.86-5.67,4.03
	C1349.2,96.13,1348.34,100.41,1348.54,104.88z"/>
<path class="st4" d="M1348.54,104.88c-0.19-4.47,0.66-8.76,2.76-12.69c1.16-2.17,2.86-3.99,5.67-4.03
	C1356.57,94.95,1353.34,100.31,1348.54,104.88z"/>
<path class="st1" d="M416.04,319.18c-1.47-0.57-2.94-1.14-4.41-1.71c0.08-0.65-0.07-1.46,0.26-1.94c8-11.69,8.26-26.06,13.49-38.7
	c1.16-2.81,0.29-6.25,2.68-8.69c2.4-6.32,3.69-13.1,7.66-18.78c-1.39-12.12,5.36-22.38,7.82-33.63c2.23-10.2,5.61-20.16,8.51-30.22
	c1.11-3.86,2.26-7.72,0.91-11.74c-0.82-2.45,0.79-2.96,2.5-3.26c3.11-0.54,6.25-0.93,9.38-1.37c7.9-1.1,15.85-1.72,23.52-4.27
	c7.15-2.37,14.7-2.67,22.17-3.23c2.68-0.2,4.58,0.62,4.56,3.75c-1.62,6.58-2.3,13.35-4.46,19.85c-1.41,4.25-4.13,5.59-7.49,3.76
	c-10.32-5.63-19.34,0.32-28.78,2.6c-1.64,0.39-2.13,1.95-2.71,3.35c-3.57,8.63-5.53,17.75-8.2,26.65c-0.85,2.83,0.22,3.8,2.92,3.13
	c3.06-0.77,6.08-1.69,9.11-2.54c2.28-0.21,4.59-0.21,6.81-0.67c3.23-0.67,5.09,0.33,5.57,3.66c-1.43,4.43-2.83,8.87-4.3,13.28
	c-1.2,3.63-3.63,5.58-7.56,4.89c-5.63-0.97-10.89,0.84-16.24,1.92c-2.88,0.58-4.55,2.53-5.36,5.33
	c-2.98,10.22-6.16,20.38-8.97,30.64c-2.46,8.99-1.9,9.44,6.89,7.13c1.27-0.34,2.51-0.81,3.77-1.23
	c10.52-2.09,21.42-3.17,29.05-12.26c2.1-2.5,3.36-0.95,3.76,1.6c-0.93,1.94-1.8,3.92-2.81,5.82c-4.12,7.73-10.06,14.53-11.93,23.42
	c-0.36,1.69-1.89,2.1-3.44,2.41C452.48,311.79,434.26,315.49,416.04,319.18z"/>
<path class="st1" d="M1458.63,166.48c-7.83,4.16-16.43,5.67-25.01,7.29c8.17-3.44,16.37-6.77,25.03-8.8
	C1458.64,165.48,1458.64,165.98,1458.63,166.48z"/>
<path class="st1" d="M1458.96,157.43c-9.25,3.42-19,4.8-28.65,6.67c9.04-2.75,18.08-5.5,27.11-8.25
	C1457.93,156.38,1458.45,156.91,1458.96,157.43z"/>
<path class="st1" d="M1438.46,134c-8.54,2.17-17.27,3.25-26.08,4.04c8.61-2.12,17.22-4.24,25.83-6.36
	C1438.29,132.45,1438.37,133.23,1438.46,134z"/>
<path class="st1" d="M1443.1,121.96c-6.5,1.54-13,3.07-19.49,4.61c5.93-3.13,12.87-2.72,18.84-5.68
	C1442.67,121.25,1442.89,121.61,1443.1,121.96z"/>
<path class="st1" d="M1439.43,143.29c-4.89,2.05-10.08,2.44-15.32,2.7c4.91-2.43,10.25-3.35,15.53-4.47
	C1439.57,142.11,1439.5,142.7,1439.43,143.29z"/>
<path class="st1" d="M1457.11,29.24c-4.67,0.86-9.28,2.17-15.13,2.1c5.1-2.63,9.64-3.48,14.31-3.87
	C1456.56,28.06,1456.84,28.65,1457.11,29.24z"/>
<path class="st1" d="M1427.51,118.13c-3.5,0.77-7,1.54-11.87,2.62c4.25-3.83,8.31-3.67,12.07-4.42
	C1427.64,116.93,1427.57,117.53,1427.51,118.13z"/>
<path class="st1" d="M1461.24,28.85l-0.4,0.22c0,0-0.4-0.21-0.4-0.21C1460.71,28.73,1460.97,28.72,1461.24,28.85z"/>
<path class="st1" d="M1461.36,166.19c-0.26,0.01-0.52,0.02-0.78,0.03C1460.83,166.14,1461.1,166.13,1461.36,166.19z"/>
<path class="st1" d="M78.12,387.95c8.81-1.41,17.68-2.1,26.63-2c-8.47,4.53-17.72,2.76-26.7,3.12
	C78.07,388.7,78.09,388.33,78.12,387.95z"/>
<path class="st1" d="M138.38,244.05c6.39-1.41,12.77-2.81,19.16-4.22c0.09,0.41,0.19,0.82,0.28,1.23
	c-6.47,1.63-12.77,3.87-19.47,4.62C138.36,245.14,138.37,244.6,138.38,244.05z"/>
<path class="st1" d="M116.66,324.6c2.75-0.22,5.5-0.43,9.01-0.71c-3.05,1.7-5.7,1.66-8.24,2.05
	C117.17,325.5,116.92,325.05,116.66,324.6z"/>
<path class="st1" d="M133.12,306.76c2.25-0.23,4.46-1.37,7.11-0.25c-2.32,1.68-4.77,1.76-7.19,1.93
	C133.06,307.88,133.09,307.32,133.12,306.76z"/>
<path class="st1" d="M125.84,226.41c-0.43,0.83-1.09,1.12-1.99,0.87C124.13,226.14,124.45,225.05,125.84,226.41z"/>
<path class="st1" d="M89.91,356.05c1.42-0.38,2.8-0.22,4.17,0.24C92.69,356.21,91.3,356.13,89.91,356.05z"/>
<path class="st1" d="M83.28,375.57c0.86,0.04,1.73,0.07,2.59,0.11C85,375.64,84.14,375.61,83.28,375.57z"/>
<path class="st1" d="M82.8,367.43c0.62-0.39,1.22-0.35,1.81,0.06C84.01,367.47,83.4,367.45,82.8,367.43z"/>
<path class="st1" d="M132.26,245.21c0.56-0.38,1.13-0.73,1.75-0.1C133.42,245.15,132.84,245.18,132.26,245.21z"/>
<path class="st1" d="M127.96,225.86c-0.09,0.61-0.38,0.93-1.04,0.76C127.27,226.37,127.62,226.12,127.96,225.86z"/>
<path class="st2" d="M1181.41,153.94c0.98,1.31,1.89,2.68,2.96,3.91c3.79,4.38,3.97,8.44,0.37,13.37c-3.87,5.29-3.93,12.2-5.98,18.3
	c-3.32,9.87-5.8,20.04-9.52,29.75c-3.21,8.38-3.39,17.16-5.12,25.72c-0.88,0.21-1.75,0.42-2.63,0.63c-2.53-1.82-5.74-2.33-8.14-4.47
	c-1.5-1.34-3.33-1.09-4.97,0.23c-4.02,3.22-8.59,5.43-13.49,6.9c-2.86,0.85-0.62,2.02-0.38,3.09c-3.48,0.62-6.96,1.24-10.43,1.85
	c-0.15-3.14-2.7-2.41-4.43-2.5c-10.3-0.52-12.05-3.91-14.22-14.55c1.29,1.14,2.83,1.43,4.51,1.65c11.49,1.48,21.44-2.75,30.88-8.48
	c2.92-1.77,4.76-2.76,8.13-0.23c5.5,4.14,8.83,2.22,9.89-4.64c0.73-4.75,1-9.71,2.63-14.16c5.31-14.51,9.98-29.19,13.8-44.15
	C1176.42,161.63,1177.65,157.15,1181.41,153.94z"/>
<path class="st2" d="M1229.75,232.22c-3.56-1.86-6.98-1.83-11-0.74c-6.67,1.81-13.63,2.63-20.49,3.66
	c-2.22,0.34-4.18,0.02-4.35-3.22c-0.17-3.27-3.68-5.63-3-9.3c10.84-1.81,21.42-4.72,32.62-5.02c8.68-0.23,17.3-2.83,25.94-4.44
	c1.97-0.37,3.25-1.69,3.72-3.61c2.52-10.41,9.23-18.62,14.48-27.6c5.04,2.06,8.11,8.51,5.81,12.97c-2.79,5.42-5.68,10.84-9.11,15.87
	c-3.39,4.98-5.03,10.31-5.4,16.18C1249.23,228.72,1239.49,230.47,1229.75,232.22z"/>
<path class="st4" d="M1134.51,251.36c-0.24-1.06-2.48-2.23,0.38-3.09c4.9-1.46,9.47-3.68,13.49-6.9c1.64-1.31,3.46-1.56,4.97-0.23
	c2.41,2.14,5.62,2.65,8.14,4.47C1152.55,247.76,1143.67,250.25,1134.51,251.36z"/>
<path class="st4" d="M1300.73,219.16c-0.39-1.3-2.78-2.15-0.69-4.03c1.85-1.66,3.76-2.58,6.15-1.59c1.32,0.55,2.51,1.39,3.75,2.1
	C1307.07,217.32,1304.37,219.49,1300.73,219.16z"/>
<path class="st1" d="M842.04,147.99c6.35-3.29,11.71-8.11,18.79-10.47c7.6-2.53,14.25-1.35,21.05,1.66c4.11,1.82,2.72,6.43,4.59,9.4
	c0.18,1.82,0.36,3.63,0.54,5.45c1.62,16.8-0.62,32.94-8.19,48.18c-0.42,0.84-0.75,1.96-0.57,2.83c0.89,4.28-0.65,8.19-1.66,12.18
	c-5.16,20.45-14.82,38.75-27.65,55.27c-9.9,12.74-25.82,21.89-43.83,15.6c-6.91-5.73-9.13-14.03-9.03-22
	c0.24-18.69,5.07-36.71,10.99-54.39c1.58-4.71,3.5-9.32,3.74-14.38c0.03-0.65,0.04-1.56,0.44-1.9c8-6.86,4.39-18.98,11.85-26.06
	c3.07-4.1,6.13-8.2,9.22-12.29C835.02,153.48,838.48,150.67,842.04,147.99z M830.57,259.25c2.58,0.15,4.25-1.6,6.05-3
	c9.19-7.14,10.78-18.4,14.08-28.32c1.92-5.75,2.98-12.11,4.73-18.1c3.49-11.89,7.18-23.72,9.4-35.93c0.85-2.76,0.78-5.58,0.41-8.39
	c-0.77-5.92-4.51-7.66-9.76-4.59c-1.75,1.02-3.17,2.39-4.29,4.08c-4.41,6.66-8.62,13.43-11.23,21.03
	c-4.9,14.29-8.19,29.02-11.46,43.74c-0.84,3.78-1.79,7.4-4.26,10.5c-1.04,1.31-2.06,2.91-0.47,4.44c1.98,1.9,1.39,4.18,1.55,6.48
	C825.57,254.71,825.56,258.7,830.57,259.25z"/>
<path class="st1" d="M551.72,330.43c-3.22,2.49-5.8,6.01-11.4,7.2c3.94-4.52,7.48-7.5,11.4-10.06
	C551.72,328.53,551.72,329.48,551.72,330.43z"/>
<path class="st0" d="M561.89,326.39c2.3-2.26,4.8-4.26,7.66-5.78c-0.07,1.08-0.15,2.15-0.22,3.23c-2.2,2.36-4.9,4.06-7.62,5.73
	C561.77,328.51,561.83,327.45,561.89,326.39z"/>
<path class="st1" d="M500.8,302.8c-5.02-0.79-5.25-1.37-2.44-5.96c9.02-14.77,16.91-30.18,24.48-45.71
	c8.28-17,15.82-34.36,23.68-51.57c0.55-1.21,0.93-2.57,1.74-3.58c7.15-8.9,8.78-20.14,12.97-30.3c1.62-3.94,1.44-8.19,1.1-12.33
	c-0.23-2.78,0.91-3.97,3.49-4.35c10.53-1.56,21.05-3.22,31.58-4.75c5.47-0.79,1.62,2.56,1.76,4.13c-2.6,3.83-4.05,8.24-3.85,12.67
	c0.42,9.32-3.1,18.39-1.36,27.74c0.28,1.49-0.2,3.04-1.17,4.23c-2.37,2.89-3.15,5.92-1.98,9.64c0.57,1.82,0.24,3.96,0.13,5.94
	c-0.81,14.25-1.81,28.48-2.47,42.74c-0.39,8.42-1.33,16.91,1.22,25.23c1.69,5.49,0.36,7.9-5.44,9.08c-6.66,1.35-13.4,2.3-20.11,3.42
	c-1.56-0.8-3.32-1.41-3.55-3.55c3.24-4.97,3.13-10.72,3.72-16.29c0.35-3.29-1.43-3.3-3.55-1.85c-2.88,1.97-5.67,4.07-8.42,6.21
	c-7.36,5.73-7.41,5.85-14.79,0.27c-2.68-2.03-4.16-1.73-5.87,1.13c-2.95,4.93-5.23,10.07-5.62,15.82c-0.31,4.46-2.35,6.94-6.77,7.82
	C513.08,299.89,506.95,301.4,500.8,302.8z M565.36,207.37c-2.76,5.33-5.32,10.3-7.89,15.26c-3.75,7.23-6.22,15.11-10.79,21.92
	c-1.49,2.22-2.99,3.96-0.07,6.3c2.63,2.1,4.94,3.27,7.86,0.56c1.95-1.81,4.03-3.52,6.26-4.95c3.29-2.11,4.77-4.92,4.5-8.79
	c-0.55-7.85,0.65-15.61,1.16-23.4C566.52,212.19,567.14,209.98,565.36,207.37z"/>
<path class="st2" d="M564.12,289.08c6.71-1.12,13.45-2.07,20.11-3.42c5.8-1.18,7.13-3.58,5.44-9.08c-2.56-8.32-1.61-16.8-1.22-25.23
	c0.66-14.25,1.66-28.49,2.47-42.74c0.11-1.98,0.44-4.12-0.13-5.94c-1.17-3.72-0.39-6.75,1.98-9.64c0.97-1.19,1.45-2.74,1.17-4.23
	c-1.74-9.35,1.77-18.42,1.36-27.74c-0.2-4.43,1.26-8.85,3.85-12.67c7.12,1.16,10.3,6.49,7.29,12.81c-2.17,4.55-2.26,9.35-2.51,14.12
	c-0.41,7.94-2.38,15.81-1.2,23.83c0.07,0.48,0.1,1.12-0.15,1.46c-5.75,7.6-2.38,16.26-2.96,24.47c-0.78,10.96-2.29,21.88-2.58,32.85
	c-0.27,10.17-1.84,20.52,1.64,30.52c1.44,4.14-1.28,6.24-4.37,7.03c-6.72,1.73-13.58,3.05-20.45,4.05
	C570.13,300.08,565.04,294.17,564.12,289.08z"/>
<path class="st2" d="M416.04,319.18c18.22-3.69,36.45-7.38,54.67-11.04c1.55-0.31,3.09-0.72,3.44-2.41
	c1.88-8.89,7.81-15.69,11.93-23.42c1.01-1.9,1.88-3.88,2.81-5.82c8.95,4.86,9.98,7.61,5.56,16.4c-3.94,7.83-9.8,14.65-12.15,23.34
	c-0.39,1.46-1.84,2.2-3.45,2.52c-16.38,3.27-32.74,6.69-49.14,9.85C421.65,330.13,418.62,327.86,416.04,319.18z"/>
<path class="st2" d="M475.48,222.18c-3.04,0.85-6.05,1.77-9.11,2.54c-2.7,0.68-3.77-0.29-2.92-3.13c2.66-8.91,4.62-18.03,8.2-26.65
	c0.58-1.4,1.07-2.95,2.71-3.35c9.44-2.28,18.46-8.23,28.78-2.6c3.36,1.84,6.08,0.49,7.49-3.76c2.16-6.5,2.84-13.27,4.46-19.85
	c6.48,2.83,9.03,8.06,7.45,14.4c-1.08,4.32-1.52,8.79-2.48,13.14c-1.58,7.16-4.11,8.4-10.91,5.78c-4.12-1.59-8.38-1.97-12.68-0.89
	c-3.36,0.84-6.66,1.94-10.02,2.78c-4.1,1.04-6.5,3.67-7.56,7.64C477.65,212.87,475.59,217.28,475.48,222.18z"/>
<path class="st2" d="M456.09,287.14c-1.25,0.41-2.49,0.89-3.77,1.23c-8.79,2.31-9.35,1.86-6.89-7.13
	c2.81-10.26,5.99-20.43,8.97-30.64c0.82-2.8,2.48-4.75,5.36-5.33c5.36-1.08,10.62-2.9,16.24-1.92c3.93,0.68,6.36-1.27,7.56-4.89
	c1.46-4.42,2.87-8.85,4.3-13.28c7.72,2.96,9.7,6.96,7.26,14.48c-0.66,2.04-1.11,4.16-1.76,6.2c-2.12,6.69-4.63,8.33-11.59,7.98
	c-4.51-0.23-8.89,0.77-13.21,1.93c-3.05,0.83-4.92,2.51-5.69,6.05C461.02,270.35,457.21,278.39,456.09,287.14z"/>
<path class="st2" d="M500.8,302.8c6.16-1.4,12.29-2.91,18.48-4.15c4.42-0.88,6.46-3.36,6.77-7.82c0.39-5.75,2.67-10.89,5.62-15.82
	c1.71-2.86,3.19-3.16,5.87-1.13c7.38,5.58,7.43,5.47,14.79-0.27c2.75-2.14,5.54-4.25,8.42-6.21c2.12-1.45,3.9-1.43,3.55,1.85
	c-0.59,5.57-0.48,11.32-3.72,16.29c-5.57,3.4-10.72,3.35-15.63-1.47c-1.87-1.84-3.55-0.76-4.82,1.3c-2.37,3.86-4.13,7.97-4.77,12.42
	c-1.42,9.83-1.74,10.23-11.21,12c-3.24,0.61-6.49,1.32-9.65,2.26C506.43,314.46,502.17,311.64,500.8,302.8z"/>
<path class="st1" d="M537.3,332.67c1.48-1.91,3.42-3.27,5.43-4.54c0.38,0.42,0.77,0.83,1.15,1.25c-2,1.53-3.64,3.79-6.66,3.21
	L537.3,332.67z"/>
<path class="st3" d="M520.29,366.04c0.53-0.59,0.99-1.28,1.62-1.75c0.7-0.53,1.62-1.45,2.43-0.33c0.79,1.1-0.29,1.73-1.06,2.21
	c-0.93,0.58-1.97,0.99-2.96,1.47C520.3,367.11,520.3,366.57,520.29,366.04z"/>
<path class="st1" d="M543.71,342.84c-0.87,0.91-1.63,1.98-3.43,1.95c0.33-2.05,2.02-2.75,3.31-3.76
	C543.62,341.63,543.66,342.23,543.71,342.84z"/>
<path class="st0" d="M551.45,337.2c-1.02,0.77-2.04,1.55-3.07,2.32c-0.46-0.49-0.91-0.98-1.37-1.48c0.86-0.99,1.69-2.01,3.04-2.38
	C550.52,336.17,550.98,336.68,551.45,337.2z"/>
<path class="st3" d="M556.92,333.14c-1.12,0.77-2.54,2.92-3.53,1.35c-1.24-1.96,1.35-2.76,2.72-3.72c0.14,0.21,0.3,0.42,0.46,0.62
	C556.68,331.98,556.8,332.56,556.92,333.14z"/>
<path class="st3" d="M561.89,326.39c-0.06,1.06-0.12,2.11-0.18,3.17c-0.48,0.32-0.95,0.64-1.43,0.96c-0.5-0.56-1.01-1.11-1.51-1.67
	C559.81,328.03,560.85,327.21,561.89,326.39z"/>
<path class="st3" d="M560.28,330.52c-0.68,0.52-1.36,1.03-2.04,1.55c-0.56-0.23-1.12-0.45-1.68-0.67c-0.16-0.2-0.31-0.41-0.46-0.62
	c0.89-0.64,1.78-1.28,2.66-1.92C559.27,329.41,559.78,329.97,560.28,330.52z"/>
<path class="st3" d="M551.45,337.2c-0.47-0.51-0.93-1.03-1.4-1.54c0.76-0.83,1.63-2.08,2.66-0.6
	C553.46,336.11,552.3,336.72,551.45,337.2z"/>
<path class="st0" d="M543.71,342.84c-0.04-0.61-0.08-1.21-0.13-1.82c0.6-0.51,1.2-1.02,1.81-1.53c0.29,0.52,0.58,1.04,0.86,1.55
	C545.4,341.64,544.56,342.24,543.71,342.84z"/>
<path class="st0" d="M556.56,331.39c0.56,0.22,1.12,0.45,1.68,0.67c-0.44,0.36-0.89,0.72-1.33,1.07
	C556.8,332.56,556.68,331.98,556.56,331.39z"/>
<path class="st1" d="M537.22,332.6c0.03,0.03,0.06,0.05,0.08,0.08C537.3,332.67,537.22,332.6,537.22,332.6z"/>
<path class="st0" d="M548.38,339.51c-0.37,0.3-0.74,0.59-1.11,0.89c-0.46-0.45-0.92-0.9-1.38-1.35c0.38-0.34,0.75-0.67,1.13-1.01
	C547.47,338.53,547.93,339.02,548.38,339.51z"/>
<path class="st0" d="M547.27,340.4c-0.34,0.21-0.68,0.43-1.02,0.64c-0.29-0.52-0.58-1.03-0.86-1.55c0.18-0.14,0.35-0.29,0.51-0.44
	C546.35,339.5,546.81,339.95,547.27,340.4z"/>
<path class="st1" d="M520.29,366.04c0.01,0.53,0.01,1.07,0.02,1.6C518.6,367.13,519.67,366.58,520.29,366.04z"/>
<path class="st3" d="M543.88,329.39c-0.38-0.42-0.77-0.83-1.15-1.25c0.02-0.26,0.17-0.42,0.43-0.46c0.35,0.5,0.7,1,1.06,1.49
	C544.22,329.17,543.88,329.39,543.88,329.39z"/>
<path class="st1" d="M136.77,228.72c10.73-3,21.69-4.22,32.86-3.78c-10.99,1.92-22.16,2.84-33.01,5.55
	C136.67,229.9,136.72,229.31,136.77,228.72z"/>
<path class="st1" d="M135.38,221.59c8.72-2.8,17.88-2.34,26.82-3.63c-8.74,3.14-17.99,3.59-26.96,5.48
	C135.28,222.83,135.33,222.21,135.38,221.59z"/>
<path class="st1" d="M115.6,356.17c-5.38,1.73-10.65,0.85-15.86,1.42c-0.02-0.41-0.04-0.81-0.06-1.22
	C104.98,356.31,110.29,356.24,115.6,356.17z"/>
<path class="st1" d="M99.14,346.92c4.97-1.17,9.96-1.73,16.28-0.37C109.17,347.71,104.17,347.73,99.14,346.92z"/>
<path class="st1" d="M153.51,233.77c2.83-2.07,5.13-2.69,8.36-1.85C159.3,233.87,157.04,234.64,153.51,233.77z"/>
<path class="st1" d="M99.27,366.47c-2.38,0.9-4.66,2.31-8.16,0.9C94.26,365.42,96.73,365.43,99.27,366.47z"/>
<path class="st3" d="M100.15,376.82c-1.54,0.44-3.09,0.97-5.01,0.06c1.75-2.08,3.48-0.69,5.05-0.64
	C100.14,376.43,100.13,376.63,100.15,376.82z"/>
<path class="st3" d="M136.77,228.72c-0.05,0.59-0.1,1.18-0.15,1.77c-1.07,0.09-2.86,1.24-3.05-0.02
	C133.27,228.4,135.43,228.88,136.77,228.72z"/>
<path class="st3" d="M135.38,221.59c-0.05,0.62-0.1,1.24-0.14,1.86c-1.14,0.21-2.94,1.55-3.18-0.26
	C131.82,221.43,134.02,221.72,135.38,221.59z"/>
<path class="st1" d="M100.15,376.82c-0.02-0.2-0.01-0.39,0.04-0.58c0.96-0.17,1.88-0.15,2.34,0.52
	C101.97,376.78,101.06,376.8,100.15,376.82z"/>
<path class="st1" d="M887.44,275.55c-2.21-0.37-4.29-1.06-2.13-3.69c5.57-6.77,7.77-14.94,10.13-23.08
	c0.45-1.56,1.35-3.06,2.33-4.37c1.86-2.5,2.9-4.94,2.03-8.25c-0.96-3.64,1.78-6.62,2.75-9.92c4.06-13.86,8.35-27.6,11.28-41.81
	c2.53-12.27,7.02-24.14,10.77-36.15c1.42-4.56,2-9.09,0.67-13.73c-1.25-4.39,0.18-6.9,4.75-8c13.28-3.21,26.81-5.08,40.33-6.56
	c6.99-0.77,12.36,3.96,15.69,9.82c2.59,4.56,3.96,9.82,5.87,14.76c0.48,6.62-4.21,11.69-5.34,17.83c-1.65,9-6.3,16.25-13.08,22.22
	c-3.11,2.73-6.31,5.35-9.49,8c-1.17,0.98-2.66,1.92-0.64,3.38c3.05,2.21,3.59,5.79,5.06,8.87c0.33,1.68,0.67,3.36,1,5.03
	c0.19,9.64-0.45,19.25-1.77,28.77c-0.84,6.1-1.19,11.89,2.25,17.29c1.32,2.08,0.75,3.89-1.38,4.27c-8.54,1.53-16.67,6.03-25.76,3.77
	c-5.25-2.56-5.5-6.88-4.19-11.78c1.8-6.74,1.43-13.68,1.79-20.54c0.04-0.76-0.45-1.54-0.69-2.31c0.75-2.78,0.68-5.64,0.35-8.42
	c-0.41-3.45-3.44-5.07-6.12-5.87c-2.45-0.73-2.67,2.46-3.46,4.09c-4.45,9.17-7.31,18.93-9.36,28.83
	c-1.04,5.04-3.27,10.36-1.21,15.62c1.66,4.24-0.25,5.98-3.91,6.69c-2.59,0.5-5.82-0.28-7.82,1
	C901.67,275.41,894.52,275.06,887.44,275.55z M949.66,179.98c1.95,0.09,2.89-1.47,3.98-2.61c5.4-5.66,7.94-12.52,8.2-20.28
	c0.84-1.77,0.06-3.61,0.25-5.41c0.5-4.93-2.32-6.72-6.68-7.41c-4.51-0.71-6.34,1.7-7.36,5.51c-2.35,8.81-4.85,17.57-7.1,26.4
	c-0.75,2.92-3.55,7.51-1.45,8.46c2.82,1.28,6.61-1.69,9.36-4.13C949.1,180.31,949.39,180.16,949.66,179.98z"/>
<path class="st1" d="M1048.39,247.08c-0.97-0.24-1.94-0.47-2.91-0.71c1.83-5.82,5.46-11.08,5.56-17.44c0.02-1.4,0.79-3.31-0.84-4.07
	c-1.33-0.62-2.38,0.89-3.3,1.76c-6.56,6.14-13.52,8.8-21.61,2.76c-0.13-0.1-0.29-0.16-0.44-0.24c-2.21-1.34-3.78-0.62-4.87,1.54
	c-2.69,5.35-6.01,10.63-6.59,16.6c-0.46,4.79-2.7,6.11-6.82,6.7c-8.06,1.16-16.11,2.51-23.58,6.03c-2.35,0.06-3.57-0.74-2.4-3.25
	c0.35-0.75,0.73-1.51,1.24-2.15c15.99-20.44,27.25-43.51,37.53-67.13c3.31-7.61,8.65-14.2,11.38-22.09
	c5.2-15.08,14.74-28.17,19.8-43.32c1.26-3.76,0.38-7.6,0.51-11.4c0.2-6.21,1.98-8.91,7.89-7.46c10.8,2.64,19.77-3.23,29.63-4.64
	c3.39-0.48,4.58-0.43,2.89,3.11c-3.49,3.23-5.34,7.28-5.23,11.97c0.37,16.63-4,32.98-2.96,49.65c0.07,1.07-0.3,2.59-1.04,3.2
	c-5.47,4.55-3.43,11.39-3.33,16.4c0.15,8.39-0.59,16.45-1.86,24.64c-1.25,8.06-1.86,16.22,0.12,24.26
	c2.15,8.71,1.59,9.85-7.19,12.21c-2.41,0.65-4.87,0.86-7.38,0.97C1057.78,245.2,1052.88,244.83,1048.39,247.08z M1055.32,161.03
	c-0.46-0.12-0.91-0.23-1.37-0.35c-2.82,7.83-6.37,15.28-10.43,22.52c-3.33,5.94-6.2,12.14-8.99,18.36c-1.46,3.25,2.52,9,5.62,8.61
	c1.95-0.24,11.73-9.38,11.94-11.6C1053.25,186.06,1054.26,173.55,1055.32,161.03z"/>
<path class="st1" d="M1181.41,153.94c-3.76,3.21-4.99,7.69-6.14,12.22c-3.81,14.96-8.49,29.64-13.8,44.15
	c-1.63,4.45-1.9,9.41-2.63,14.16c-1.06,6.86-4.39,8.78-9.89,4.64c-3.37-2.53-5.21-1.54-8.13,0.23c-9.44,5.72-19.39,9.96-30.88,8.48
	c-1.68-0.22-3.22-0.51-4.51-1.65c-5.98-4.7-5.59-11.76-6.36-18.19c-0.49-4.06,0.65-8.27-0.48-12.4c-0.24-0.88,0.03-2,0.33-2.93
	c8.89-27.1,15.04-55.05,26.03-81.5c5.29-12.74,13.42-23.26,24.48-30.86c7.72-5.3,16.4-10.26,26.71-9.19
	c1.48,0.15,3.42-0.27,4.37,0.52c5.26,4.35,10.05,2.38,14.98-0.49c1.42-0.83,3.39-1.69,2.98,1.53c-4.92,10.79-6.16,22.63-9.63,33.83
	c-1.94,6.26-3.13,6.23-8.32,2.5c-13.7-9.84-26.46-11.32-33.72,7.21c-0.24,0.62-0.48,1.24-0.66,1.88
	c-4.74,17.13-11.54,33.64-15.23,51.08c-1.38,6.49-3.05,12.97-3.79,19.54c-0.69,6.19,1.52,8.05,7.14,7.51
	c5.87-1.08,9.87-4.62,12.3-9.87c4.43-9.56,6.15-19.97,8.97-30.04c0.68-2.41,0.51-5.06-1.63-6.93c-2.31-2.02-1.29-3.05,0.98-3.68
	c1.92-0.53,3.89-1.22,5.83-1.19c5.07,0.06,9.76-0.98,14.5-2.86C1176.87,150.96,1181.31,148.11,1181.41,153.94z"/>
<path class="st1" d="M1267.67,181.96c-5.25,8.98-11.96,17.18-14.48,27.6c-0.47,1.92-1.75,3.24-3.72,3.61
	c-8.64,1.6-17.26,4.21-25.94,4.44c-11.19,0.29-21.78,3.21-32.62,5.02c-2.45-0.24-3.97-0.97-2.04-3.67c5.73-8.01,9.02-16.91,10-26.74
	c0.17-1.7,1.3-3.42,2.33-4.89c1.88-2.69,5.33-4.81,1.45-8.67c-1.03-1.02,0.3-3.16,0.83-4.72c7.5-21.67,13.17-43.89,19.26-65.96
	c2.68-9.7,7.54-19.37,4.89-30.11c-0.6-2.43,1.22-3.8,3.4-4.03c5.65-0.61,10.81-3.01,16.95-2.58c4.35,0.3,9.37-2.51,14.27-3.41
	c8.33-1.52,16.6-3.38,24.88-5.17c4.16-0.9,7-0.27,6.49,4.9c-2.06,7-2.75,14.36-5.89,21.1c-1.31,2.81-2.68,3.92-5.69,2.99
	c-8.78-2.7-17.08-0.39-25.25,2.69c-2.65,0.99-4.29,2.97-5.09,5.75c-1.59,5.59-3.42,11.12-4.94,16.73c-0.89,3.28-3.79,7.42-1.35,9.78
	c2.25,2.18,6.56-0.11,9.87-1.11c4.94,0.7,7.99-3.16,11.86-4.98c3.01-1.42,4.25-1.06,3.43,2.49c-2.08,6.98-4.27,13.93-6.21,20.94
	c-0.8,2.91-1.94,4.4-5.19,3.16c-6.73-2.57-13.05-0.37-19.3,1.94c-2.15,0.79-3.39,2.42-4.08,4.66c-2.82,9.17-5.87,18.27-8.61,27.47
	c-2.9,9.74-2.59,9.98,7.67,7.7c10.46-2.07,21.1-3.58,30.11-10.02c0.79-0.56,1.76-1.51,2.64-0.91
	C1269.31,179.1,1267.28,180.6,1267.67,181.96z"/>
<path class="st2" d="M805.1,288.09c18.02,6.29,33.94-2.85,43.83-15.6c12.83-16.52,22.49-34.82,27.65-55.27
	c1.01-3.99,2.54-7.89,1.66-12.18c-0.18-0.87,0.15-1.99,0.57-2.83c7.58-15.24,9.82-31.38,8.19-48.18c-0.18-1.82-0.36-3.63-0.54-5.45
	c3.57,0.42,4.53,3.41,4.97,6.04c1.29,7.65,2.3,15.36,3.03,23.08c0.46,4.82-1.74,9.39-2.18,14.21c-0.51,5.56-1.09,11.54-3.5,16.41
	c-5.68,11.47-5.3,24.41-10.15,36.07c-5.39,12.96-12.16,24.94-20.11,36.46c-6.03,8.73-12.97,16.02-23.01,19.73
	c-7.4,2.73-14.85,3.5-22.75,0.94C805.59,299.18,805.76,293.62,805.1,288.09z"/>
<path class="st2" d="M1134.26,206.2c-5.62,0.54-7.83-1.32-7.14-7.51c0.74-6.57,2.41-13.05,3.79-19.54
	c3.7-17.44,10.49-33.95,15.23-51.08c0.18-0.64,0.42-1.26,0.66-1.88c7.26-18.53,20.02-17.05,33.72-7.21c5.2,3.73,6.39,3.76,8.32-2.5
	c3.47-11.21,4.71-23.04,9.63-33.83c7.55,7,8.21,9.57,4.25,18.47c-3.47,7.79-3.53,16.47-6.56,24.36c-0.65,1.69-0.88,3.53-1.51,5.23
	c-1.46,3.93-3.75,4.58-7.15,1.88c-4.64-3.68-9.6-6.44-15.66-6.93c-8.54-0.7-14.04,2.07-16.96,10.24
	c-6.76,18.98-13.89,37.87-17.77,57.75C1136.29,197.86,1135.22,202.02,1134.26,206.2z"/>
<path class="st2" d="M1048.39,247.08c4.49-2.25,9.39-1.88,14.17-2.1c2.51-0.12,4.97-0.33,7.38-0.97c8.79-2.36,9.35-3.5,7.19-12.21
	c-1.99-8.04-1.38-16.2-0.12-24.26c1.27-8.19,2.02-16.25,1.86-24.64c-0.09-5.01-2.13-11.86,3.33-16.4c0.74-0.62,1.1-2.14,1.04-3.2
	c-1.04-16.67,3.33-33.02,2.96-49.65c-0.1-4.68,1.74-8.74,5.23-11.97c6.41,3.62,8.06,9.8,4.09,15.48c-1.66,2.37-2.66,4.89-2.75,7.86
	c-0.19,6.78-1.58,13.48-0.81,20.36c0.66,5.84-2.22,11.35-2.35,17.19c-0.09,3.96-1.1,7.9-0.12,11.9c0.26,1.06,0.15,2.49-0.38,3.42
	c-5.07,8.95-4.21,18.55-3.31,28.18c0.26,2.85-0.93,5.52-1.39,8.27c-1.42,8.44-2.23,16.94-1.54,25.55c0.2,2.52,0.52,4.84,1.54,7.15
	c1.77,4.03,0,6.47-3.61,8.41c-6.48,3.47-13.59,2.38-20.42,3.17c-7.9,0.92-7.92,0.77-10.85-6.76
	C1048.91,250.32,1048.04,248.84,1048.39,247.08z"/>
<path class="st2" d="M982.98,260.01c7.47-3.53,15.52-4.88,23.58-6.03c4.12-0.59,6.36-1.91,6.82-6.7c0.58-5.98,3.9-11.25,6.59-16.6
	c1.09-2.16,2.66-2.88,4.87-1.54c0.14,0.09,0.3,0.14,0.44,0.24c8.1,6.04,15.06,3.38,21.61-2.76c0.93-0.87,1.98-2.38,3.3-1.76
	c1.63,0.77,0.86,2.67,0.84,4.07c-0.1,6.35-3.73,11.61-5.56,17.44c-4.76,0.09-9.12-1.5-13.32-3.46c-3.25-1.51-5.18-0.7-6.82,2.42
	c-2.86,5.45-4.67,11.26-6.21,17.15c-0.8,3.07-2.53,3.84-5.55,4.47c-7.56,1.56-15.4,2.01-22.58,5.26c-2.4,1.09-4.36,0.84-5.2-2.4
	C984.94,266.52,982.04,263.83,982.98,260.01z"/>
<path class="st2" d="M887.44,275.55c7.08-0.48,14.23-0.14,20.71-4.26c2-1.27,5.22-0.49,7.82-1c3.66-0.71,5.57-2.45,3.91-6.69
	c-2.06-5.27,0.17-10.58,1.21-15.62c2.04-9.9,4.91-19.67,9.36-28.83c0.79-1.63,1.01-4.81,3.46-4.09c2.69,0.8,5.72,2.42,6.12,5.87
	c0.33,2.78,0.4,5.64-0.35,8.42c-2.59-0.1-2.7,2.22-3.33,3.72c-5.15,12.38-9.35,25.04-10.48,38.52c-0.11,1.31-0.31,2.69-0.05,3.95
	c1.16,5.45,0.08,7.55-5.47,7.94c-3.78,0.26-6.86,1.69-10.22,3.06c-5.07,2.07-10.68,1.85-16.1,2.15c-1.37,0.08-3.08-0.37-3.15-1.85
	C890.7,282.73,887.63,279.59,887.44,275.55z"/>
<path class="st2" d="M1234.87,188.89c-10.26,2.27-10.58,2.04-7.67-7.7c2.74-9.2,5.79-18.3,8.61-27.47c0.69-2.24,1.93-3.87,4.08-4.66
	c6.26-2.31,12.58-4.51,19.3-1.94c3.25,1.24,4.39-0.25,5.19-3.16c1.94-7.02,4.12-13.97,6.21-20.94c5.59,4.55,7.32,9.59,5.47,15.73
	c-1.8,5.99-3.64,11.98-5.3,18.02c-0.94,3.44-2.76,4.66-6.22,3.42c-6.58-2.35-12.71-0.2-18.78,2.11c-1.85,0.7-2.7,2.33-3.3,4.13
	C1239.96,173.92,1237.41,181.4,1234.87,188.89z"/>
<path class="st2" d="M1255.29,125.5c-3.31,1-7.62,3.29-9.87,1.11c-2.44-2.36,0.45-6.5,1.35-9.78c1.53-5.61,3.35-11.13,4.94-16.73
	c0.79-2.79,2.44-4.76,5.09-5.75c8.17-3.07,16.47-5.38,25.25-2.69c3.01,0.93,4.38-0.18,5.69-2.99c3.14-6.75,3.84-14.1,5.89-21.1
	c8.74,4.97,6.15,12.85,4.81,20.11c-0.68,3.67-2.13,7.29-3.23,10.91c-1.51,4.98-3.92,6.77-9.01,5.74c-5.43-1.1-10.92-0.49-16.29,0.76
	c-9.62,2.24-12.89,5.95-14.2,15.94C1255.51,122.51,1255.43,124.01,1255.29,125.5z"/>
<path class="st2" d="M942.77,263.98c9.09,2.26,17.22-2.24,25.76-3.77c2.13-0.38,2.71-2.19,1.38-4.27
	c-3.44-5.41-3.09-11.19-2.25-17.29c1.31-9.52,1.95-19.13,1.77-28.77c6.48,3.39,6.5,10.18,6.16,15.55
	c-0.56,9.01,0.6,18.15-1.82,27.12c-1.45,5.36-0.78,11.01,2.15,15.89c1.96,3.26-0.28,4.73-2.22,5.26c-6.2,1.69-12.52,3.48-18.88,3.96
	C946.43,278.29,942.22,272.99,942.77,263.98z"/>
<path class="st2" d="M968.43,204.85c-1.48-3.07-2.01-6.66-5.06-8.87c-2.02-1.46-0.54-2.41,0.64-3.38c3.18-2.65,6.38-5.27,9.49-8
	c6.78-5.97,11.43-13.22,13.08-22.22c1.12-6.14,5.82-11.21,5.34-17.83c4.14,3.46,5.4,8.23,5.78,13.27
	c0.44,5.66-2.58,10.46-4.08,15.65c-1.57,5.47-3.49,10.6-6.36,15.51c-3.73,6.38-9.7,10.36-15.04,15.04
	C971.1,205.01,969.75,204.89,968.43,204.85z"/>
<path class="st2" d="M830.57,259.25c-5.01-0.55-5-4.54-5.24-8.05c-0.16-2.3,0.42-4.58-1.55-6.48c-1.59-1.53-0.57-3.14,0.47-4.44
	c2.47-3.1,3.42-6.72,4.26-10.5c3.27-14.72,6.55-29.45,11.46-43.74c2.61-7.6,6.81-14.38,11.23-21.03c1.12-1.69,2.54-3.06,4.29-4.08
	c5.25-3.07,8.99-1.33,9.76,4.59c0.37,2.81,0.44,5.63-0.41,8.39c-2.04-0.46-3.44,0.65-4.89,1.85c-5.87,4.83-8.53,11.78-11.62,18.28
	c-6.06,12.75-7.49,26.93-11.7,40.27c-1.73,5.49-1.16,11.65-4.64,16.56C830.09,253.55,829.67,256.22,830.57,259.25z"/>
<path class="st4" d="M830.57,259.25c-0.9-3.03-0.48-5.7,1.42-8.39c3.48-4.91,2.91-11.08,4.64-16.56c4.2-13.34,5.64-27.53,11.7-40.27
	c3.09-6.5,5.75-13.45,11.62-18.28c1.45-1.19,2.85-2.31,4.89-1.85c-2.22,12.22-5.91,24.05-9.4,35.93c-1.76,5.99-2.82,12.35-4.73,18.1
	c-3.3,9.92-4.89,21.18-14.08,28.32C834.82,257.65,833.15,259.4,830.57,259.25z"/>
<path class="st2" d="M565.36,207.37c1.78,2.61,1.16,4.82,1.03,6.89c-0.51,7.8-1.71,15.56-1.16,23.4c0.27,3.87-1.21,6.68-4.5,8.79
	c-2.23,1.43-4.31,3.15-6.26,4.95c-2.92,2.71-5.23,1.54-7.86-0.56c-2.92-2.33-1.42-4.08,0.07-6.3c4.57-6.81,7.03-14.69,10.79-21.92
	C560.04,217.66,562.6,212.7,565.36,207.37z"/>
<path class="st2" d="M949.66,179.98c-0.27,0.18-0.57,0.33-0.81,0.54c-2.75,2.44-6.54,5.41-9.36,4.13c-2.1-0.95,0.71-5.55,1.45-8.46
	c2.26-8.83,4.75-17.6,7.1-26.4c1.02-3.81,2.85-6.22,7.36-5.51c4.36,0.68,7.19,2.48,6.68,7.41c-0.18,1.8,0.59,3.64-0.25,5.41
	c-4.77-0.61-6.4,2.81-7.53,6.31C952.55,168.86,951.19,174.45,949.66,179.98z"/>
<path class="st4" d="M949.66,179.98c1.53-5.53,2.89-11.12,4.65-16.58c1.13-3.5,2.76-6.92,7.53-6.31c-0.26,7.76-2.8,14.62-8.2,20.28
	C952.55,178.51,951.61,180.07,949.66,179.98z"/>
<path class="st2" d="M1055.32,161.03c-1.06,12.51-2.07,25.03-3.23,37.53c-0.21,2.22-9.99,11.36-11.94,11.6
	c-3.1,0.39-7.08-5.36-5.62-8.61c2.79-6.21,5.66-12.42,8.99-18.36c4.06-7.24,7.61-14.69,10.43-22.52
	C1054.41,160.8,1054.86,160.92,1055.32,161.03z"/>
</svg>
